<svg width="10" height="6" viewBox="0 0 10 6" fill="none" xmlns="http://www.w3.org/2000/svg">
<path d="M0.159839 5.49853L0.487403 5.83358C0.590493 5.93822 0.727648 5.99587 0.874234 5.99587C1.02074 5.99587 1.15806 5.93822 1.26115 5.83358L4.99776 2.03769L8.73869 5.8378C8.84162 5.94244 8.97893 6 9.12544 6C9.27195 6 9.40934 5.94244 9.51235 5.8378L9.84 5.5048C10.0533 5.28826 10.0533 4.93553 9.84 4.71898L5.38598 0.178224C5.28305 0.0736681 5.1459 -4.24359e-07 4.99809 -4.37281e-07L4.99638 -4.3743e-07C4.8498 -4.50245e-07 4.71264 0.0737505 4.60971 0.178224L0.159839 4.70668C0.0567485 4.81123 0.00016317 4.95477 7.83664e-08 5.10359C6.53487e-08 5.2525 0.0567484 5.39405 0.159839 5.49853Z" fill="#FF4200"/>
</svg>
