<svg width="10" height="6" viewBox="0 0 10 6" fill="none" xmlns="http://www.w3.org/2000/svg">
<path d="M9.84016 0.501473L9.5126 0.166414C9.40951 0.0617757 9.27235 0.00412948 9.12577 0.00412948C8.97926 0.00412948 8.84194 0.0617757 8.73885 0.166414L5.00224 3.96231L1.26131 0.162202C1.15838 0.0575637 1.02107 0 0.87456 0C0.728055 0 0.590655 0.0575637 0.487646 0.162202L0.160001 0.495196C-0.0533338 0.711741 -0.0533338 1.06447 0.160001 1.28102L4.61402 5.82178C4.71695 5.92633 4.8541 6 5.00191 6H5.00362C5.1502 6 5.28736 5.92625 5.39029 5.82178L9.84016 1.29332C9.94325 1.18877 9.99984 1.04523 10 0.896407C10 0.747502 9.94325 0.605946 9.84016 0.501473Z" fill="#2B2928"/>
</svg>
