<svg width="19" height="19" viewBox="0 0 19 19" fill="none" xmlns="http://www.w3.org/2000/svg">
<path d="M14.9877 0H4.01185C2.73841 0 1.70605 1.03235 1.70605 2.30579V16.6942C1.70605 17.9676 2.73841 19 4.01185 19H14.9877C16.2611 19 17.2935 17.9676 17.2935 16.6942V2.30579C17.2935 1.03235 16.2611 0 14.9877 0ZM3.98763 2.37038H15.0119V6.04848H3.98763V2.37038ZM5.3493 15.9133C4.55252 15.9133 3.90658 15.2674 3.90658 14.4707C3.90658 13.674 4.55252 13.0281 5.3493 13.0281C6.14597 13.0281 6.79186 13.674 6.79186 14.4707C6.79186 15.2674 6.14597 15.9133 5.3493 15.9133ZM5.3493 10.9426C4.55252 10.9426 3.90658 10.2967 3.90658 9.5C3.90658 8.70333 4.55252 8.05739 5.3493 8.05739C6.14597 8.05739 6.79186 8.70333 6.79186 9.5C6.79186 10.2967 6.14597 10.9426 5.3493 10.9426ZM9.49975 15.9133C8.70298 15.9133 8.05719 15.2674 8.05719 14.4707C8.05719 13.674 8.70298 13.0281 9.49975 13.0281C10.2965 13.0281 10.9423 13.674 10.9423 14.4707C10.9423 15.2674 10.2965 15.9133 9.49975 15.9133ZM9.49975 10.9426C8.70298 10.9426 8.05719 10.2967 8.05719 9.5C8.05719 8.70333 8.70298 8.05739 9.49975 8.05739C10.2965 8.05739 10.9423 8.70333 10.9423 9.5C10.9423 10.2967 10.2965 10.9426 9.49975 10.9426ZM13.6502 15.9133C12.8535 15.9133 12.2077 15.2674 12.2077 14.4707C12.2077 13.674 12.8535 13.0281 13.6502 13.0281C14.447 13.0281 15.0929 13.674 15.0929 14.4707C15.0929 15.2674 14.447 15.9133 13.6502 15.9133ZM13.6502 10.9426C12.8535 10.9426 12.2077 10.2967 12.2077 9.5C12.2077 8.70333 12.8535 8.05739 13.6502 8.05739C14.447 8.05739 15.0929 8.70333 15.0929 9.5C15.0929 10.2967 14.447 10.9426 13.6502 10.9426Z" fill="#FF4F00"/>
</svg>
