<svg width="90" height="90" viewBox="0 0 90 90" fill="none" xmlns="http://www.w3.org/2000/svg">
<path d="M4.16494 44.2549C5.91288 44.2549 7.32987 42.838 7.32987 41.09C7.32987 39.3421 5.91288 37.9251 4.16494 37.9251C2.41699 37.9251 1 39.3421 1 41.09C1 42.838 2.41699 44.2549 4.16494 44.2549Z" fill="url(#paint0_linear)"/>
<path d="M87.029 67.036L25.8486 67.085C23.4176 67.087 21.4381 65.1107 21.4362 62.6796L21.3956 28.0924C21.3901 21.3852 18.7733 15.0815 14.0266 10.3426L12.5198 8.83826C11.389 7.70922 9.54844 7.60674 8.36737 8.68322C7.10649 9.83248 7.07345 11.7875 8.267 12.979L9.83338 14.5429C13.2583 17.9625 15.2304 22.4493 15.4408 27.2547H4.70673C2.91359 27.2547 1.3908 28.7221 1.42437 30.5147C1.45707 32.2533 2.8765 33.6525 4.62271 33.6525H13.3509C14.5201 33.6525 15.4682 34.5997 15.4696 35.7688C15.471 36.9398 14.522 37.8899 13.3509 37.8899H11.7209C9.95414 37.8899 8.52188 39.3222 8.52188 41.089C8.52188 42.8557 9.95414 44.288 11.7209 44.288H13.5185C14.602 44.288 15.4809 45.1657 15.4821 46.2494C15.4833 47.3346 14.6037 48.2153 13.5185 48.2153H11.7207C9.95397 48.2153 8.52171 49.6476 8.52171 51.4143C8.52171 53.1811 9.95397 54.6134 11.7207 54.6134H15.4916L15.5011 62.6845C15.5057 68.3883 20.1496 73.0248 25.8535 73.0204L87.0339 72.9714C88.6727 72.9702 90.0004 71.6404 89.9992 70.0014C89.9976 68.3622 88.6678 67.0348 87.029 67.036Z" fill="url(#paint1_linear)"/>
<path d="M14.0292 10.3428L12.4629 8.77885C11.3031 7.62098 9.42396 7.62239 8.26609 8.78219C7.10787 9.94199 7.10945 11.8211 8.26943 12.979L9.83582 14.5429C11.5034 16.2079 12.8258 18.1265 13.7691 20.2109L18.1801 15.7929C17.066 13.8202 15.6761 11.987 14.0292 10.3428Z" fill="url(#paint2_linear)"/>
<path d="M1.37281 1.95996C3.20532 0.12463 6.17848 0.122169 8.01381 1.95468L11.7954 5.73028C13.6307 7.5628 13.6332 10.536 11.8007 12.3713C9.96814 14.2066 6.99498 14.2091 5.15966 12.3766L1.37808 8.60096C-0.457249 6.76844 -0.45971 3.79529 1.37281 1.95996Z" fill="url(#paint3_linear)"/>
<path d="M32.9581 89.4182C39.2367 89.4182 44.3264 84.3284 44.3264 78.0499C44.3264 71.7714 39.2367 66.6816 32.9581 66.6816C26.6796 66.6816 21.5898 71.7714 21.5898 78.0499C21.5898 84.3284 26.6796 89.4182 32.9581 89.4182Z" fill="url(#paint4_linear)"/>
<path d="M32.9575 85.8746C37.279 85.8746 40.7822 82.3714 40.7822 78.0499C40.7822 73.7284 37.279 70.2252 32.9575 70.2252C28.6361 70.2252 25.1328 73.7284 25.1328 78.0499C25.1328 82.3714 28.6361 85.8746 32.9575 85.8746Z" fill="url(#paint5_linear)"/>
<path d="M32.958 81.8165C35.0383 81.8165 36.7247 80.1302 36.7247 78.0499C36.7247 75.9696 35.0383 74.2833 32.958 74.2833C30.8778 74.2833 29.1914 75.9696 29.1914 78.0499C29.1914 80.1302 30.8778 81.8165 32.958 81.8165Z" fill="url(#paint6_linear)"/>
<path d="M71.8019 89.4182C78.0804 89.4182 83.1701 84.3284 83.1701 78.0499C83.1701 71.7714 78.0804 66.6816 71.8019 66.6816C65.5233 66.6816 60.4336 71.7714 60.4336 78.0499C60.4336 84.3284 65.5233 89.4182 71.8019 89.4182Z" fill="url(#paint7_linear)"/>
<path d="M71.8013 85.8746C76.1227 85.8746 79.626 82.3714 79.626 78.0499C79.626 73.7284 76.1227 70.2252 71.8013 70.2252C67.4798 70.2252 63.9766 73.7284 63.9766 78.0499C63.9766 82.3714 67.4798 85.8746 71.8013 85.8746Z" fill="url(#paint8_linear)"/>
<path d="M71.8018 81.8165C73.882 81.8165 75.5684 80.1302 75.5684 78.0499C75.5684 75.9696 73.882 74.2833 71.8018 74.2833C69.7215 74.2833 68.0352 75.9696 68.0352 78.0499C68.0352 80.1302 69.7215 81.8165 71.8018 81.8165Z" fill="url(#paint9_linear)"/>
<path d="M68.7592 65.4784H28.3563C26.6237 65.4784 25.3668 64.2492 25.3519 62.5399L25.0508 27.8133H86.4948L72.8894 62.5399C72.2198 64.2492 70.4921 65.4784 68.7592 65.4784Z" fill="url(#paint10_linear)"/>
<path d="M64.583 61.498C64.4701 61.498 64.3578 61.4897 64.2465 61.4722C63.0361 61.2839 62.4012 60.1144 62.8285 58.8601L70.0793 37.5777C70.5066 36.3234 71.8346 35.4589 73.0449 35.6473C74.2553 35.8356 74.8902 37.0051 74.4627 38.2594L67.2119 59.5417C66.824 60.6806 65.6939 61.498 64.583 61.498Z" fill="url(#paint11_linear)"/>
<path d="M34.0574 61.498C32.9465 61.498 32.1295 60.6808 32.1778 59.5419L33.0806 38.2596C33.1337 37.0052 34.2167 35.8358 35.4994 35.6475C36.7815 35.4594 37.7787 36.3235 37.7253 37.5779L36.8225 58.8602C36.7694 60.1146 35.6864 61.2841 34.4037 61.4723C34.2858 61.4894 34.1699 61.498 34.0574 61.498Z" fill="url(#paint12_linear)"/>
<path d="M54.5276 61.4978C54.4883 61.4978 54.4489 61.4968 54.4097 61.4948C53.1632 61.4302 52.4016 60.3507 52.7086 59.0838L57.8673 37.8015C58.1744 36.5348 59.4353 35.5628 60.68 35.6252C61.9264 35.6899 62.6881 36.7693 62.381 38.0362L57.2224 59.3185C56.9251 60.5451 55.7345 61.4978 54.5276 61.4978Z" fill="url(#paint13_linear)"/>
<path d="M44.1132 61.4978C42.9061 61.4978 42.0807 60.5453 42.2533 59.3185L45.2484 38.0362C45.4266 36.7695 46.6017 35.69 47.873 35.6252C49.1439 35.561 50.0303 36.5347 49.8521 37.8015L46.857 59.0838C46.6787 60.3505 45.5036 61.43 44.2324 61.4948C44.1923 61.4968 44.1524 61.4978 44.1132 61.4978Z" fill="url(#paint14_linear)"/>
<path d="M25.0974 33.1992L50.992 65.4784H68.7589C70.4917 65.4784 72.2195 64.2492 72.8892 62.5399L86.4946 27.8133H25.0508L25.0974 33.1992Z" fill="url(#paint15_linear)"/>
<path d="M86.2244 33.4348H25.3215C23.5399 33.4348 22.0957 31.9905 22.0957 30.209C22.0957 28.4275 23.5399 26.9833 25.3215 26.9833H86.2246C88.0062 26.9833 89.4504 28.4275 89.4504 30.209C89.4502 31.9907 88.006 33.4348 86.2244 33.4348Z" fill="url(#paint16_linear)"/>
<defs>
<linearGradient id="paint0_linear" x1="5.09669" y1="41.6608" x2="9.9407" y2="44.6219" gradientUnits="userSpaceOnUse">
<stop stop-color="#C3C3C3"/>
<stop offset="1" stop-color="#777777"/>
</linearGradient>
<linearGradient id="paint1_linear" x1="2.90439" y1="39.8611" x2="91.4782" y2="43.4698" gradientUnits="userSpaceOnUse">
<stop stop-color="#C3C3C3"/>
<stop offset="1" stop-color="#777777"/>
</linearGradient>
<linearGradient id="paint2_linear" x1="15.4389" y1="16.8162" x2="8.83199" y2="10.2193" gradientUnits="userSpaceOnUse">
<stop stop-color="#C3C3C3" stop-opacity="0"/>
<stop offset="0.267" stop-color="#A4A4A4" stop-opacity="0.267"/>
<stop offset="0.542" stop-color="#8B8B8B" stop-opacity="0.542"/>
<stop offset="0.794" stop-color="#7C7C7C" stop-opacity="0.794"/>
<stop offset="1" stop-color="#777777"/>
</linearGradient>
<linearGradient id="paint3_linear" x1="9.91181" y1="3.83684" x2="3.27596" y2="10.4829" gradientUnits="userSpaceOnUse">
<stop stop-color="#AD8BD7"/>
<stop offset="1" stop-color="#7149B7"/>
</linearGradient>
<linearGradient id="paint4_linear" x1="25.8132" y1="72.4917" x2="39.8141" y2="83.385" gradientUnits="userSpaceOnUse">
<stop stop-color="#777777"/>
<stop offset="1" stop-color="#3B4041"/>
</linearGradient>
<linearGradient id="paint5_linear" x1="33.7308" y1="84.2494" x2="32.2185" y2="72.135" gradientUnits="userSpaceOnUse">
<stop stop-color="#777777"/>
<stop offset="1" stop-color="#3B4041"/>
</linearGradient>
<linearGradient id="paint6_linear" x1="30.594" y1="76.2111" x2="35.2315" y2="79.8199" gradientUnits="userSpaceOnUse">
<stop stop-color="#C3C3C3"/>
<stop offset="1" stop-color="#777777"/>
</linearGradient>
<linearGradient id="paint7_linear" x1="64.657" y1="72.4927" x2="78.6561" y2="83.3842" gradientUnits="userSpaceOnUse">
<stop stop-color="#777777"/>
<stop offset="1" stop-color="#3B4041"/>
</linearGradient>
<linearGradient id="paint8_linear" x1="72.5736" y1="84.2498" x2="71.0613" y2="72.1354" gradientUnits="userSpaceOnUse">
<stop stop-color="#777777"/>
<stop offset="1" stop-color="#3B4041"/>
</linearGradient>
<linearGradient id="paint9_linear" x1="69.437" y1="76.2113" x2="74.0746" y2="79.8201" gradientUnits="userSpaceOnUse">
<stop stop-color="#C3C3C3"/>
<stop offset="1" stop-color="#777777"/>
</linearGradient>
<linearGradient id="paint10_linear" x1="51.9283" y1="47.8851" x2="51.9283" y2="68.1267" gradientUnits="userSpaceOnUse">
<stop stop-color="#B058E0"/>
<stop offset="1" stop-color="#7149B7"/>
</linearGradient>
<linearGradient id="paint11_linear" x1="68.2847" y1="46.6671" x2="75.1842" y2="65.813" gradientUnits="userSpaceOnUse">
<stop stop-color="#7149B7"/>
<stop offset="1" stop-color="#563494"/>
</linearGradient>
<linearGradient id="paint12_linear" x1="34.5913" y1="46.6671" x2="41.4908" y2="65.813" gradientUnits="userSpaceOnUse">
<stop stop-color="#7149B7"/>
<stop offset="1" stop-color="#563494"/>
</linearGradient>
<linearGradient id="paint13_linear" x1="57.4259" y1="47.1947" x2="62.6052" y2="66.522" gradientUnits="userSpaceOnUse">
<stop stop-color="#7149B7"/>
<stop offset="1" stop-color="#563494"/>
</linearGradient>
<linearGradient id="paint14_linear" x1="45.9339" y1="47.1948" x2="51.1133" y2="66.5222" gradientUnits="userSpaceOnUse">
<stop stop-color="#7149B7"/>
<stop offset="1" stop-color="#563494"/>
</linearGradient>
<linearGradient id="paint15_linear" x1="49.7395" y1="59.3049" x2="49.7395" y2="11.8802" gradientUnits="userSpaceOnUse">
<stop stop-color="#563494" stop-opacity="0"/>
<stop offset="1" stop-color="#563494"/>
</linearGradient>
<linearGradient id="paint16_linear" x1="55.7718" y1="29.0526" x2="55.7718" y2="35.1866" gradientUnits="userSpaceOnUse">
<stop stop-color="#D118A3"/>
<stop offset="1" stop-color="#B6087E"/>
</linearGradient>
</defs>
</svg>
