<svg width="90" height="90" viewBox="0 0 90 90" fill="none" xmlns="http://www.w3.org/2000/svg">
<g clip-path="url(#clip0)">
<path d="M71.3491 42.526L67.9927 29.2201C65.9977 21.3114 62.5036 13.8589 57.7 7.26679L53.1773 1.05979C52.1017 -0.416383 49.8744 -0.336618 48.9072 1.21262C46.9394 4.36438 47.0498 8.38791 49.1873 11.4269L51.6552 14.9359C51.6531 14.9341 51.6511 14.9323 51.649 14.9307C51.2904 14.6348 50.923 14.3392 50.5554 14.0523L44.496 9.33732C43.0528 8.20791 40.9374 8.89809 40.4354 10.655C40.1933 11.4975 40.0768 12.3581 40.0768 13.2098C40.0768 15.9617 41.3048 18.6149 43.5188 20.3987L49.0584 24.8717C50.0973 25.709 51.0801 26.6097 52.0023 27.5669L46.6448 25.4754C42.7627 23.9599 38.4903 23.7599 34.4835 24.9064L23.0154 28.8733C21.5389 29.2958 20.8542 30.995 21.6254 32.3233C23.8676 36.185 28.5278 37.9222 32.7508 36.4706L38.0595 34.0748C40.4221 33.2627 43.03 33.6184 45.0887 35.0337L50.8666 39.0061C52.6434 40.2276 53.5745 42.3507 53.2696 44.4851C53.0184 46.2426 51.9594 47.7813 50.4076 48.6435L42.1431 53.2349C38.9338 55.018 34.935 54.4852 32.3043 51.9243C30.7404 50.402 29.8378 48.326 29.791 46.1441L29.857 45.6444C30.6435 39.6878 25.9032 34.4461 19.8979 34.6317C18.2424 34.6829 16.9605 36.0987 17.0733 37.7512L17.8879 49.6792C18.0467 52.0056 18.9061 54.2293 20.353 56.0581L29.9317 68.164C31.6387 70.3213 33.9624 71.9076 36.5934 72.7116C43.5466 74.8363 50.9472 75.0259 57.9998 73.2601L59.0793 72.9899C62.9142 72.0297 66.1381 69.4416 67.9044 65.905L70.6228 60.4624C73.5496 54.6029 73.5919 48.1088 71.3491 42.526Z" fill="url(#paint0_radial)"/>
<path d="M43.5182 20.3988L49.0578 24.8718C50.0967 25.7092 51.0795 26.6099 52.0017 27.567L58.6543 30.1642L58.3342 28.7139C57.4252 24.596 55.7079 20.6993 53.2818 17.2499L51.6546 14.9362C51.6525 14.9344 51.6505 14.9326 51.6484 14.931C51.2898 14.6351 50.9224 14.3395 50.5548 14.0526L44.4953 9.33763C43.0522 8.20822 40.9368 8.89839 40.4348 10.6553C40.1926 11.4978 40.0762 12.3585 40.0762 13.2101C40.076 15.9618 41.3041 18.615 43.5182 20.3988Z" fill="url(#paint1_linear)"/>
<path d="M53.2821 17.2499C55.7082 20.6994 57.4254 24.596 58.3344 28.714L58.6545 30.1642L59.0036 30.3004C64.8919 32.5992 69.1844 37.1382 71.3488 42.526L67.9923 29.2201C65.9973 21.3114 62.5032 13.8589 57.6997 7.2668L53.1769 1.05979C52.1013 -0.416383 49.8741 -0.336619 48.9068 1.21262C46.939 4.36438 47.0495 8.38791 49.1869 11.4269L53.2821 17.2499Z" fill="url(#paint2_linear)"/>
<path d="M72.1575 84.7592V75.7569C72.1575 72.8625 69.8111 70.5161 66.9166 70.5161H28.6998C25.8053 70.5161 23.459 72.8625 23.459 75.7569V84.7592C23.459 87.6537 25.8053 90.0001 28.6998 90.0001H66.9168C69.8111 90.0001 72.1575 87.6537 72.1575 84.7592Z" fill="url(#paint3_linear)"/>
<path d="M66.9176 70.5161H32.2129L32.5582 70.6915L51.8666 89.9999H66.9176C69.8121 89.9999 72.1584 87.6535 72.1584 84.7591V75.7569C72.1582 72.8625 69.8119 70.5161 66.9176 70.5161Z" fill="url(#paint4_linear)"/>
</g>
<defs>
<radialGradient id="paint0_radial" cx="0" cy="0" r="1" gradientUnits="userSpaceOnUse" gradientTransform="translate(45.0647 31.2777) scale(36.7804)">
<stop stop-color="#FCCECE"/>
<stop offset="0.5379" stop-color="#FCCCCD"/>
<stop offset="0.7317" stop-color="#FCC5CB"/>
<stop offset="0.8694" stop-color="#FBBAC8"/>
<stop offset="0.9803" stop-color="#FBA9C3"/>
<stop offset="1" stop-color="#FBA5C2"/>
</radialGradient>
<linearGradient id="paint1_linear" x1="52.0973" y1="16.4672" x2="46.9197" y2="24.2339" gradientUnits="userSpaceOnUse">
<stop stop-color="#FCCECE"/>
<stop offset="1" stop-color="#FBA5C2"/>
</linearGradient>
<linearGradient id="paint2_linear" x1="62.5355" y1="20.4525" x2="50.8884" y2="26.276" gradientUnits="userSpaceOnUse">
<stop stop-color="#FCCECE"/>
<stop offset="1" stop-color="#FBA5C2"/>
</linearGradient>
<linearGradient id="paint3_linear" x1="29.361" y1="69.9837" x2="67.3809" y2="91.1593" gradientUnits="userSpaceOnUse">
<stop stop-color="#3FA9F5"/>
<stop offset="1" stop-color="#666AD6"/>
</linearGradient>
<linearGradient id="paint4_linear" x1="73.7193" y1="88.1212" x2="11.9546" y2="52.4741" gradientUnits="userSpaceOnUse">
<stop stop-color="#3B8EAC" stop-opacity="0"/>
<stop offset="1" stop-color="#343168"/>
</linearGradient>
<clipPath id="clip0">
<rect width="90" height="90" fill="white"/>
</clipPath>
</defs>
</svg>
