<svg width="201" height="70" viewBox="0 0 201 70" fill="none" xmlns="http://www.w3.org/2000/svg"><path fill-rule="evenodd" clip-rule="evenodd" d="M77.2762 30.0847C77.3194 30.0418 77.3194 30.0418 77.3625 29.9989C78.0094 29.4409 78.6564 28.8829 79.2602 28.282C79.8208 27.767 80.3384 27.1661 80.8128 26.5223C80.9853 26.2647 81.1578 25.9643 81.2872 25.6638C81.4597 25.2346 81.6322 24.8054 81.8048 24.3762C81.9342 23.9899 82.0635 23.6465 82.1498 23.2603C82.1929 23.0456 82.2361 22.831 82.2792 22.6164V22.5306L82.3223 22.3589C82.3654 22.1872 82.3654 21.9726 82.3654 21.758V20.7279C82.3654 20.2129 82.3654 19.7407 82.4086 19.2686C82.4517 18.7106 82.538 18.1956 82.6673 17.6376C82.7967 17.0796 83.0124 16.5217 83.2711 16.0066C83.5731 15.3628 84.0475 14.8048 84.6081 14.3756C85.6864 13.4743 86.9802 13.045 88.4035 13.045C89.1367 13.045 89.8267 13.1738 90.5168 13.3884C91.2069 13.603 91.8538 13.9464 92.4576 14.3327H92.5007C93.4927 15.0623 94.3553 15.9637 95.0453 16.9938C95.6491 17.938 96.2098 18.9681 96.6411 20.0412C97.0293 21.0284 97.3743 22.0585 97.6331 23.0886C97.8056 23.7753 97.9781 24.505 98.0644 25.2346C98.5388 26.3077 98.9701 27.4236 99.4014 28.4966C99.6601 29.1834 99.9189 29.8701 100.135 30.5568C100.135 30.5139 100.135 30.471 100.178 30.471C100.35 29.6984 100.523 28.9258 100.652 28.1533C100.738 27.4665 100.825 26.7369 100.781 26.0072C100.781 25.3205 100.652 24.6766 100.48 24.0328C100.35 23.5607 100.135 23.0886 99.9189 22.6594C99.6601 22.0585 99.4014 21.4576 99.1857 20.8567C98.9269 20.127 98.7976 19.3974 98.7544 18.6248C98.625 16.4358 99.7033 14.719 101.73 13.8176C102.809 13.3455 103.973 13.0021 105.181 13.0021C107.121 13.0021 108.717 13.8176 109.968 15.3199C110.529 16.0066 110.917 16.7363 111.219 17.5518C111.521 18.3673 111.693 19.1828 111.822 19.9983C111.952 20.7279 111.995 21.4146 111.995 22.1443C112.599 22.2302 113.203 22.316 113.763 22.4448C114.798 22.6594 115.79 22.9598 116.739 23.3032H116.782H116.825C118.766 24.1187 120.491 25.2775 121.915 26.7798C122.001 26.0072 122.13 25.2775 122.26 24.505C122.475 23.1744 122.734 21.8868 122.95 20.5562C123.209 19.1828 123.554 17.8093 123.899 16.4787C124.287 15.1482 124.718 13.8605 125.236 12.5729C125.753 11.3282 126.357 10.1264 127.09 8.96754C127.176 8.83878 127.22 8.71002 127.263 8.62418C127.349 8.40957 127.478 8.15204 127.608 7.98036C127.78 7.63699 127.953 7.29362 128.125 6.95025C128.384 6.47812 128.729 6.04891 129.117 5.66262C129.548 5.23341 130.066 4.89004 130.627 4.63252C131.317 4.33207 132.093 4.20331 132.869 4.20331H133.128H133.258C134.034 4.33207 134.767 4.41791 135.543 4.50375C136.277 4.5896 136.967 4.63252 137.7 4.63252C137.915 4.63252 138.174 4.63252 138.39 4.63252C138.606 4.63252 138.821 4.58959 139.037 4.58959C139.209 4.58959 139.339 4.54667 139.511 4.50375C139.727 4.41791 139.943 4.37499 140.158 4.28915C140.633 4.11746 141.107 3.9887 141.581 3.85994C142.142 3.73117 142.703 3.64533 143.263 3.64533C143.997 3.64533 144.687 3.7741 145.334 4.07454H145.42L145.765 4.24623C146.973 4.89004 147.878 5.87723 148.439 7.16486C149.043 8.45249 149.172 9.91181 149 11.3282C148.784 13.6459 147.576 15.4486 145.506 16.5646C143.824 17.4659 141.883 17.7234 139.986 17.7234C139.037 17.7234 138.088 17.6376 137.139 17.5088C136.578 17.423 136.061 17.3371 135.5 17.1655L135.414 17.3801C135.241 17.8093 135.069 18.2385 134.94 18.6677C134.81 19.054 134.681 19.4832 134.551 19.9124L134.25 21.0284H134.163C133.948 21.758 133.775 22.5306 133.646 23.3032C133.516 24.2045 133.43 25.1488 133.516 26.0501C133.559 26.8227 133.732 27.5953 133.991 28.3679C134.293 29.2692 134.595 30.1276 134.94 31.029C135.457 32.4024 135.932 33.7759 136.32 35.1923C136.794 36.9091 136.794 38.626 136.406 40.3428C135.975 42.3601 134.767 43.4761 133.516 45.0212C133.387 45.1929 133.214 45.3646 133.171 45.5792C132.826 46.4376 133.559 48.7124 133.818 49.5709C134.25 50.9014 134.638 52.3607 134.853 53.7342C135.026 55.0648 135.026 56.6099 133.948 57.5971C133.214 58.2838 132.222 58.4555 131.23 58.3268C130.109 58.1551 129.074 57.6829 128.47 56.6958C127.78 55.5369 127.953 54.1205 128.211 52.8758C128.47 51.7169 128.772 50.5151 128.858 49.3563C128.902 49.0129 128.902 48.6695 128.858 48.3262C128.772 47.339 128.729 46.3947 128.686 45.4075C128.686 45.2358 128.686 44.9783 128.643 44.7637C128.557 44.7208 128.427 44.6779 128.341 44.6349C127.78 44.3774 127.263 44.077 126.788 43.7336C126.184 43.3473 125.581 42.8323 125.106 42.3172C124.589 41.8022 124.157 41.2013 123.769 40.5574C123.338 39.8278 122.993 39.0552 122.691 38.2826C122.432 38.626 122.173 38.9694 121.872 39.2698C121.052 40.1282 120.146 40.9008 119.154 41.5446C117.386 42.7035 117.688 46.9098 117.904 48.7124C118.076 50.0859 118.378 51.3735 118.68 52.747C118.896 53.6484 119.111 54.5926 118.853 55.5369C118.766 55.8803 118.637 56.1807 118.464 56.4812C117.645 57.8546 115.833 58.2409 114.41 57.64C113.332 57.1679 112.728 56.2665 112.556 55.2364C111.952 55.3652 111.348 55.3223 110.787 55.1077C109.968 54.7643 109.494 53.9488 109.321 53.0904C109.105 52.1461 109.235 51.116 109.58 50.2147C110.011 48.97 110.097 47.6823 109.882 46.4376C109.795 45.8367 109.45 44.3774 108.631 44.3774C107.725 44.3774 106.82 44.2916 105.957 44.077C105.828 44.034 105.655 43.9911 105.526 43.9911C105.526 44.1628 105.526 44.3345 105.483 44.4203C105.439 45.4504 105.698 45.5792 106 46.4805C106.129 46.8668 106.216 47.296 106.216 47.7253C106.216 47.9828 106.173 48.2832 106.129 48.5408C105.655 50.6868 103.628 51.674 101.773 50.2576C101.428 50.0001 101.17 49.6567 100.997 49.3133C100.393 48.1115 100.695 46.7381 100.954 45.4934C101.04 45.0642 101.213 44.5062 101.213 44.034C101.213 43.4761 101.04 42.9181 100.781 42.446C100.436 42.7893 100.091 43.1327 99.6601 43.3902C99.2288 43.6907 97.9781 44.4633 97.7625 44.9783C97.5037 45.665 98.3231 48.1545 98.5388 48.8412C99.1857 50.9873 100.35 55.1935 98.1075 56.8245C97.7193 57.082 97.288 57.2537 96.8568 57.2967C95.8217 57.4254 94.8297 57.2967 94.0534 56.5241C93.1045 55.5798 93.0614 54.2063 93.1477 52.9616C93.2339 51.7598 93.4496 50.558 93.5358 49.3563C93.579 48.7554 93.6221 48.1545 93.579 47.5536C93.4064 45.6221 93.0614 44.5491 91.9832 43.0039C91.2931 41.9738 90.6893 41.1154 90.258 39.9565C89.6111 38.3255 89.3523 36.4799 89.2661 34.7631C89.1798 35.0206 89.0504 35.3211 88.9642 35.6215C88.8779 35.922 88.7916 36.2224 88.7054 36.5229C88.3604 37.6817 87.9291 38.7548 87.4115 39.8278C86.7215 41.2013 85.6001 42.2743 84.3494 43.1327L84.2631 43.2185L83.6593 43.3044C83.4437 43.4332 83.228 43.519 83.0124 43.6048C82.4948 43.7765 81.9773 43.9482 81.4597 44.077C81.4597 44.1199 81.4166 44.1199 81.4166 44.1628C81.2872 44.4203 81.2441 45.4934 81.2441 45.7509C81.201 46.781 81.4597 46.9098 81.7616 47.8111C81.891 48.1974 81.9773 48.6266 81.9773 49.0558C81.9773 49.3133 81.9342 49.6138 81.891 49.8713C81.4166 52.0174 79.3895 53.0045 77.535 51.5882C77.19 51.3306 76.9312 50.9873 76.7587 50.6439C76.1549 49.4421 76.4568 48.0686 76.7156 46.8239C76.8018 46.3947 76.9743 45.8367 76.9743 45.3646C76.9743 44.7637 76.7156 44.034 76.3705 43.4761C76.198 43.3902 76.0255 43.2615 75.853 43.1756C74.7316 42.403 73.869 41.3729 73.3946 40.0853C73.3084 39.8278 73.179 39.5273 73.1359 39.2269C72.187 40.3858 71.0657 41.4588 69.8581 42.3172C69.2111 42.7464 68.5642 43.0898 67.8741 43.4761C67.7016 43.5619 67.2703 43.7765 67.1841 43.9053C66.8822 44.2487 67.2272 46.6522 67.2703 47.0385C67.3997 48.1115 67.6154 49.0987 67.831 50.1288C68.0035 50.9014 68.176 51.6311 67.9604 52.4466C67.8741 52.747 67.7879 53.0045 67.6154 53.2621C66.9253 54.4639 65.2864 54.8502 64.0357 54.2922C63.1731 53.9059 62.6555 53.2192 62.4399 52.4466C62.0517 52.5324 61.6204 52.5324 61.2323 52.3607C60.4991 52.0603 60.0678 51.3306 59.8953 50.558C59.7228 49.7425 59.8521 48.927 60.1109 48.1545C60.456 47.2531 60.456 46.3518 60.3266 45.4075C60.1972 44.6779 59.9815 44.077 59.4209 43.6048C59.119 43.3473 58.7308 43.1327 58.3858 42.9181C57.8251 42.6177 57.3075 42.3172 56.79 42.0168C55.1511 40.9437 53.8141 39.5703 52.779 37.8963C52.2183 36.995 51.7439 36.0507 51.3557 35.0206C50.9676 34.0334 50.7088 33.0033 50.4932 31.9732C50.3207 31.2006 50.1913 30.4281 50.105 29.6126C49.9325 30.0418 49.7169 30.5139 49.5443 30.9431C48.6818 33.0463 47.9917 35.1494 47.3879 37.3384C46.7841 39.5703 46.0509 41.8022 45.2314 43.9911C44.6708 45.4075 44.067 46.8239 43.42 48.2403C42.6868 49.8284 41.7811 51.6311 40.7029 53.0475C40.7029 53.305 40.7892 53.82 40.8323 53.9917C41.0479 55.1077 41.3067 56.3524 40.4873 57.2967C40.1854 57.64 39.7972 57.8975 39.3228 58.0263C38.8915 58.1551 38.4602 58.1551 38.072 58.0263C38.072 58.8847 38.072 59.7432 38.1152 60.5587C38.1583 61.5888 38.2014 62.5759 38.2877 63.606C38.3308 64.2928 38.4171 65.0224 38.5465 65.7092C38.8915 67.2543 38.6327 69.057 36.8644 69.5292C36.1744 69.7008 35.3981 69.615 34.7511 69.3146C33.0691 68.4561 33.5435 66.353 33.7592 64.8508C33.8454 64.2499 33.8454 63.4344 33.8885 62.8335C33.9317 61.6317 33.9317 60.4299 33.9748 59.2281C33.9748 58.2409 34.0179 57.2537 34.0179 56.2665C32.9828 56.6099 31.9046 56.8245 30.7833 56.8245C30.0501 56.8245 29.36 56.7387 28.6268 56.567H28.5837C26.341 55.9661 25.0471 54.378 24.6158 52.1461C24.4864 51.3735 24.4433 50.601 24.5296 49.8284C24.6158 49.0558 24.7883 48.3262 25.0471 47.5965C25.3059 46.8668 25.6509 46.1801 26.0822 45.5363C26.5135 44.9354 26.9879 44.4203 27.5486 43.9482C28.2387 43.4332 29.015 43.0469 29.8344 42.7893C30.5245 42.5747 31.1714 42.3601 31.8615 42.1884C32.3359 42.0597 32.7672 41.888 33.2416 41.7592C32.8534 41.3729 32.5515 40.9867 32.2496 40.5574C31.5596 39.5703 30.8695 38.5402 30.2657 37.4671L30.1795 37.3384L30.1363 37.2954C30.0932 37.2096 30.0501 37.1238 30.0069 37.0379C29.9207 36.9092 29.8344 36.7375 29.7482 36.6087C29.1444 35.5786 28.5837 34.5056 28.1524 33.4325C27.6348 35.1494 26.8154 36.7375 25.7372 38.1968C24.1845 40.2999 21.8556 41.6734 19.4835 42.6177C18.4484 43.0039 17.3702 43.3473 16.2919 43.6048C16.1194 43.8624 15.9038 44.1199 15.6881 44.4633C15.6019 44.592 15.5156 44.7208 15.4725 44.8495C15.3431 45.1071 15.3 46.1801 15.3 46.4376C15.2569 47.4677 15.5156 47.5965 15.8175 48.4978C15.9469 48.8841 16.0332 49.3133 16.0332 49.7425C16.0332 50.0001 15.99 50.3005 15.9469 50.558C15.6019 52.1032 14.4374 53.0904 13.1435 52.9187C13.2729 53.6484 13.2729 54.4209 13.1004 55.1506C12.8848 56.0949 12.3672 57.1679 11.3752 57.5542C10.3833 57.9405 9.34819 57.6829 8.57187 57.0391C8.57187 58.756 7.92494 60.387 6.15665 61.1595C4.47462 61.8892 2.14566 61.4171 1.19683 59.7861C0.981183 59.3998 0.808667 59.0135 0.722409 58.5843C0.420507 57.3825 0.722409 56.0949 0.981183 54.8931C1.41247 52.9616 1.80063 51.0731 2.05941 49.0987C2.40444 46.6522 2.18879 44.4203 1.58499 42.0168C1.11057 39.9565 0.420507 37.9393 0.204862 35.8361C0.118605 34.9777 0.118605 34.0764 0.247991 33.2179C0.377378 32.3595 0.506765 31.5011 0.67928 30.5998C0.851796 29.7843 0.981183 28.9688 1.1537 28.1962V28.1533V28.1103C1.36934 27.209 1.54186 26.2647 1.7575 25.3205C1.93002 24.4191 2.05941 23.5607 2.18879 22.6594C2.27505 21.8009 2.31818 20.9425 2.31818 20.0841C2.31818 19.2257 2.23192 18.3673 2.05941 17.5518C1.97315 17.1655 1.88689 16.8221 1.7575 16.4358C1.58499 15.9637 1.41247 15.5345 1.23996 15.0623C0.851796 14.0751 0.549894 13.088 0.247991 12.0579C-0.09704 10.8131 -0.0539111 9.56844 0.204862 8.32373C0.549894 6.69273 1.58499 5.49094 2.92198 4.58959C4.04334 3.85994 5.25095 3.30196 6.58794 3.13028H6.6742H7.10549H7.19175C8.39936 3.25904 9.56384 3.38781 10.7714 3.47365C11.7634 3.55949 12.7554 3.60241 13.7473 3.60241H14.8256C15.1275 3.60241 15.4294 3.60241 15.7313 3.55949C16.0763 3.51657 16.4213 3.47365 16.7664 3.43073C17.1545 3.34488 17.5858 3.25904 17.974 3.1732C18.6209 3.00152 19.2678 2.87275 19.9148 2.74399C20.648 2.57231 21.3812 2.52938 22.1143 2.52938C23.0632 2.52938 24.012 2.70107 24.8746 3.13028H24.9177L25.2628 3.34488C26.4272 4.03162 27.5055 4.93296 28.0661 6.17767C28.6699 7.33654 28.7562 8.53833 28.4112 9.78304C28.1955 10.5127 27.8074 11.2424 27.4192 11.8862C26.8154 12.8734 25.8234 13.7318 24.9177 14.4614C24.3571 14.9336 23.7532 15.3199 23.1063 15.6632C22.4163 16.0495 21.5968 16.3929 20.7774 16.4787C20.5186 16.5216 20.2598 16.5216 20.001 16.5216H19.4404C18.4915 16.5216 17.4996 16.4787 16.5507 16.307C18.1034 16.6933 19.6129 17.2942 21.0361 18.0668C22.4163 18.7965 23.7101 19.7407 24.7883 20.8567C25.2196 21.3288 25.6509 21.8009 26.0391 22.2731C26.0391 21.9726 26.0391 21.6722 26.0391 21.3717C26.1253 19.7407 26.4704 18.0239 27.5055 16.6933C28.6268 15.3628 30.1795 14.8477 31.9046 14.8477C34.4061 14.8477 36.2606 16.0924 37.4682 18.2385C37.9427 19.0969 38.2877 19.9983 38.5033 20.9854C38.6758 21.7151 38.8052 22.4877 38.9346 23.2173C38.9778 23.5178 39.0209 23.8182 39.064 24.0758C39.5816 22.2302 40.3148 20.2987 41.3498 18.6677C42.4712 16.9079 44.0238 15.4486 46.1371 15.0623C46.6547 14.9765 47.1722 14.8906 47.6898 14.8906C48.7249 14.8906 49.7169 15.0623 50.5794 15.6632C50.9676 14.3756 51.4851 13.1309 52.0027 11.8862V11.8433V11.8003C52.5202 10.7273 53.1672 9.6972 53.9435 8.75294C54.6767 7.8516 55.5824 7.07902 56.5312 6.39228C57.4801 5.79138 58.472 5.27633 59.5071 4.89004C60.456 4.54667 61.4048 4.16038 62.3968 3.81702L62.483 3.77409H62.5693C62.6987 3.73117 62.8712 3.73117 63.0006 3.68825L63.0437 3.64533H63.0868C63.6906 3.47365 64.2944 3.25904 64.8982 3.04444C65.1139 2.95859 65.502 2.78691 65.6746 2.61523C66.2784 1.88557 67.0547 1.32759 67.9604 0.941305C68.823 0.555016 69.7718 0.383331 70.7206 0.383331C71.5832 0.383331 72.4458 0.555016 73.2221 0.941305C74.3435 1.49928 75.2492 2.27186 75.9392 3.34488C76.6293 4.41791 77.0175 5.66262 77.0606 6.95025C77.1468 8.45249 76.8449 9.91181 76.198 11.2424C75.5942 12.5729 74.6885 13.6459 73.4378 14.4614C72.7477 14.9336 71.9714 15.234 71.1519 15.4486C73.1359 16.7792 74.7316 18.496 75.853 20.5991C76.8449 22.4448 77.3194 24.505 77.4056 26.6081C77.5781 27.767 77.4919 28.9258 77.2762 30.0847ZM7.14862 49.5709C7.19175 48.97 7.19175 48.3691 7.14862 47.7682C7.10549 47.9828 7.10549 48.1974 7.10549 48.4549C7.10549 48.8412 7.10549 49.2275 7.14862 49.5709ZM172.462 17.3371C172.419 17.2942 172.419 17.2513 172.375 17.1655C171.987 16.5646 171.427 16.0924 170.866 15.7061C170.003 15.1053 168.968 14.9336 167.933 14.9336C167.416 14.9336 166.898 15.0194 166.381 15.1053C164.267 15.4915 162.715 16.9509 161.593 18.7106C160.558 20.2987 159.825 22.2731 159.307 24.1187C159.264 23.8182 159.221 23.5178 159.178 23.2603C159.049 22.5306 158.919 21.758 158.747 21.0284C158.531 20.0841 158.186 19.1398 157.712 18.2814C156.504 16.1354 154.649 14.8906 152.148 14.8906C150.423 14.8906 148.87 15.4057 147.749 16.7363C146.714 18.0668 146.326 19.7836 146.282 21.4146C146.196 23.7324 146.584 26.3076 147.016 28.5825C147.576 31.4153 148.482 34.2051 149.992 36.6945C150.078 36.8233 150.164 36.995 150.25 37.1238C150.293 37.2096 150.337 37.2954 150.38 37.3813L150.423 37.4242L150.466 37.4671C151.07 38.4972 151.76 39.5273 152.45 40.5574C152.752 40.9867 153.097 41.3729 153.442 41.7592C152.967 41.9309 152.536 42.0597 152.062 42.1884C151.372 42.3601 150.682 42.5747 150.035 42.7893C149.215 43.0469 148.439 43.4332 147.749 43.9482C147.188 44.3774 146.714 44.9354 146.282 45.5363C145.851 46.1801 145.506 46.8668 145.247 47.5965C144.989 48.3262 144.816 49.0558 144.73 49.8284C144.644 50.601 144.687 51.3735 144.816 52.1461C144.989 53.0904 145.334 53.9917 145.981 54.7643C146.369 55.2364 146.8 55.5369 147.274 55.9232C147.533 56.1378 147.663 56.3095 147.749 56.6528C148.008 57.5542 147.835 59.0135 147.706 59.9148C147.533 61.2025 147.274 62.4472 146.973 63.7348C146.757 64.6362 146.584 65.4946 146.8 66.3959C146.886 66.7393 147.016 67.0397 147.188 67.3402C147.965 68.6707 149.776 69.057 151.156 68.4561C152.234 67.984 152.795 67.0827 152.967 66.0526C153.485 66.2242 154.046 66.2672 154.606 66.0526C155.426 65.7521 155.857 64.8937 156.03 64.1211C156.245 63.2198 156.116 62.2326 155.771 61.3742C155.34 60.2153 155.296 59.0135 155.512 57.8117C155.685 56.6958 156.418 55.7944 157.194 55.0218C157.97 54.2922 158.833 53.6484 159.652 52.8758C160.343 52.189 161.033 51.5023 161.68 50.7297V50.6868C163.232 48.6695 164.483 46.4376 165.432 44.034C166.294 41.8451 166.984 39.6561 167.588 37.3813C168.149 35.1923 168.882 33.0892 169.745 30.986C170.521 29.0546 171.34 27.0802 172.203 25.1488C172.289 26.136 172.332 27.1231 172.375 28.1103C172.419 29.0975 172.246 30.0847 171.944 31.0719C171.729 31.7586 171.47 32.4454 171.168 33.1321C170.78 34.1193 170.435 35.1065 170.133 36.0937C169.745 37.3384 169.745 38.6689 170.047 39.9136C170.348 41.2442 170.995 42.3601 172.03 43.2615C172.979 44.077 173.238 44.077 173.238 45.3646C173.238 45.8367 173.109 46.3947 172.979 46.8239C172.677 48.0686 172.375 49.4421 173.022 50.6439C173.195 51.0302 173.497 51.3306 173.799 51.5882C175.653 53.0475 177.68 52.0174 178.155 49.8713C178.198 49.6138 178.241 49.3563 178.241 49.0558C178.241 48.6266 178.198 48.1974 178.025 47.8111C177.68 46.9098 177.465 46.8239 177.508 45.7509C177.508 45.4075 177.594 44.9783 177.68 44.6349C177.81 43.9911 177.939 43.3473 178.112 42.7035C178.543 41.0296 178.974 39.3127 179.492 37.6388C179.578 37.3384 179.664 37.0379 179.751 36.7375C179.794 37.1667 179.837 37.5959 179.966 38.0251C180.397 39.699 181.346 40.9008 182.77 41.888C183.632 42.446 184.581 42.7893 185.616 42.7893C186.565 42.7893 187.427 42.5318 188.204 41.9738C188.808 41.5446 189.282 41.0296 189.627 40.3858C190.317 41.9309 191.395 43.1756 193.12 43.8624C193.897 44.1628 194.716 44.3774 195.579 44.3774C197.261 44.3774 198.641 43.6048 199.633 42.2743L199.676 42.2314L199.719 42.1884C200.107 41.5875 200.452 40.9008 200.625 40.1712C200.754 39.6561 200.884 39.141 200.97 38.626V38.5831V38.5402C201.056 37.2954 200.97 36.0507 200.539 34.8489C199.935 33.1321 199.374 31.3294 199.115 29.5697C198.9 28.0245 198.9 26.4364 199.159 24.8913V24.8054V24.7196C199.159 24.7196 199.159 24.7196 199.159 24.6766C199.159 24.5908 199.202 24.5479 199.202 24.462V24.4191V24.3333C199.288 23.6895 199.374 23.0457 199.46 22.4448C199.547 21.7151 199.547 20.9854 199.504 20.2558C199.46 19.4832 199.288 18.7106 199.029 17.981C198.77 17.1655 198.296 16.4358 197.778 15.7491C197.131 14.9765 196.312 14.4185 195.406 14.0322C194.457 13.603 193.422 13.4313 192.387 13.4313C191.18 13.4313 190.015 13.6889 188.937 14.2898C187.729 14.9336 186.824 15.9637 186.392 17.2942L186.306 17.5088V17.5947C186.263 17.7234 186.22 17.8951 186.177 18.0239C186.09 18.2814 186.004 18.5819 185.918 18.8394C185.789 19.3115 185.659 19.7836 185.53 20.2987C185.487 20.5133 185.4 20.7279 185.314 20.8996C185.314 20.8138 185.271 20.7708 185.271 20.7279C185.142 20.2987 185.055 19.8695 184.969 19.4403V19.3974V19.3544C184.84 18.7965 184.71 18.2385 184.581 17.6805C184.408 17.0367 184.193 16.4358 183.891 15.8349C183.028 14.2039 181.562 13.3455 179.794 13.3026C179.621 13.2596 179.405 13.2596 179.233 13.2596C177.249 13.2596 175.308 13.7747 173.885 15.2769C173.152 15.9637 172.764 16.6075 172.462 17.3371ZM16.5507 30.471C16.5938 29.6984 15.9469 29.1834 15.3862 28.7542C15.2137 28.6254 14.9981 28.4966 14.8256 28.4108C14.8256 28.6683 14.8256 28.9258 14.8687 29.2263C14.8687 29.913 14.8687 30.5998 14.8256 31.2865C15.1275 31.2007 15.4294 31.1148 15.7313 30.986C15.99 30.8144 16.2488 30.6427 16.5507 30.471ZM66.494 29.398C66.6234 28.7542 66.6234 28.1103 66.6234 27.4665C66.6234 26.6939 66.5371 25.9643 66.3646 25.2346C66.2352 24.6337 66.0196 24.0758 65.6314 23.5607C65.4589 23.3032 65.2433 23.1315 64.9414 23.0456L64.812 23.0027C64.6826 22.9598 64.5532 22.9598 64.4238 22.9598C63.82 22.9598 63.3887 23.389 63.0437 23.8612V23.9041V23.947C62.7849 24.2904 62.5693 24.7196 62.3968 25.1059C62.1811 25.6209 62.0086 26.1789 61.8792 26.7369C61.7498 27.3378 61.6636 27.9387 61.6204 28.5395C61.5773 29.1834 61.6204 29.8701 61.7498 30.5139C61.8361 31.1148 62.0517 31.6728 62.3105 32.1878C62.5261 32.5741 62.828 32.8746 63.2162 33.1321C63.3456 33.2179 63.7337 33.3896 63.9063 33.3896C64.165 33.3896 64.3376 33.2609 64.5101 33.1321C64.8982 32.7887 65.2433 32.4024 65.502 31.9732C65.8039 31.5011 66.0627 31.029 66.2352 30.5139C66.2784 30.1276 66.4077 29.7413 66.494 29.398ZM112.211 33.6472C112.297 33.6042 112.426 33.6042 112.513 33.5613H112.556H112.599C112.685 33.5184 112.858 33.4755 112.987 33.3896C112.944 33.3467 112.901 33.3038 112.901 33.2609C112.728 33.0892 112.469 32.9604 112.297 32.8316C112.297 32.8316 112.297 32.8316 112.254 32.8316C112.211 33.0892 112.211 33.3896 112.211 33.6472Z" fill="white"/><path fill-rule="evenodd" clip-rule="evenodd" d="M16.9585 31.2493C17.3463 30.9933 17.5618 30.6518 17.648 30.225C17.7772 29.0299 17.174 27.9628 15.8381 27.0665C15.3641 26.7251 14.847 26.469 14.3299 26.2129C13.8128 25.9995 13.2957 25.7861 12.8217 25.658C12.8648 26.7251 12.9079 27.7494 12.951 28.7738C12.9941 29.7982 12.9079 30.8652 12.7786 31.9323V32.1883C12.7786 32.231 12.7786 32.231 12.7356 32.2737C12.7356 32.3164 12.6925 32.3164 12.6925 32.3591V32.5298H12.7786C13.1234 32.5298 13.5974 32.4871 14.1576 32.3591C14.7178 32.2737 15.2779 32.0603 15.8812 31.8469C16.1829 31.7188 16.5276 31.5054 16.9585 31.2493ZM64.9622 33.7249C65.4362 33.2981 65.8671 32.8286 66.2549 32.231C66.5997 31.6762 66.9013 31.0786 67.1167 30.5238C67.3322 29.9689 67.4615 29.5421 67.5477 29.2433C67.6769 28.6031 67.72 27.8775 67.72 26.9811C67.72 26.1275 67.5908 25.2739 67.4184 24.4202C67.2029 23.6093 66.9013 22.8837 66.4704 22.2434C66.0395 21.6459 65.4793 21.2618 64.7467 21.091H64.6605C64.3589 21.0484 64.1434 21.0057 63.9711 21.0057C62.98 21.0057 62.1182 21.5179 61.3856 22.4995C61.0409 22.9264 60.7823 23.4385 60.5238 23.9934C60.2652 24.591 60.0929 25.1885 59.9205 25.8714C59.7481 26.469 59.662 27.1519 59.6189 27.9628C59.5758 28.7311 59.6189 29.4994 59.7481 30.2677C59.8774 31.0359 60.136 31.7188 60.4807 32.3591C60.8254 32.9993 61.3425 33.5115 61.9458 33.8529C62.506 34.1517 62.98 34.3224 63.3678 34.3224C63.928 34.3224 64.4882 34.109 64.9622 33.7249ZM110.208 32.1883C110.208 32.8713 110.165 33.5969 110.036 34.3651C109.993 34.4078 109.993 34.5359 109.993 34.6212C109.949 34.6639 109.949 34.792 109.949 34.8773C110.467 34.8346 110.941 34.7493 111.415 34.7066C111.889 34.6639 112.276 34.5359 112.578 34.4078C113.224 34.1517 113.612 33.9383 113.742 33.6822C113.871 33.4261 113.957 33.2554 113.957 33.17C113.957 33.0847 113.957 32.9566 114 32.8286C114 32.6579 113.957 32.4871 113.871 32.3164C113.785 32.103 113.612 31.9323 113.397 31.7188C113.181 31.5054 112.88 31.292 112.449 31.0359C112.061 30.8225 111.63 30.6518 111.242 30.4811C110.811 30.3103 110.423 30.225 110.079 30.1396C110.165 30.8225 110.208 31.5054 110.208 32.1883ZM174.112 44.8649C174.112 42.9442 173.552 42.6454 172.389 41.6638C171.656 41.0662 171.139 40.2126 170.924 39.1455C170.665 38.0785 170.708 37.0541 171.01 36.0724C171.311 35.0907 171.613 34.1517 172.001 33.2127C172.303 32.4871 172.561 31.7615 172.82 31.0359C173.164 29.8835 173.337 28.7311 173.337 27.6214C173.294 26.469 173.251 25.2739 173.121 23.9934C173.078 23.4812 173.035 22.969 172.992 22.4569C172.949 21.9447 172.949 21.4325 172.906 20.8776C172.82 18.7435 173.294 17.1216 174.371 16.0119C175.362 14.9875 176.741 14.4753 178.594 14.4753C178.766 14.4753 178.896 14.4753 178.939 14.518C180.318 14.518 181.309 15.1156 181.955 16.268C182.214 16.7375 182.386 17.207 182.515 17.7618C182.644 18.3167 182.774 18.8289 182.903 19.3838C182.989 19.8533 183.118 20.3228 183.205 20.7923C183.334 21.2618 183.463 21.6032 183.679 21.8593C183.937 22.2861 184.282 22.7129 184.799 23.1825C184.971 22.969 185.144 22.7556 185.316 22.5422C185.488 22.3288 185.661 22.0727 185.79 21.7313C186.049 21.3044 186.221 20.8776 186.35 20.3654C186.48 19.8533 186.609 19.3838 186.738 18.8716C186.781 18.6155 186.867 18.4021 186.954 18.1887C187.04 17.9753 187.083 17.7192 187.169 17.5057V17.4631C187.514 16.4814 188.117 15.7985 189.022 15.2863C189.798 14.8168 190.659 14.6034 191.694 14.6034C192.555 14.6034 193.374 14.7741 194.15 15.0729C194.882 15.3716 195.486 15.7985 195.96 16.3533C196.434 16.9082 196.735 17.4631 196.951 18.1033C197.166 18.7008 197.296 19.3411 197.339 19.9813C197.382 20.6215 197.382 21.2618 197.296 21.902C197.252 22.5422 197.166 23.1398 197.08 23.6946C197.037 23.8227 197.037 23.908 196.994 23.9934C196.994 24.0788 196.951 24.1641 196.951 24.2495C196.692 25.9568 196.692 27.6641 196.908 29.3287C197.123 30.9933 197.64 32.8713 198.373 34.92C198.718 35.859 198.847 36.8407 198.718 37.9504C198.674 38.3346 198.545 38.8041 198.416 39.3162C198.287 39.8284 198.028 40.3406 197.726 40.8528C196.994 41.8345 196.046 42.3467 194.882 42.3467C194.322 42.3467 193.676 42.2186 193.029 41.9198C191.349 41.2369 190.272 39.7431 189.798 37.4382C189.539 36.2858 189.453 35.2615 189.539 34.2798C189.625 33.2981 189.668 32.6152 189.755 32.1883C189.755 32.1457 189.755 32.1457 189.798 32.103L189.884 31.7615C189.927 31.6335 189.97 31.5054 190.013 31.3347C190.272 30.6945 190.401 30.1823 190.487 29.8408C190.53 29.4567 190.487 29.2006 190.358 28.9872C190.272 29.0299 190.142 29.1579 190.013 29.3287C189.841 29.4994 189.668 29.7555 189.41 30.0969C189.194 30.4384 189.022 30.7372 188.893 31.0359C188.763 31.3347 188.677 31.5054 188.634 31.5908V31.6335C188.462 32.0603 188.419 32.4871 188.419 32.9993C188.419 33.5115 188.419 33.981 188.462 34.4932C188.505 35.1761 188.548 35.859 188.505 36.5846C188.462 37.2675 188.289 37.9504 187.945 38.676C187.643 39.3589 187.212 39.8284 186.695 40.2126C186.178 40.554 185.618 40.7674 184.971 40.7674C184.282 40.7674 183.592 40.554 182.946 40.1272C178.723 37.3102 181.826 33.5542 179.671 29.286C178.551 32.6579 175.448 42.9442 175.362 45.1637C175.276 47.1697 176.138 47.4258 176.095 48.4502C176.052 49.4746 175.362 50.7977 174.069 49.816C172.82 48.877 174.112 46.5295 174.112 44.8649ZM153.903 42.3467C153.256 42.5601 152.567 42.7735 151.877 42.9869C151.188 43.1576 150.541 43.371 149.895 43.5844C149.249 43.7979 148.645 44.0966 148.042 44.5234C147.611 44.8649 147.223 45.249 146.879 45.7612C146.534 46.2734 146.232 46.8283 146.017 47.4258C145.801 48.0234 145.672 48.6636 145.586 49.3038C145.5 49.9441 145.543 50.5843 145.672 51.1818C146.448 55.2793 149.507 52.4196 148.559 59.3768C147.999 63.6023 147.137 64.6267 147.87 65.8218C148.559 67.0169 151.662 66.8034 150.8 63.4316C149.938 60.0597 149.809 59.2487 150.111 57.4561C150.455 55.6634 152.351 56.0903 151.92 60.0597C151.489 64.0718 152.998 64.1145 153.429 63.9438C153.816 63.773 154.333 62.706 153.773 61.1267C153.213 59.5475 153.213 58.0536 153.429 56.8159C153.644 55.6208 154.247 54.4683 155.583 53.2306C156.402 52.4623 157.221 51.8647 158.039 51.0965C158.729 50.4562 159.332 49.7733 159.935 49.0904C161.444 47.1697 162.607 45.0783 163.469 42.8588C164.331 40.6394 165.02 38.4626 165.58 36.4139C166.184 34.1944 166.916 32.0176 167.778 29.8835C168.64 27.7494 169.502 25.7007 170.407 23.6946C170.665 23.1825 170.837 22.6703 170.967 22.1581C171.096 21.6459 171.182 21.1337 171.225 20.6215C171.311 19.3838 171.096 18.3594 170.579 17.5911C170.32 17.2497 169.976 16.8655 169.459 16.5241C168.941 16.1826 168.252 16.0119 167.39 16.0119C167.002 16.0119 166.571 16.0546 166.097 16.1399C164.632 16.396 163.383 17.3777 162.262 19.085C161.4 20.3654 160.668 22.1154 160.065 24.3349C159.677 25.7007 159.375 27.0238 159.16 28.3897C158.944 29.7128 158.772 30.9079 158.6 31.9749C158.341 31.3774 158.169 30.6945 158.039 29.9262C157.91 29.1579 157.781 28.5177 157.695 27.8775C157.652 27.7067 157.652 27.5787 157.652 27.4933C157.652 27.408 157.652 27.2799 157.608 27.1092C157.565 26.7677 157.522 26.4263 157.479 26.1275C157.436 25.7861 157.393 25.4446 157.35 25.1031C157.307 24.7617 157.307 24.4202 157.264 24.0788C157.221 23.7373 157.178 23.3532 157.134 23.0544C157.048 22.4569 156.919 21.7313 156.704 20.9203C156.531 20.1093 156.23 19.2984 155.842 18.6155C154.851 16.8655 153.472 16.0119 151.619 16.0119C150.197 16.0119 149.119 16.4387 148.387 17.335C147.697 18.1887 147.31 19.4691 147.223 21.1337C147.137 22.7983 147.396 25.0605 147.913 27.9202C148.473 30.9079 149.421 33.4261 150.757 35.5602C150.8 35.6883 150.886 35.8163 150.972 35.9017C151.059 36.0297 151.102 36.1578 151.188 36.2431C151.791 37.2675 152.438 38.2492 153.084 39.1882C153.773 40.1272 154.592 40.8955 155.626 41.4503C155.152 41.7918 154.592 42.1333 153.903 42.3467ZM129.815 47.5112C129.297 41.3223 130.289 43.9686 127.1 41.8345C126.583 41.493 126.109 41.1089 125.678 40.6394C125.247 40.1699 124.859 39.7004 124.557 39.1882C123.394 37.1395 122.705 34.7066 122.618 31.8469C122.575 30.7372 122.575 29.5421 122.661 28.347C122.748 27.1092 122.92 25.8287 123.179 24.4629C123.394 23.1825 123.609 21.902 123.868 20.5789C124.127 19.2557 124.428 17.9326 124.816 16.6094C125.161 15.329 125.592 14.0485 126.109 12.8534C126.583 11.6583 127.186 10.5486 127.832 9.52421C127.919 9.35349 128.005 9.18276 128.091 9.01203C128.177 8.79862 128.306 8.62789 128.393 8.45717C128.565 8.11571 128.737 7.77425 128.91 7.4328C129.125 7.09134 129.341 6.74989 129.642 6.49379C129.944 6.19502 130.289 5.98161 130.719 5.7682C131.15 5.55479 131.667 5.46943 132.314 5.46943H132.443C133.219 5.59747 133.994 5.68284 134.77 5.7682C135.546 5.85356 136.321 5.89625 137.097 5.89625C137.356 5.89625 137.657 5.89625 137.916 5.85356C138.174 5.85356 138.433 5.81088 138.648 5.7682C138.907 5.72552 139.122 5.68284 139.381 5.59747C139.639 5.51211 139.855 5.42674 140.113 5.34138C140.544 5.17065 140.975 5.04261 141.406 4.95724C141.837 4.87188 142.268 4.78651 142.742 4.78651C143.345 4.78651 143.905 4.91456 144.466 5.21333H144.509C145.414 5.68284 146.103 6.40843 146.534 7.39011C146.965 8.3718 147.137 9.48153 146.965 10.762C146.793 12.5973 145.888 13.9631 144.25 14.8168C143.044 15.4997 141.449 15.7985 139.467 15.7985C138.605 15.7985 137.743 15.7131 136.882 15.5851C136.02 15.457 135.201 15.2436 134.512 15.0302L134.167 14.9448C134.081 15.1156 133.994 15.2863 133.951 15.4997L133.779 15.9692L133.607 16.4387C133.434 16.9082 133.262 17.335 133.089 17.7618C132.917 18.1887 132.788 18.6582 132.659 19.085H132.616C132.185 20.3654 131.883 21.5179 131.711 22.5849C131.538 23.652 131.495 24.6763 131.538 25.6153C131.581 26.5116 131.754 27.408 132.055 28.2616C132.357 29.1152 132.659 30.0543 133.046 30.9506C133.564 32.2737 133.994 33.5969 134.382 34.9627C134.77 36.3285 134.77 37.7797 134.468 39.4016C134.081 41.0662 132.96 42.1759 131.883 43.4137C130.849 44.6942 130.763 45.6759 131.883 49.3038C133.003 52.8891 133.865 56.5171 130.935 56.0903C127.014 55.5781 130.159 51.4379 129.815 47.5112ZM25.6629 24.6336C26.654 26.597 26.9988 28.6031 26.7402 30.6945C26.4817 32.7859 25.6198 34.8346 24.1547 36.798C22.9482 38.4199 21.0522 39.7004 18.5529 40.6821C17.3894 41.1516 16.1829 41.493 14.9332 41.7491H14.8901C14.847 42.1333 14.373 42.5601 14.0283 43.1576C13.6405 43.7979 13.5112 43.8405 13.425 45.8039C13.3388 47.81 14.2007 48.0661 14.1576 49.0904C14.1145 50.1575 13.425 51.4379 12.1323 50.4562C10.8395 49.4746 12.1323 47.127 12.1323 45.4198C12.1323 44.1393 11.4859 43.0723 11.1843 42.6454C10.7964 43.371 10.581 44.1393 10.4517 44.8649C10.1501 46.7429 10.107 48.9624 10.9688 51.3099C11.8306 53.6574 11.055 55.2793 10.4517 55.4927C9.84844 55.7061 7.5646 55.6208 8.21097 49.6453C8.85734 43.6698 5.97022 43.0296 5.49622 45.7185C4.97912 48.4075 5.19458 49.6453 6.48732 54.6818C7.78006 59.7182 3.16929 60.0597 2.1351 58.267C1.05782 56.4744 2.35055 54.9379 3.21238 48.6209C4.20348 41.4503 0.713086 37.609 1.40255 32.8286C1.53182 31.9749 1.66109 31.164 1.83346 30.3103C2.00582 29.4994 2.17819 28.6884 2.30746 27.8775C2.52292 26.9385 2.73838 25.9995 2.91074 25.0605C3.08311 24.1215 3.25547 23.1825 3.34165 22.2861C3.42784 21.3898 3.51402 20.4508 3.47093 19.5545C3.47093 18.6155 3.34165 17.7192 3.16929 16.7802C3.08311 16.3107 2.95383 15.8838 2.78147 15.457C2.6091 15.0302 2.43674 14.5607 2.26437 14.0912C1.91964 13.1522 1.57491 12.2132 1.31636 11.2315C1.05782 10.2498 1.05782 9.26812 1.27327 8.20107C1.48873 7.13402 2.17819 6.19502 3.38475 5.38406C4.37585 4.70115 5.36694 4.31701 6.44423 4.14628H6.65968C7.99551 4.31701 9.20207 4.40238 10.3224 4.48774C11.3997 4.5731 12.4339 4.61579 13.425 4.61579H14.5023C14.847 4.61579 15.1918 4.61579 15.5365 4.5731C15.8812 4.53042 16.3121 4.48774 16.7 4.40238C17.1309 4.31701 17.5618 4.23165 18.0358 4.1036C18.6391 3.93287 19.2423 3.80483 19.8887 3.67678C20.492 3.54874 21.1384 3.50605 21.7416 3.50605C22.7327 3.50605 23.5084 3.71946 24.1117 4.1036H24.1547C25.232 4.74383 26.0077 5.46943 26.3955 6.32307C26.8264 7.09134 26.9126 7.94498 26.6109 8.8413C26.4817 9.3108 26.2231 9.86567 25.7922 10.5486C25.3613 11.2315 24.6287 11.9571 23.5946 12.7254C23.2067 13.0668 22.6896 13.4083 22.0002 13.7924C21.3107 14.1766 20.7505 14.39 20.2765 14.39C20.0611 14.4326 19.8456 14.4326 19.6732 14.4326H19.1131C18.0358 14.4326 17.0878 14.3473 16.2259 14.2192C15.3641 14.0485 14.4592 13.8778 13.4681 13.6217L12.7786 13.4936C12.7786 14.0058 12.7356 14.518 12.6925 15.0302C12.6494 15.5424 12.6063 16.0972 12.5201 16.6521C15.1487 16.8228 17.648 17.5057 19.9318 18.7862C21.2245 19.4691 22.388 20.3228 23.336 21.3044C24.2409 22.4142 25.0166 23.4812 25.6629 24.6336ZM45.4418 36.4566C44.8817 38.548 44.1922 40.6821 43.3304 42.9015C42.2962 45.5905 40.4863 49.6026 38.9351 51.6087C38.1163 52.6757 39.8831 55.5781 38.461 55.9195C36.9098 56.3037 37.6854 53.1025 37.6854 52.7611C37.6423 51.8647 36.565 52.505 36.2634 54.1269C35.9618 55.7061 36.0479 63.0047 36.6081 65.3096C37.1252 67.6144 35.5739 67.529 34.9707 67.2303C34.3674 66.9315 34.5397 65.8218 34.7983 64.3706C35.0137 63.1328 35.0568 55.5781 35.0568 53.2733C33.4194 54.2123 31.825 54.6818 30.2737 54.6818C29.7135 54.6818 29.1102 54.5964 28.507 54.4684C26.9126 54.0415 25.9646 52.9745 25.6198 51.2245C25.4906 50.627 25.4906 49.9867 25.5337 49.3465C25.6198 48.7063 25.7491 48.0661 25.9646 47.4685C26.18 46.871 26.4386 46.3161 26.8264 45.8039C27.1711 45.2917 27.559 44.9076 27.9899 44.5661C28.5501 44.1393 29.1964 43.8405 29.8428 43.6271C30.4892 43.4137 31.1355 43.2003 31.825 43.0296C32.5145 42.8162 33.2039 42.6028 33.8503 42.3893C34.4967 42.1759 35.0568 41.8345 35.5739 41.4077C34.5397 40.8528 33.6779 40.0845 33.0315 39.1455C32.3421 38.2065 31.7388 37.2248 31.1355 36.2005C31.0924 36.0724 31.0063 35.9444 30.9201 35.859C30.8339 35.731 30.7908 35.6029 30.7046 35.5175C29.4119 33.4261 28.4639 30.8652 27.8606 27.8775C27.3004 25.0178 27.0849 22.7556 27.1711 21.091C27.2573 19.4264 27.6451 18.1887 28.3346 17.2923C29.0671 16.4387 30.1444 15.9692 31.5664 15.9692C33.4194 15.9692 34.8414 16.8228 35.7894 18.5728C36.1772 19.2984 36.4789 20.0667 36.6512 20.8776C36.8236 21.6886 36.9529 22.4142 37.0821 23.0117C37.1252 23.3532 37.1683 23.6946 37.2114 24.0361C37.2545 24.3775 37.2545 24.7617 37.2976 25.0605C37.3407 25.4019 37.3838 25.7861 37.4269 26.0848C37.47 26.4263 37.513 26.7677 37.5561 27.0665C37.5992 27.2372 37.5992 27.3653 37.5992 27.4507C37.5992 27.536 37.5992 27.6641 37.6423 27.8348C37.7285 28.4323 37.8578 29.1152 37.987 29.8835C38.1163 30.6518 38.3318 31.292 38.5472 31.9323C38.7196 30.8652 38.892 29.6701 39.1074 28.347C39.3229 27.0238 39.6245 25.658 40.0123 24.2922C40.6156 22.1154 41.3482 20.3654 42.21 19.0423C43.2873 17.3777 44.58 16.396 46.0451 16.0972C46.5191 16.0119 46.9069 15.9692 47.3379 15.9692C48.1997 15.9692 48.8891 16.1399 49.4062 16.4814C49.9233 16.8228 50.2681 17.1643 50.5266 17.5484C50.699 17.8472 50.8713 18.146 50.9575 18.4874V18.4021C51.3453 16.3533 52.0348 14.2619 53.0259 12.0851C53.543 11.0181 54.1032 10.1218 54.7496 9.35349C55.3959 8.58521 56.1285 7.9023 57.0334 7.30475C57.8952 6.74988 58.8001 6.32306 59.7481 5.93893C60.6962 5.59747 61.6442 5.21333 62.5922 4.91456C62.8938 4.87188 63.1093 4.78651 63.2816 4.74383C63.8849 4.5731 64.5313 4.35969 65.1346 4.14628C65.7809 3.93287 66.2549 3.6341 66.5566 3.24996C67.0306 2.6951 67.5908 2.26828 68.2802 1.9695C68.9697 1.67073 69.7022 1.5 70.4348 1.5C71.1242 1.5 71.7275 1.62805 72.2446 1.92682C73.1064 2.35364 73.839 2.95119 74.3561 3.76215C74.8732 4.5731 75.1748 5.51211 75.261 6.62184C75.3041 7.9023 75.0886 9.05471 74.5715 10.2071C74.0544 11.3169 73.3219 12.1705 72.3739 12.768C71.6844 13.2375 70.9088 13.4936 70.047 13.6217C69.1851 13.7497 68.2802 13.8351 67.2891 13.8778C66.6858 13.9205 66.0826 13.9631 65.5224 14.0058C64.9622 14.0485 64.402 14.1339 63.8849 14.2619C64.9191 14.2619 65.9533 14.4326 66.9444 14.7314C67.9786 15.0302 68.9266 15.4997 69.8746 16.0972C71.7275 17.2497 73.1926 18.8289 74.2699 20.7923C75.1317 22.3715 75.5626 24.1215 75.6488 26.1275C75.6919 27.7067 75.4765 29.3287 74.9594 31.0359C74.4854 32.5298 74.0114 33.8103 73.4512 34.792C72.891 35.8163 72.5032 36.4139 72.3308 36.67C71.0381 38.3772 69.7453 39.6577 68.5388 40.4687C65.5655 42.4747 64.5744 41.4077 65.2638 46.6149C65.7378 50.0294 66.4273 50.8831 65.824 51.8647C65.2638 52.8464 62.7645 52.6757 63.454 49.9014C64.1435 47.1697 64.2727 46.4868 64.0142 45.0356C63.7556 43.5844 62.2043 43.9259 62.5491 47.1697C62.8938 50.4136 61.6442 50.4562 61.3425 50.3282C61.0409 50.2001 60.61 49.3038 61.084 48.0661C61.558 46.7856 61.5149 45.5905 61.3425 44.5661C60.8685 41.7064 59.1018 41.493 57.1627 40.2126C55.6976 39.2736 54.5341 38.0785 53.6292 36.5419C53.1121 35.731 52.6812 34.8773 52.3364 33.981C51.9917 33.0847 51.7332 32.1457 51.5177 31.164C51.3023 30.1823 51.173 29.2006 51.0868 28.2189C51.0006 27.2372 50.9144 26.2982 50.8283 25.3592C50.7852 25.1885 50.7852 24.9751 50.7421 24.8044C50.7421 24.591 50.699 24.4202 50.699 24.2495C50.6559 23.8654 50.6128 23.4812 50.6128 23.0971C50.5266 23.3105 50.4404 23.5239 50.3542 23.7373C49.4924 25.7434 48.5875 27.8348 47.7257 29.9262C46.8208 32.0603 46.0882 34.2371 45.4418 36.4566ZM77.9758 49.7733C76.683 48.7916 77.9758 46.4441 77.9758 44.7369C77.9758 43.0723 76.9416 41.7918 76.8554 41.7064C76.6399 41.5784 76.3814 41.493 76.1659 41.3223C75.3041 40.7248 74.6577 39.9565 74.2699 38.9321C73.839 37.8224 73.7959 36.6273 74.1837 35.4322C74.5285 34.1517 75.3041 32.9566 76.4676 31.9323C76.7261 31.6762 76.9416 31.4628 77.157 31.292C77.3725 31.0786 77.631 30.9079 77.8465 30.6945C78.5359 30.0969 79.1823 29.4994 79.7856 28.9445C80.3889 28.3897 80.9491 27.7067 81.5092 27.0238C81.7247 26.7251 81.9401 26.3409 82.1125 25.9141C82.328 25.4446 82.5003 25.0178 82.6727 24.5483C82.8451 24.0788 82.9743 23.652 83.0605 23.2678C83.1467 22.8837 83.2329 22.5849 83.2329 22.4142V22.2861C83.276 22.03 83.3191 21.7313 83.3191 21.3898V20.3654C83.3191 19.8959 83.3191 19.4691 83.3622 18.9996C83.4053 18.5301 83.4483 18.0606 83.5776 17.6338C83.6638 17.1643 83.8362 16.7375 84.0516 16.3107C84.2671 15.8838 84.5687 15.4997 84.9996 15.1582C85.8184 14.4753 86.7664 14.1766 87.8437 14.1766C88.4038 14.1766 88.964 14.2619 89.5242 14.4326C90.0844 14.6034 90.6015 14.8595 91.0755 15.2009C91.9373 15.7985 92.6268 16.5667 93.2301 17.4204C93.7903 18.3167 94.3074 19.213 94.6952 20.1947C95.083 21.1764 95.3846 22.0727 95.6001 23.0117C95.8155 23.908 95.9448 24.6336 96.0741 25.2312C96.5481 26.3409 97.0221 27.4933 97.4961 28.6031C97.9701 29.7555 98.3579 30.9079 98.6596 32.0603C98.7027 32.231 98.7888 32.4444 98.875 32.6152C98.9612 32.8286 99.0043 32.9993 99.0905 33.2127C99.2628 33.6822 99.4352 34.1944 99.6076 34.7493C99.7369 35.0907 99.823 35.4749 99.9092 35.8163C99.9523 35.5175 99.9523 35.2188 100.038 34.92C100.168 34.1944 100.34 33.5115 100.512 32.7859V32.7005C100.728 31.9323 100.943 31.1213 101.116 30.3103C101.331 29.4994 101.461 28.6884 101.59 27.8775C101.719 27.0665 101.762 26.2982 101.762 25.4873C101.762 24.719 101.633 23.908 101.417 23.1398C101.288 22.7556 101.073 22.2008 100.771 21.5605C100.512 21.0057 100.297 20.4508 100.082 19.8533C99.8661 19.2557 99.7368 18.6582 99.7368 18.0606C99.6507 16.4814 100.34 15.3716 101.848 14.7314C102.839 14.2619 103.787 14.0485 104.692 14.0485C106.157 14.0485 107.364 14.6461 108.312 15.7985C108.743 16.3107 109.088 16.9082 109.303 17.5911C109.562 18.274 109.734 18.9996 109.863 19.7679C110.036 20.8349 110.079 21.902 109.906 23.0117C110.984 23.0544 111.975 23.2251 112.966 23.4385C113.957 23.652 114.862 23.908 115.724 24.2495C118.008 25.2312 119.86 26.6397 121.282 28.5177C121.412 28.6457 121.498 28.7311 121.498 28.8165C122.144 29.7982 122.489 30.7798 122.575 31.8469C122.661 32.9139 122.446 33.9383 122.015 35.0054C121.627 35.9017 121.067 36.7553 120.334 37.5236C119.602 38.2919 118.783 38.9748 117.878 39.5723C115.465 41.1516 115.638 45.5905 115.982 48.1087C116.586 52.5477 117.49 53.6147 116.715 54.8952C115.982 56.1756 112.75 55.9195 113.655 52.3769C114.56 48.8343 114.733 47.9807 114.345 46.06C114 44.1393 111.285 44.7369 112.406 48.7916C113.742 53.4867 111.242 53.0598 110.854 52.8891C110.423 52.7184 109.906 51.566 110.51 49.9441C111.113 48.2795 111.07 46.7429 110.854 45.4198C110.596 43.8832 109.82 42.1333 108.14 42.1333C104.218 42.1333 103.658 40.2552 103.486 43.6271C103.4 45.6332 104.261 45.8893 104.218 46.9136C104.175 47.938 103.486 49.2611 102.193 48.2795C100.9 47.2978 102.193 44.9503 102.193 43.243C102.193 41.1516 100.728 39.9992 100.211 38.2919C100.168 38.676 100.082 39.0175 99.9523 39.3589C99.6076 40.2126 99.0905 40.8528 98.3148 41.365C95.1692 43.4137 95.1692 43.8832 96.5912 48.4502C97.7116 52.0355 97.7977 54.7244 96.1603 54.9805C92.6268 55.45 94.9106 50.5416 94.609 46.6575C94.0919 40.2126 90.6877 42.0479 90.2999 33.5542C90.2568 32.5725 90.1706 31.6335 90.1275 30.6945C90.0844 29.7555 89.912 28.8592 89.6535 27.9628C89.6104 28.2616 89.5242 28.5177 89.4811 28.6884V28.7311C89.3088 29.2006 89.1364 29.6701 88.964 30.1396C88.7486 30.6091 88.5762 31.0359 88.3608 31.4628C88.1884 31.8042 88.016 32.1884 87.8437 32.5298C87.6713 32.8713 87.542 33.2127 87.4127 33.5542C87.2835 33.8956 87.1973 34.1944 87.1111 34.4932C87.0249 34.792 86.9387 35.0907 86.8526 35.3468C86.5078 36.4566 86.12 37.4809 85.646 38.4199C85.172 39.3589 84.3102 40.2979 83.0605 41.1516L82.8882 41.2369H82.7589C82.4142 41.4503 82.1556 41.5784 82.0263 41.5784C81.2938 41.8345 80.6474 42.0479 80.001 42.0906C79.958 42.1759 79.8718 42.2613 79.8287 42.3893C79.4409 43.0296 79.3116 43.0723 79.2254 45.0356C79.1392 47.0417 80.001 47.2978 79.958 48.3221C79.958 49.4746 79.2685 50.7977 77.9758 49.7733Z" fill="url(#paint0_linear)"/><defs><linearGradient id="paint0_linear" x1="99.9417" y1="11.695" x2="99.9417" y2="44.2953" gradientUnits="userSpaceOnUse"><stop stop-color="#99297D"/><stop offset="1" stop-color="#5B408B"/></linearGradient></defs></svg>