<svg xmlns="http://www.w3.org/2000/svg" xmlns:xlink="http://www.w3.org/1999/xlink" width="0" height="0" style="position:absolute">
	
		<symbol id="arrow_left" viewBox="0 0 8 5">
			<title>arrow left</title><path d="M3 0L0 2.53 3 5V3h5V2H3z" fill-rule="nonzero"></path>
		</symbol>
	
		<symbol id="arrow_reload" viewBox="0 0 19 17">
			<defs><path id="10a" d="M1056.62 1689.95a8.37 8.37 0 0 0-15.06-7.24l-.92-2.6a.63.63 0 1 0-1.2.43l1.48 4.16a.64.64 0 0 0 .81.38l4.4-1.55a.63.63 0 1 0-.43-1.2l-3.08 1.1a7.1 7.1 0 1 1 1.26 7.76.63.63 0 1 0-.93.86 8.35 8.35 0 0 0 13.67-2.1z"></path></defs><use xlink:href="#10a" transform="translate(-1039 -1678)"></use>
		</symbol>
	
		<symbol id="calendar" viewBox="0 0 7 8">
			<defs><path id="20a" d="M8 0v2H1V0zm-.01 3v4.91c0 .05-.04.09-.09.09H1.09A.09.09 0 0 1 1 7.91V3zM2 5h1V4H2zm2 0h1V4H4zm2 0h1V4H6zM2 7h1V6H2zm2 0h1V6H4z"></path></defs><use xlink:href="#20a" transform="translate(-1)"></use>
		</symbol>
	
		<symbol id="caret-bottom" viewBox="0 0 8 8">
			<path d="M0 2l4 4 4-4H0z"></path>
		</symbol>
	
		<symbol id="cart" viewBox="0 0 9 6">
			<defs><path id="40a" d="M1.34 1a.5.5 0 0 1 .05 0 .5.5 0 0 1 .09 0h2a.5.5 0 0 1 .44.28L4.3 2h4.44c.14 0 .2.12.16.25l-.81 2.5a.4.4 0 0 1-.34.25h-3.5a.4.4 0 0 1-.34-.25l-.82-2.5-.1-.25H1.5a.5.5 0 0 1-.15-1zm0 0h-.01zM5 6.5a.5.5 0 0 1-.5.5.5.5 0 0 1-.5-.5c0-.28.22-.5.5-.5s.5.22.5.5zm3 0a.5.5 0 0 1-.5.5.5.5 0 0 1-.5-.5c0-.28.22-.5.5-.5s.5.22.5.5z"></path></defs><use xlink:href="#40a" transform="translate(0 -1)"></use>
		</symbol>
	
		<symbol id="category-icon1" viewBox="0 0 32 32">
			<title>Group 8</title><g fill-rule="evenodd"><path d="M.266 17c-.017-.3-.026-.603-.026-.908C.24 7.551 7.21.58 15.754.58c8.541 0 15.513 6.971 15.513 15.513 0 .305-.009.608-.026.908h-1.822a13.816 13.816 0 0 0-.046-2.351l-1.75.308-.316-1.79 1.755-.31a13.698 13.698 0 0 0-3.782-6.594l-1.16 1.383-1.393-1.169 1.167-1.391a13.619 13.619 0 0 0-7.231-2.658v1.847h-1.819V2.428a13.618 13.618 0 0 0-7.177 2.619l1.2 1.43-1.392 1.169-1.2-1.43a13.7 13.7 0 0 0-3.83 6.637l1.781.314-.315 1.79-1.777-.313A13.78 13.78 0 0 0 2.088 17H.266zm6.442 0a9.157 9.157 0 0 1-.045-.908c0-5.012 4.078-9.09 9.09-9.09a9.12 9.12 0 0 1 6.453 2.662c1.74 1.723 2.698 4.006 2.698 6.428 0 .305-.015.608-.045.908h-6.534a2.73 2.73 0 0 0-2.572-3.635A2.73 2.73 0 0 0 13.183 17H6.708zm11.55-4.698l1.968-1.968a7.33 7.33 0 0 0-3.563-1.458v2.763c.579.118 1.118.347 1.595.663zm-3.414-.663V8.877a7.237 7.237 0 0 0-3.547 1.473l1.952 1.952a4.52 4.52 0 0 1 1.595-.663zm-2.88 1.949l-1.953-1.952a7.236 7.236 0 0 0-1.473 3.547H11.3c.118-.579.347-1.118.663-1.595zm11.065 1.595a7.205 7.205 0 0 0-1.506-3.574l-1.98 1.979a4.52 4.52 0 0 1 .664 1.595h2.822z" fill-rule="nonzero"></path><path d="M5.748 19.119h2.52v12.6h-2.52l-2.124-4.878-1.134-3.078-.054.054c.198 1.584.324 3.942.324 5.346v2.556H.24v-12.6h2.52l2.394 5.472c.306.792.594 1.62.9 2.412l.054-.054c-.216-1.584-.36-3.744-.36-4.914v-2.916zm7.308 10.17h4.122v2.43H10.5v-12.6h6.498v2.43h-3.942v2.61h3.582v2.34h-3.582v2.79zm16.308-10.17h2.646l-2.844 12.6h-2.7l-.9-4.212c-.306-1.368-.522-3.096-.594-4.122H24.9c-.072 1.026-.288 2.754-.594 4.122l-.9 4.212h-2.7l-2.844-12.6h2.646l.99 5.958c.144.918.396 2.466.522 3.51h.072c.126-1.044.378-2.592.522-3.51l.99-5.778h2.664l.99 5.778c.144.918.396 2.466.522 3.51h.072c.126-1.044.378-2.592.522-3.51l.99-5.958z"></path></g>
		</symbol>
	
		<symbol id="category-icon2" viewBox="0 0 32 32">
			<title>wheel (1)</title><g fill-rule="nonzero"><path d="M15.514 31.028c8.542 0 15.514-6.972 15.514-15.514C31.028 6.972 24.056 0 15.514 0 6.972 0 0 6.972 0 15.514c0 8.542 6.972 15.514 15.514 15.514zM1.894 14.065l1.777.314.316-1.79-1.78-.315a13.7 13.7 0 0 1 3.828-6.636l1.2 1.43 1.392-1.17-1.2-1.43a13.618 13.618 0 0 1 7.178-2.62v1.849h1.818V1.849a13.619 13.619 0 0 1 7.232 2.658L22.487 5.9l1.393 1.168 1.16-1.383a13.698 13.698 0 0 1 3.782 6.595l-1.755.31.316 1.79 1.75-.309a13.612 13.612 0 0 1-1.324 7.472l-1.533-.885-.909 1.574 1.533.885a13.782 13.782 0 0 1-5.873 4.933l-.604-1.66-1.709.622.605 1.66c-1.209.35-2.485.539-3.805.539-1.311 0-2.58-.186-3.781-.532l.606-1.667-1.708-.621-.608 1.67a13.781 13.781 0 0 1-5.883-4.924l1.599-.9-.892-1.584-1.618.91a13.612 13.612 0 0 1-1.334-7.497z"></path><path d="M15.514 24.604a9.12 9.12 0 0 0 6.452-2.662c1.74-1.723 2.698-4.005 2.698-6.428s-.958-4.706-2.698-6.429a9.12 9.12 0 0 0-6.452-2.661c-5.013 0-9.09 4.077-9.09 9.09 0 5.012 4.077 9.09 9.09 9.09zm0-11.817a2.73 2.73 0 0 1 2.727 2.727 2.73 2.73 0 0 1-2.727 2.727 2.73 2.73 0 0 1-2.727-2.727 2.73 2.73 0 0 1 2.727-2.727zm-2.505 6.517a4.518 4.518 0 0 0 1.596.663v2.762a7.236 7.236 0 0 1-3.548-1.473l1.952-1.952zm3.414.663a4.52 4.52 0 0 0 1.595-.663l1.969 1.968a7.33 7.33 0 0 1-3.564 1.458v-2.763zm1.595-8.243a4.518 4.518 0 0 0-1.595-.664V8.298a7.33 7.33 0 0 1 3.564 1.458l-1.969 1.968zm-3.413-.664a4.52 4.52 0 0 0-1.596.664L11.057 9.77a7.237 7.237 0 0 1 3.548-1.473v2.762zm-2.881 1.95a4.518 4.518 0 0 0-.664 1.595H8.298a7.236 7.236 0 0 1 1.474-3.548l1.952 1.952zm-.664 3.413a4.52 4.52 0 0 0 .664 1.595L9.77 19.971a7.237 7.237 0 0 1-1.473-3.548h2.762zm10.223 3.575l-1.98-1.98a4.52 4.52 0 0 0 .664-1.596h2.822a7.209 7.209 0 0 1-1.506 3.576zm1.506-5.393h-2.822a4.52 4.52 0 0 0-.663-1.596l1.979-1.979a7.205 7.205 0 0 1 1.506 3.575z"></path></g>
		</symbol>
	
		<symbol id="category-icon3" viewBox="0 0 33 32">
			<title>Group 9</title><g fill-rule="evenodd"><path d="M5.967 19.119h2.52v12.6h-2.52l-2.124-4.878-1.134-3.078-.054.054c.198 1.584.324 3.942.324 5.346v2.556H.46v-12.6h2.52l2.394 5.472c.306.792.594 1.62.9 2.412l.054-.054c-.216-1.584-.36-3.744-.36-4.914v-2.916zm7.308 10.17h4.122v2.43H10.72v-12.6h6.498v2.43h-3.942v2.61h3.582v2.34h-3.582v2.79zm16.308-10.17h2.646l-2.844 12.6h-2.7l-.9-4.212c-.306-1.368-.522-3.096-.594-4.122h-.072c-.072 1.026-.288 2.754-.594 4.122l-.9 4.212h-2.7l-2.844-12.6h2.646l.99 5.958c.144.918.396 2.466.522 3.51h.072c.126-1.044.378-2.592.522-3.51l.99-5.778h2.664l.99 5.778c.144.918.396 2.466.522 3.51h.072c.126-1.044.378-2.592.522-3.51l.99-5.958z"></path><path d="M28.173 16.9h-1.82a10.162 10.162 0 0 0-.29-3.087l-3.362 1.9v1.052l.25.135h-2.067l.001-2.247 4.564-2.58a10.31 10.31 0 0 0-1.103-1.863l-4.498 2.783-2.77-1.6.048-5.239a10.216 10.216 0 0 0-2.165.022l.162 5.285-2.77 1.6-4.516-2.66c-.418.589-.77 1.218-1.052 1.874l4.653 2.507-.003 2.118H9.618l.002-1.034-3.408-1.836c-.216.936-.301 1.902-.248 2.87H4.145c-.203-4.355 1.971-8.675 6-11 5.745-3.317 13.117-1.342 16.434 4.403a11.96 11.96 0 0 1 1.594 6.597zm3.485 0H29.83a13.606 13.606 0 0 0-1.817-7.425C24.239 2.939 15.853.692 9.317 4.465c-4.559 2.632-7.03 7.508-6.83 12.435H.66a15.555 15.555 0 0 1 .525-4.594c1.072-4 3.637-7.344 7.223-9.414a15.402 15.402 0 0 1 11.765-1.549c4 1.072 7.343 3.637 9.413 7.224a15.4 15.4 0 0 1 2.072 8.333zm-12.348 0h-1.89a1.387 1.387 0 1 0-2.52 0H13.01a3.21 3.21 0 0 1 1.549-3.357 3.208 3.208 0 0 1 4.377 1.173 3.19 3.19 0 0 1 .375 2.184zm3.804-8.064a10.225 10.225 0 0 0-4.175-2.34l-.034 3.854.911.526 3.298-2.04zm-9.96-2.28a10.204 10.204 0 0 0-4.118 2.442l3.326 1.96.912-.527-.12-3.875z" fill-rule="nonzero"></path></g>
		</symbol>
	
		<symbol id="category-icon4" viewBox="0 0 32 32">
			<title>Group 10</title><g fill-rule="nonzero"><path d="M10.145 5.9c5.745-3.317 13.117-1.342 16.434 4.403 3.316 5.745 1.34 13.117-4.404 16.434-5.745 3.316-13.117 1.341-16.434-4.404C2.425 16.59 4.401 9.216 10.145 5.9zm15.393 14.454l-4.655-2.503.002-3.198 4.564-2.58a10.31 10.31 0 0 0-1.103-1.863l-4.498 2.783-2.77-1.6.048-5.239a10.216 10.216 0 0 0-2.165.022l.162 5.285-2.77 1.6-4.516-2.66c-.418.589-.77 1.218-1.052 1.874l4.653 2.507-.004 3.198-4.567 2.576A10.316 10.316 0 0 0 7.97 22.42l4.5-2.78 2.767 1.603-.05 5.239c.716.069 1.442.063 2.165-.02l-.159-5.286 2.771-1.598 4.515 2.664c.42-.593.775-1.227 1.059-1.888zM23.114 8.836a10.225 10.225 0 0 0-4.175-2.34l-.034 3.854.911.526 3.298-2.04zm-9.96-2.28a10.204 10.204 0 0 0-4.118 2.442l3.326 1.96.912-.527-.12-3.875zM6.213 14.03a10.212 10.212 0 0 0 .044 4.786l3.362-1.897.002-1.053-3.408-1.836zM9.2 23.795a10.222 10.222 0 0 0 4.172 2.343l.037-3.854-.91-.527-3.3 2.038zm9.957 2.288a10.215 10.215 0 0 0 4.12-2.44l-3.324-1.961-.912.525.116 3.876zm6.952-7.484a10.21 10.21 0 0 0-.048-4.786l-3.36 1.9-.001 1.052L26.11 18.6z"></path><path d="M20.173 1.343c4 1.072 7.343 3.637 9.413 7.224a15.402 15.402 0 0 1 1.549 11.764 15.402 15.402 0 0 1-7.223 9.413 15.402 15.402 0 0 1-11.765 1.55 15.402 15.402 0 0 1-9.413-7.224 15.402 15.402 0 0 1-1.55-11.764c1.073-4 3.638-7.344 7.224-9.414a15.402 15.402 0 0 1 11.765-1.549zm2.83 26.828c6.536-3.773 8.783-12.16 5.01-18.696-3.774-6.536-12.16-8.783-18.696-5.01C2.78 8.24.534 16.625 4.307 23.161c3.774 6.536 12.16 8.783 18.696 5.01z"></path><path d="M14.558 13.543a3.208 3.208 0 0 1 4.377 1.173 3.208 3.208 0 0 1-1.173 4.377 3.208 3.208 0 0 1-4.377-1.173 3.208 3.208 0 0 1 1.173-4.377zm2.296 3.977a1.39 1.39 0 0 0 .508-1.896 1.39 1.39 0 0 0-1.896-.508 1.39 1.39 0 0 0-.508 1.896 1.39 1.39 0 0 0 1.896.508z"></path></g>
		</symbol>
	
		<symbol id="checkbox_arrow" viewBox="0 0 443 340">
			<title>check</title><path d="M434.539 47.499L395.711 8.671c-5.324-5.328-11.799-7.993-19.41-7.993-7.618 0-14.093 2.665-19.417 7.993L169.59 196.248l-83.939-84.225c-5.33-5.33-11.801-7.992-19.412-7.992-7.616 0-14.087 2.662-19.417 7.992L7.994 150.852C2.664 156.181 0 162.654 0 170.269c0 7.609 2.664 14.088 7.994 19.416l103.351 103.349 38.831 38.828c5.327 5.332 11.8 7.994 19.414 7.994 7.611 0 14.084-2.669 19.414-7.994l38.83-38.828L434.539 86.33c5.325-5.33 7.994-11.802 7.994-19.417.004-7.611-2.669-14.084-7.994-19.414z" fill-rule="nonzero"></path>
		</symbol>
	
		<symbol id="clock" viewBox="0 0 8 8">
			<defs><path id="100a" d="M8 4c0 2.2-1.8 4-4 4S0 6.2 0 4s1.8-4 4-4 4 1.8 4 4zM1 4a3 3 0 1 0 6 0 3 3 0 0 0-6 0zm2.5-1.98h1v1.81l.34.34.38.34-.72.72-.34-.38-.5-.5-.16-.13z"></path></defs><use xlink:href="#100a"></use>
		</symbol>
	
		<symbol id="close-button" viewBox="0 0 17 17">
			<defs><path id="110a" d="M17 1.7L15.3 0 8.5 6.8 1.7 0 0 1.7l6.8 6.8L0 15.3 1.7 17l6.8-6.8 6.8 6.8 1.7-1.7-6.8-6.8z"></path></defs><use xlink:href="#110a"></use>
		</symbol>
	
		<symbol id="compare_icon" viewBox="0 0 8 8">
			<defs><path id="120a" d="M4 0v4H0V0zm2 2v4H2V5h3V2zm2 2v4H4V7h3V4z"></path></defs><use xlink:href="#120a"></use>
		</symbol>
	
		<symbol id="complex" viewBox="0 0 64 23">
			<defs><clipPath id="a"><path d="M41.07 0h22.803v22.803H41.07z"></path></clipPath><clipPath id="b"><path d="M0 0h16.365v22.803H0z"></path></clipPath></defs><g clip-path="url(#a)"><path d="M60.533 3.34a11.327 11.327 0 0 1 3.34 8.061v.023a11.326 11.326 0 0 1-3.34 8.04 11.327 11.327 0 0 1-8.058 3.339h-.01a11.327 11.327 0 0 1-8.056-3.34 11.327 11.327 0 0 1-3.339-8.062v-.022a11.326 11.326 0 0 1 3.34-8.04A11.327 11.327 0 0 1 52.47 0c3.046 0 5.91 1.186 8.063 3.34m.651 9.076a.668.668 0 0 1 .299-.896l1.053-.527a9.993 9.993 0 0 0-.838-3.63l-.247.375a.668.668 0 1 1-1.116-.736l.648-.98a10.147 10.147 0 0 0-2.54-2.723l-.027.444a.668.668 0 0 1-1.334-.08l.07-1.173a9.995 9.995 0 0 0-3.564-1.092l.201.402a.668.668 0 1 1-1.195.598l-.527-1.053a10.003 10.003 0 0 0-3.631.838l.374.247a.668.668 0 1 1-.736 1.115l-.98-.647a10.15 10.15 0 0 0-2.725 2.54l.445.026a.668.668 0 1 1-.08 1.334l-1.174-.07a9.982 9.982 0 0 0-1.093 3.562l.403-.202a.668.668 0 0 1 .598 1.195l-1.053.527a9.993 9.993 0 0 0 .838 3.63l.247-.375a.668.668 0 0 1 1.116.736l-.648.98a10.148 10.148 0 0 0 2.54 2.723l.027-.444a.67.67 0 0 1 1.335.08l-.071 1.173a9.995 9.995 0 0 0 3.564 1.092l-.201-.402a.668.668 0 1 1 1.195-.598l.527 1.053a10.005 10.005 0 0 0 3.631-.838l-.375-.247a.668.668 0 1 1 .737-1.115l.98.647a10.151 10.151 0 0 0 2.725-2.539l-.445-.027a.668.668 0 1 1 .08-1.333l1.174.07a9.984 9.984 0 0 0 1.092-3.563l-.402.202a.666.666 0 0 1-.897-.299"></path></g><path d="M52.478 4.29a7.116 7.116 0 0 1 7.108 7.108 7.116 7.116 0 0 1-7.108 7.108 7.116 7.116 0 0 1-7.108-7.108 7.116 7.116 0 0 1 7.108-7.108zm.663 4.366c.53.13 1 .407 1.366.788l2.602-1.496a5.79 5.79 0 0 0-3.968-2.283zm-1.326-2.991a5.79 5.79 0 0 0-3.968 2.283l2.602 1.496c.365-.38.837-.659 1.366-.788zm-2.032 6.522a2.798 2.798 0 0 1 0-1.577l-2.603-1.5a5.726 5.726 0 0 0-.475 2.288c0 .813.17 1.586.475 2.288zm2.032 1.945a2.82 2.82 0 0 1-1.366-.79l-2.602 1.5a5.787 5.787 0 0 0 3.968 2.29zm-.82-2.734a1.482 1.482 0 0 0 2.966 0 1.482 1.482 0 0 0-2.966 0zm2.146 5.733a5.786 5.786 0 0 0 3.968-2.289l-2.602-1.5a2.82 2.82 0 0 1-1.366.79zm5.11-5.733a5.73 5.73 0 0 0-.475-2.288l-2.603 1.5a2.799 2.799 0 0 1 0 1.576l2.603 1.5a5.726 5.726 0 0 0 .475-2.288zM38.848 9.92a1.48 1.48 0 0 0-1.479 1.478 1.48 1.48 0 0 0 1.748 1.454c.078.72.212 1.424.4 2.105v2.174c.251-.029.499-.074.74-.135.191.415.402.82.633 1.21-.647.195-1.332.3-2.042.3a7.116 7.116 0 0 1-7.108-7.108 7.116 7.116 0 0 1 9.15-6.809c-.23.392-.442.796-.633 1.212a5.736 5.736 0 0 0-.74-.136v2.174a13.379 13.379 0 0 0-.4 2.106 1.48 1.48 0 0 0-.269-.025zm-2.702 2.267a2.805 2.805 0 0 1 0-1.577l-2.597-1.5a5.739 5.739 0 0 0-.473 2.288c0 .813.17 1.586.473 2.288zm2.034 1.945a2.81 2.81 0 0 1-1.364-.79l-2.597 1.5a5.774 5.774 0 0 0 3.961 2.29zm-1.364-4.688c.365-.38.835-.659 1.364-.788v-2.99a5.777 5.777 0 0 0-3.961 2.282z"></path><path d="M42.757 20.677a9.996 9.996 0 0 1-3.497.78l-.527-1.052a.668.668 0 0 0-1.195.598l.201.402a9.989 9.989 0 0 1-3.562-1.092l.07-1.173a.668.668 0 0 0-1.333-.08l-.027.444a10.147 10.147 0 0 1-2.539-2.723l.647-.98a.668.668 0 1 0-1.115-.736l-.247.375a9.996 9.996 0 0 1-.838-3.63l1.053-.527a.668.668 0 0 0-.598-1.195l-.402.202a9.987 9.987 0 0 1 1.092-3.563l1.173.07a.668.668 0 0 0 .08-1.334l-.444-.026a10.148 10.148 0 0 1 2.723-2.539l.98.647a.665.665 0 0 0 .926-.19.668.668 0 0 0-.19-.925l-.375-.247a9.995 9.995 0 0 1 3.63-.838l.527 1.053a.668.668 0 1 0 1.195-.598l-.202-.402c.98.108 1.918.358 2.794.728.334-.35.688-.682 1.058-.995A11.357 11.357 0 0 0 38.851 0a11.327 11.327 0 0 0-8.062 3.34 11.326 11.326 0 0 0-3.339 8.04v.021c0 3.046 1.186 5.91 3.34 8.063a11.327 11.327 0 0 0 8.055 3.339h.01c1.747 0 3.433-.392 4.96-1.131a13.51 13.51 0 0 1-1.058-.995M25.108 9.92a1.48 1.48 0 0 0-1.479 1.478 1.48 1.48 0 0 0 1.748 1.454c.078.72.212 1.424.4 2.105v2.174c.251-.029.499-.074.74-.135.191.415.402.82.633 1.21-.647.195-1.332.3-2.042.3A7.116 7.116 0 0 1 18 11.398a7.116 7.116 0 0 1 9.15-6.809c-.23.392-.442.796-.633 1.212a5.736 5.736 0 0 0-.74-.136v2.174a13.379 13.379 0 0 0-.4 2.106 1.48 1.48 0 0 0-.269-.025zm-2.702 2.267a2.805 2.805 0 0 1 0-1.577l-2.597-1.5a5.739 5.739 0 0 0-.473 2.288c0 .813.17 1.586.473 2.288zm2.034 1.945a2.81 2.81 0 0 1-1.364-.79l-2.597 1.5a5.774 5.774 0 0 0 3.961 2.29zm-1.364-4.688c.365-.38.835-.659 1.364-.788v-2.99a5.777 5.777 0 0 0-3.961 2.282z"></path><path d="M29.007 20.677a9.996 9.996 0 0 1-3.497.78l-.527-1.052a.668.668 0 0 0-1.195.598l.201.402a9.989 9.989 0 0 1-3.562-1.092l.07-1.173a.668.668 0 0 0-1.333-.08l-.027.444a10.147 10.147 0 0 1-2.539-2.723l.647-.98a.668.668 0 1 0-1.115-.736l-.247.375a9.996 9.996 0 0 1-.838-3.63l1.053-.527a.668.668 0 0 0-.598-1.195l-.402.202a9.987 9.987 0 0 1 1.092-3.563l1.173.07a.668.668 0 0 0 .08-1.334L17 5.438a10.148 10.148 0 0 1 2.723-2.539l.98.647a.665.665 0 0 0 .926-.19.668.668 0 0 0-.19-.925l-.375-.247a9.995 9.995 0 0 1 3.63-.838l.527 1.053a.668.668 0 1 0 1.195-.598l-.202-.402c.98.108 1.918.358 2.794.728.334-.35.688-.682 1.058-.995A11.357 11.357 0 0 0 25.1 0a11.327 11.327 0 0 0-8.062 3.34 11.326 11.326 0 0 0-3.339 8.04v.021c0 3.046 1.186 5.91 3.34 8.063a11.327 11.327 0 0 0 8.055 3.339h.01c1.747 0 3.433-.392 4.96-1.131a13.51 13.51 0 0 1-1.058-.995M11.398 9.92a1.48 1.48 0 0 0-1.479 1.478 1.48 1.48 0 0 0 1.748 1.454c.078.72.212 1.424.4 2.105v2.174c.251-.029.499-.074.74-.135.19.415.402.82.633 1.21-.647.195-1.332.3-2.042.3a7.116 7.116 0 0 1-7.108-7.108 7.116 7.116 0 0 1 9.15-6.809c-.23.392-.442.796-.633 1.212a5.735 5.735 0 0 0-.74-.136v2.174a13.384 13.384 0 0 0-.4 2.106 1.48 1.48 0 0 0-.269-.025zm-2.702 2.267a2.805 2.805 0 0 1 0-1.577L6.1 9.11a5.739 5.739 0 0 0-.473 2.288c0 .813.17 1.586.473 2.288zm2.034 1.945a2.81 2.81 0 0 1-1.364-.79l-2.597 1.5a5.774 5.774 0 0 0 3.961 2.29zM9.366 9.444c.365-.38.835-.659 1.364-.788v-2.99a5.777 5.777 0 0 0-3.961 2.282z"></path><g><g clip-path="url(#b)"><path d="M15.307 20.677a9.995 9.995 0 0 1-3.497.78l-.527-1.052a.668.668 0 0 0-1.195.598l.201.402a9.989 9.989 0 0 1-3.562-1.092l.07-1.173a.668.668 0 1 0-1.333-.08l-.027.444a10.147 10.147 0 0 1-2.539-2.723l.647-.98a.668.668 0 1 0-1.115-.736l-.247.375a9.996 9.996 0 0 1-.838-3.63l1.053-.527a.668.668 0 0 0-.598-1.195l-.402.202A9.987 9.987 0 0 1 2.49 6.727l1.173.07a.668.668 0 0 0 .08-1.334L3.3 5.438a10.147 10.147 0 0 1 2.723-2.539l.98.647a.665.665 0 0 0 .926-.19.668.668 0 0 0-.19-.925l-.375-.247a9.995 9.995 0 0 1 3.63-.838l.527 1.053a.668.668 0 1 0 1.195-.598l-.202-.402a9.98 9.98 0 0 1 2.794.728c.334-.35.688-.682 1.058-.995A11.357 11.357 0 0 0 11.402 0a11.327 11.327 0 0 0-8.063 3.34A11.326 11.326 0 0 0 0 11.38v.021c0 3.046 1.186 5.91 3.34 8.063a11.327 11.327 0 0 0 8.055 3.339h.01c1.747 0 3.433-.392 4.96-1.131a13.51 13.51 0 0 1-1.058-.995"></path></g></g>
		</symbol>
	
		<symbol id="delivery" viewBox="0 0 526 383">
			<title>delivery</title><path d="M453.557 96.119h-71.618V.629H47.745C21.487.629 0 22.138 0 48.374V310.95h47.745c0 39.627 31.991 71.574 71.596 71.574 39.649 0 71.618-31.969 71.618-71.574h143.213c0 39.627 31.991 71.574 71.618 71.574 39.627 0 71.596-31.969 71.596-71.574h47.767V191.587l-71.596-95.468zM119.341 346.77c-19.803 0-35.798-16.017-35.798-35.82 0-19.825 15.973-35.82 35.798-35.82 19.825 0 35.82 15.973 35.82 35.82 0 19.781-15.996 35.82-35.82 35.82zm322.268-214.853l46.782 59.67H381.917v-59.67h59.692zM405.812 346.77c-19.825 0-35.82-16.017-35.82-35.82 0-19.825 15.973-35.82 35.82-35.82 19.803 0 35.798 15.973 35.798 35.82-.001 19.781-15.996 35.82-35.798 35.82z" fill-rule="nonzero"></path>
		</symbol>
	
		<symbol id="done_icon" viewBox="0 0 400 400">
			<title>dane</title><g fill-rule="nonzero"><path d="M199.996 0C89.713 0 0 89.72 0 200s89.713 200 199.996 200C310.279 400 400 310.28 400 200S310.279 0 199.996 0zm0 373.77C104.18 373.77 26.23 295.816 26.23 200c0-95.817 77.949-173.769 173.766-173.769S373.767 104.184 373.767 200c.001 95.816-77.955 173.77-173.771 173.77z"></path><path d="M272.406 134.526L169.275 237.652l-41.689-41.68c-5.123-5.117-13.422-5.12-18.545.003-5.125 5.125-5.125 13.425 0 18.548l50.963 50.955a13.079 13.079 0 0 0 9.271 3.838c3.355 0 6.719-1.28 9.279-3.842.008-.011.014-.022.027-.035L290.95 153.071c5.125-5.12 5.125-13.426 0-18.546-5.122-5.123-13.427-5.123-18.544.001z"></path></g>
		</symbol>
	
		<symbol id="email" viewBox="0 0 8 6">
			<defs><path id="160a" d="M0 0v1l4 2 4-2V0zm0 2v4h8V2L4 4z"></path></defs><use xlink:href="#160a"></use>
		</symbol>
	
		<symbol id="facebook" viewBox="0 0 9 17">
			<title>fb</title><path d="M2.615 17V9.396H0V6.375h2.615v-2.38C2.615 1.407 4.237 0 6.607 0 7.742 0 8.717.083 9 .12v2.702H7.357c-1.289 0-1.538.598-1.538 1.471v2.082h2.908l-.399 3.021H5.82V17" fill-rule="nonzero"></path>
		</symbol>
	
		<symbol id="file_icon" viewBox="0 0 30 38">
			<defs><path id="180a" d="M23.34 0L30 6.66v31.08H0V0zM2.9 34.84h24.2V9.68h-6.78V2.9H2.9zM23.23 6.77H26L23.23 4z"></path></defs><use xlink:href="#180a"></use>
		</symbol>
	
		<symbol id="grid-three-up" viewBox="0 0 8 8">
			<path d="M0 0v2h2V0H0zm3 0v2h2V0H3zm3 0v2h2V0H6zM0 3v2h2V3H0zm3 0v2h2V3H3zm3 0v2h2V3H6zM0 6v2h2V6H0zm3 0v2h2V6H3zm3 0v2h2V6H6z"></path>
		</symbol>
	
		<symbol id="heart" viewBox="0 0 8 7">
			<defs><path id="200a" d="M2 0a2.01 2.01 0 0 0-2 2c0 .55.23 1.04.59 1.41L4 6.82l3.41-3.41a1.98 1.98 0 0 0 0-2.82 1.98 1.98 0 0 0-2.82 0C4.23.95 4 1.44 4 2a2.01 2.01 0 0 0-2-2z"></path></defs><use xlink:href="#200a"></use>
		</symbol>
	
		<symbol id="icon-diameter" viewBox="0 0 15 15">
			<title>Group</title><g fill-rule="nonzero"><path d="M7.314 14.179a6.864 6.864 0 1 1 0-13.729 6.864 6.864 0 0 1 0 13.729zm0-1.35a5.514 5.514 0 1 0 0-11.029 5.514 5.514 0 0 0 0 11.028z"></path><path d="M12.917.87l.955.954L1.937 13.76l-.955-.955z"></path></g>
		</symbol>
	
		<symbol id="icon-fixer" viewBox="0 0 15 15">
			<title>Group 2</title><g fill-rule="nonzero"><path d="M13.09 1.355l.955.955L2.109 14.245l-.954-.955z"></path><path d="M10.522 1.54l.955-.956 3.338 3.339-.955.955zM.384 11.677l.955-.955 3.339 3.339-.955.955zM1.155 2.31l.954-.955L14.045 13.29l-.955.955z"></path></g>
		</symbol>
	
		<symbol id="icon-height" viewBox="0 0 9 18">
			<title>download-arrow copy</title><path d="M3.732 7.458a.636.636 0 0 1-.002-.044V2.126L1.114 4.742a.611.611 0 0 1-.872 0 .626.626 0 0 1 0-.872L3.896.215a.628.628 0 0 1 .89 0L8.438 3.87a.611.611 0 0 1 0 .872.611.611 0 0 1-.872 0L4.96 2.125v4.441l.001.044V15.9l2.617-2.616a.611.611 0 0 1 .872 0 .626.626 0 0 1 0 .872l-3.654 3.654a.628.628 0 0 1-.89 0L.252 14.155a.611.611 0 0 1 0-.872.611.611 0 0 1 .872 0l2.608 2.616V7.458z" fill-rule="evenodd"></path>
		</symbol>
	
		<symbol id="icon-season" viewBox="0 0 19 19">
			<title>sun</title><g fill-rule="evenodd"><path d="M9.46 14.005a4.531 4.531 0 0 0 4.529-4.528 4.542 4.542 0 0 0-4.528-4.528 4.542 4.542 0 0 0-4.528 4.528 4.531 4.531 0 0 0 4.528 4.528zm0-7.746a3.216 3.216 0 0 1 3.219 3.218 3.216 3.216 0 0 1-3.218 3.218 3.216 3.216 0 0 1-3.219-3.218 3.216 3.216 0 0 1 3.219-3.218z" fill-rule="nonzero"></path><path d="M10.124 2.846V.76A.656.656 0 0 0 9.46.097a.656.656 0 0 0-.663.663v2.086c0 .372.29.663.663.663a.656.656 0 0 0 .663-.663zM8.798 16.108v2.086c0 .372.29.663.663.663a.656.656 0 0 0 .663-.663v-2.086a.656.656 0 0 0-.663-.664.656.656 0 0 0-.663.664zM14.62 5.256l1.471-1.472a.664.664 0 0 0-.938-.938l-1.471 1.472a.664.664 0 0 0 .938.938zM2.83 16.108c.13.129.291.194.47.194.16 0 .339-.065.468-.194l1.472-1.472a.664.664 0 0 0-.938-.938L2.83 15.17a.664.664 0 0 0 0 .938zM18.84 9.477a.656.656 0 0 0-.662-.663H16.09a.656.656 0 0 0-.663.663c0 .372.291.663.663.663h2.087a.666.666 0 0 0 .663-.663zM.744 10.14H2.83a.656.656 0 0 0 .663-.663.656.656 0 0 0-.663-.663H.744a.656.656 0 0 0-.663.663c0 .372.307.663.663.663zM15.622 16.302a.664.664 0 0 0 .469-1.132l-1.471-1.472a.664.664 0 0 0-.938.938l1.471 1.472c.13.129.308.194.47.194zM5.24 5.256a.664.664 0 0 0 0-.938L3.768 2.846a.664.664 0 0 0-.938.938l1.472 1.472c.13.13.29.194.469.194.178 0 .34-.065.469-.194z"></path></g>
		</symbol>
	
		<symbol id="icon-width" viewBox="0 0 23 10">
			<title>download-arrow</title><path d="M11.042 4.232a.636.636 0 0 1 .044-.002h9.288l-2.616-2.616a.611.611 0 0 1 0-.872.626.626 0 0 1 .872 0l3.655 3.654a.628.628 0 0 1 0 .89L18.63 8.938a.611.611 0 0 1-.872 0 .611.611 0 0 1 0-.872l2.617-2.607h-8.441a.636.636 0 0 1-.044.001H2.6l2.616 2.617a.611.611 0 0 1 0 .872.626.626 0 0 1-.872 0L.691 5.296a.628.628 0 0 1 0-.89L4.345.752a.611.611 0 0 1 .872 0 .611.611 0 0 1 0 .872L2.601 4.232h8.441z" fill-rule="evenodd"></path>
		</symbol>
	
		<symbol id="insta" viewBox="0 0 16 16">
			<title>ista</title><path d="M8.002 3.898A4.095 4.095 0 0 0 3.9 8 4.095 4.095 0 0 0 8 12.102 4.095 4.095 0 0 0 12.104 8a4.095 4.095 0 0 0-4.101-4.102zm0 6.769A2.672 2.672 0 0 1 5.335 8a2.67 2.67 0 0 1 2.667-2.667A2.67 2.67 0 0 1 10.668 8c0 1.47-1.2 2.667-2.666 2.667zm5.225-6.937a.954.954 0 0 1-.956.957.957.957 0 1 1 .957-.957zm2.717.971c-.06-1.282-.354-2.417-1.292-3.352C13.716.413 12.582.12 11.3.056c-1.32-.075-5.28-.075-6.6 0-1.278.06-2.413.354-3.352 1.29C.41 2.28.12 3.415.056 4.697c-.075 1.32-.075 5.28 0 6.6.06 1.283.354 2.418 1.292 3.353.94.936 2.07 1.229 3.352 1.293 1.32.075 5.28.075 6.6 0 1.281-.06 2.416-.354 3.352-1.293.935-.935 1.228-2.07 1.292-3.352.075-1.321.075-5.277 0-6.598zm-1.706 8.015a2.7 2.7 0 0 1-1.521 1.521c-1.053.418-3.552.322-4.715.322-1.164 0-3.666.092-4.715-.322a2.7 2.7 0 0 1-1.521-1.52C1.348 11.662 1.445 9.163 1.445 8c0-1.164-.093-3.667.321-4.716a2.7 2.7 0 0 1 1.52-1.521c1.054-.418 3.552-.322 4.716-.322 1.163 0 3.666-.092 4.715.322a2.7 2.7 0 0 1 1.52 1.52c.418 1.054.322 3.553.322 4.717 0 1.164.096 3.667-.321 4.716z" fill-rule="nonzero"></path>
		</symbol>
	
		<symbol id="list" viewBox="0 0 8 8">
			<path d="M.5 0C.22 0 0 .22 0 .5s.22.5.5.5.5-.22.5-.5S.78 0 .5 0zM2 0v1h6V0H2zM.5 2c-.28 0-.5.22-.5.5s.22.5.5.5.5-.22.5-.5S.78 2 .5 2zM2 2v1h6V2H2zM.5 4c-.28 0-.5.22-.5.5s.22.5.5.5.5-.22.5-.5S.78 4 .5 4zM2 4v1h6V4H2zM.5 6c-.28 0-.5.22-.5.5s.22.5.5.5.5-.22.5-.5S.78 6 .5 6zM2 6v1h6V6H2z"></path>
		</symbol>
	
		<symbol id="location_pin" viewBox="0 0 6 8">
			<defs><path id="280a" d="M6 3c0 2-3 5-3 5S0 5 0 3a3 3 0 1 1 6 0zM1 3a2 2 0 1 0 4 0 2 2 0 0 0-4 0z"></path></defs><use xlink:href="#280a"></use>
		</symbol>
	
		<symbol id="menu-burger" viewBox="0 0 8 7">
			<title>menu copy</title><path d="M0 0v1h8V0H0zm0 2.97v1h8v-1H0zm0 3v1h8v-1H0z" fill-rule="nonzero"></path>
		</symbol>
	
		<symbol id="message" viewBox="0 0 512 480">
			<title>check message</title><g fill-rule="nonzero"><path d="M511.609 181.601c-.001-.77-.173-1.933-.472-2.603a13.069 13.069 0 0 0-5.154-7.281l-73.292-50.948V66.153c0-7.24-5.872-13.112-13.112-13.112H335.26L263.517 3.163a13.104 13.104 0 0 0-14.935-.026l-72.206 49.904h-83.95c-7.242 0-13.112 5.872-13.112 13.112v53.973L5.666 171.027c-3.623 2.504-5.583 6.507-5.645 10.6-.004.077-.021.15-.021.23l.391 284.235a13.118 13.118 0 0 0 3.852 9.266 13.114 13.114 0 0 0 9.26 3.827h.018l485.385-.667c7.24-.01 13.104-5.889 13.094-13.13l-.391-283.787zm-78.919-28.893l41.898 29.118-41.898 29.128v-58.246zM256.015 29.884l33.31 23.156h-66.812l33.502-23.156zM105.538 79.265h300.928v149.921L305.43 299.428l-41.194-31.954c-.064-.05-.119-.081-.181-.126-4.604-3.454-11.116-3.581-15.894.126l-41.493 32.185-101.13-69.893V79.265zm-26.224 72.738v59.64l-43.146-29.819 43.146-29.821zm-53.056 54.864l158.669 109.655L26.578 439.346l-.32-232.479zm25.617 246.042l204.324-158.484L459.79 452.348l-407.915.561zm275.269-136.638L485.42 206.235l.32 233.059-158.596-123.023z"></path><path d="M344.77 131.713H167.234c-7.24 0-13.112 5.872-13.112 13.112s5.872 13.112 13.112 13.112H344.77c7.242 0 13.112-5.872 13.112-13.112s-5.87-13.112-13.112-13.112zM344.77 199.895H167.234c-7.24 0-13.112 5.872-13.112 13.112s5.872 13.112 13.112 13.112H344.77c7.242 0 13.112-5.872 13.112-13.112s-5.87-13.112-13.112-13.112z"></path></g>
		</symbol>
	
		<symbol id="new-cart" viewBox="0 0 16 16">
			<title>shopping-cart</title><g fill-rule="evenodd"><path d="M15.256 3.845c-.29-.353-.721-.605-1.176-.605H2.587L2.007.895C1.875.349 1.327.036.78.17a1.03 1.03 0 0 0-.75 1.24l2.068 9.037c.142.711.766 1.274 1.492 1.274h9.441c.725 0 1.35-.56 1.491-1.27l1.05-5.295a1.627 1.627 0 0 0-.315-1.311z"></path><circle cx="5.202" cy="14.071" r="1.391"></circle><circle cx="11.527" cy="14.071" r="1.391"></circle></g>
		</symbol>
	
		<symbol id="new-phone" viewBox="0 0 16 16">
			<title>incoming-call</title><g transform="rotate(-45 5.613 4.284)" fill-rule="evenodd"><path d="M4.513 8.732c0-1.025.094-2.013.279-2.94h2.324V0H4.124C2.952.047 1.888 1.024 1.128 2.753.422 4.36.033 6.473.033 8.707c0 2.259.397 4.391 1.118 6.003.78 1.743 1.866 2.703 3.058 2.703h2.907v-5.791H4.782a15.095 15.095 0 0 1-.269-2.89z"></path><path d="M11.145 6.938V4.952L5.93 8.707l5.215 3.754v-1.986h2.698V6.938z"></path></g>
		</symbol>
	
		<symbol id="new-search" viewBox="0 0 19 19">
			<title>magnifying-glass</title><path d="M18.572 17.467l-4.52-4.52A7.926 7.926 0 0 0 7.924 0a7.924 7.924 0 1 0 0 15.848 7.882 7.882 0 0 0 5.02-1.792l4.52 4.516a.783.783 0 0 0 1.108-1.105zM7.924 14.271a6.355 6.355 0 0 1-6.35-6.347c0-3.5 2.847-6.35 6.35-6.35a6.36 6.36 0 0 1 6.35 6.35c0 3.5-2.85 6.347-6.35 6.347z" fill-rule="nonzero"></path>
		</symbol>
	
		<symbol id="no_photo" viewBox="0 0 8 8">
			<defs><path id="340a" d="M8 0v8H0V0zM1 4l1-1 4 4h1V6L5 4l1-1 1 1V1H1z"></path></defs><use xlink:href="#340a"></use>
		</symbol>
	
		<symbol id="ok" viewBox="0 0 11 17">
			<title>ok</title><path d="M9.61 11.086c-.98.578-2.326.807-3.215.893l.746.684 2.726 2.533c.996.949-.625 2.433-1.633 1.517-.682-.644-1.682-1.574-2.725-2.543l-2.725 2.54c-1.007.912-2.629-.585-1.622-1.518.693-.644 1.683-1.573 2.726-2.532l.735-.684c-.878-.086-2.246-.302-3.236-.893C.223 10.386-.288 9.978.162 9.125c.265-.485.99-.893 1.95-.19 0 0 1.297.96 3.39.96s3.39-.96 3.39-.96c.96-.7 1.682-.295 1.95.19.443.853-.068 1.261-1.232 1.961zM.866 4.306C.866 1.925 2.948 0 5.498 0s4.633 1.925 4.633 4.305c0 2.37-2.082 4.295-4.633 4.295C2.948 8.6.866 6.675.866 4.305zm2.357 0c0 1.164 1.022 2.113 2.275 2.113 1.254 0 2.276-.949 2.276-2.114 0-1.175-1.022-2.124-2.276-2.124-1.253 0-2.275.95-2.275 2.124z" fill-rule="nonzero"></path>
		</symbol>
	
		<symbol id="ones" viewBox="0 0 23 23">
			<defs><clipPath id="a"><path d="M.01 0h22.803v22.803H.01z"></path></clipPath></defs><g clip-path="url(#a)"><path d="M19.474 3.34a11.327 11.327 0 0 1 3.339 8.061v.023a11.326 11.326 0 0 1-3.34 8.04 11.327 11.327 0 0 1-8.058 3.339h-.01a11.327 11.327 0 0 1-8.056-3.34A11.327 11.327 0 0 1 .01 11.402v-.022a11.326 11.326 0 0 1 3.34-8.04A11.327 11.327 0 0 1 11.41 0c3.046 0 5.91 1.186 8.063 3.34m.652 9.076a.668.668 0 0 1 .298-.896l1.054-.527a9.992 9.992 0 0 0-.838-3.63l-.248.375a.668.668 0 1 1-1.115-.736l.647-.98a10.148 10.148 0 0 0-2.54-2.723l-.027.444a.668.668 0 0 1-1.334-.08l.07-1.173a9.996 9.996 0 0 0-3.564-1.092l.201.402a.668.668 0 1 1-1.195.598l-.527-1.053a10.004 10.004 0 0 0-3.632.838l.375.247a.668.668 0 1 1-.736 1.115l-.98-.647a10.15 10.15 0 0 0-2.725 2.54l.444.026a.668.668 0 1 1-.08 1.334L2.5 6.728a9.982 9.982 0 0 0-1.092 3.562l.402-.202a.669.669 0 0 1 .598 1.195l-1.053.527a9.992 9.992 0 0 0 .838 3.63l.248-.375a.669.669 0 0 1 1.115.736l-.647.98a10.148 10.148 0 0 0 2.54 2.723l.027-.444a.67.67 0 0 1 1.334.08l-.07 1.173a9.996 9.996 0 0 0 3.564 1.092l-.202-.402a.668.668 0 1 1 1.196-.598l.527 1.053a10.006 10.006 0 0 0 3.632-.838l-.375-.247a.668.668 0 1 1 .736-1.115l.98.647a10.151 10.151 0 0 0 2.725-2.539l-.445-.027a.668.668 0 1 1 .08-1.333l1.175.07a9.984 9.984 0 0 0 1.092-3.563l-.403.202a.666.666 0 0 1-.896-.299"></path></g><g><path d="M11.418 4.29a7.116 7.116 0 0 1 7.108 7.108 7.116 7.116 0 0 1-7.108 7.108 7.116 7.116 0 0 1-7.108-7.108 7.116 7.116 0 0 1 7.108-7.108zm.663 4.366c.53.13 1 .407 1.366.788l2.602-1.496a5.79 5.79 0 0 0-3.968-2.283zm-1.326-2.991a5.79 5.79 0 0 0-3.968 2.283L9.39 9.444c.365-.38.837-.659 1.366-.788zm-2.032 6.522a2.798 2.798 0 0 1 0-1.577L6.12 9.11a5.726 5.726 0 0 0-.475 2.288c0 .813.17 1.586.475 2.288zm2.032 1.945a2.82 2.82 0 0 1-1.366-.79l-2.602 1.5a5.787 5.787 0 0 0 3.968 2.29zm-.82-2.734a1.482 1.482 0 0 0 2.966 0 1.482 1.482 0 0 0-2.966 0zm2.146 5.733a5.786 5.786 0 0 0 3.968-2.289l-2.602-1.5a2.82 2.82 0 0 1-1.366.79zm5.11-5.733a5.73 5.73 0 0 0-.475-2.288l-2.603 1.5a2.799 2.799 0 0 1 0 1.576l2.603 1.5a5.726 5.726 0 0 0 .475-2.288z"></path></g>
		</symbol>
	
		<symbol id="path" viewBox="0 0 57 15">
			<title>Path</title><path d="M5.2 12.29c5.527-4.907 9.893-8.786 21.738-1.867 5.69 3.323 10.28 4.578 14.101 4.577 6.69 0 11.025-3.848 14.774-7.178 1.337-1.187 1.51-3.293.384-4.705-1.125-1.412-3.12-1.595-4.457-.406-5.526 4.908-9.892 8.786-21.74 1.866-15.652-9.14-22.983-2.63-28.873 2.6-1.336 1.188-1.51 3.294-.384 4.706 1.124 1.412 3.12 1.594 4.457.407z" fill-rule="evenodd"></path>
		</symbol>
	
		<symbol id="phone" viewBox="0 0 435 435">
			<defs><path id="380a" d="M365.35 271.76c-15.7-15.5-35.3-15.5-50.9 0-11.9 11.8-23.8 23.6-35.5 35.6-3.2 3.3-5.9 4-9.8 1.8-7.7-4.2-15.9-7.6-23.3-12.2-34.5-21.7-63.4-49.6-89-81-12.7-15.6-24-32.3-31.9-51.1-1.6-3.8-1.3-6.3 1.8-9.4 11.9-11.5 23.5-23.3 35.2-35.1 16.3-16.4 16.3-35.6-.1-52.1-9.3-9.4-18.6-18.6-27.9-28-9.6-9.6-19.1-19.3-28.8-28.8-15.7-15.3-35.3-15.3-50.9.1-12 11.8-23.5 23.9-35.7 35.5-11.3 10.7-17 23.8-18.2 39.1-1.9 24.9 4.2 48.4 12.8 71.3 17.6 47.4 44.4 89.5 76.9 128.1 43.9 52.2 96.3 93.5 157.6 123.3 27.6 13.4 56.2 23.7 87.3 25.4 21.4 1.2 40-4.2 54.9-20.9 10.2-11.4 21.7-21.8 32.5-32.7 16-16.2 16.1-35.8.2-51.8-19-19.1-38.1-38.1-57.2-57.1z"></path></defs><use xlink:href="#380a"></use>
		</symbol>
	
		<symbol id="ps" viewBox="0 0 89 18">
			<title>ps_logo</title><g fill-rule="nonzero"><path d="M21.124 4.001h-2.39a.702.702 0 0 0-.517.184.67.67 0 0 0-.217.494v7.643c0 .375.31.678.693.678a.685.685 0 0 0 .692-.678v-2.71h1.843a2.841 2.841 0 0 0 1.999-.856c.521-.537.8-1.257.771-1.997a2.756 2.756 0 0 0-.853-1.961A2.88 2.88 0 0 0 21.124 4zm1.53 2.792c.005.784-.626 1.43-1.426 1.464h-1.87v-2.92h1.87c.393-.014.773.138 1.045.416.273.278.411.656.381 1.04zM29.403 11.636h-3.16v-6.96c0-.374-.278-.676-.621-.676-.344 0-.622.302-.622.675v7.427c0 .574.274.898.74.898h3.638c.344 0 .622-.302.622-.675 0-.373-.278-.675-.622-.675l.025-.014zM45.28 10.833a.596.596 0 0 0-.438.188 2.798 2.798 0 0 1-1.853.688c-1.737 0-2.644-1.616-2.644-3.244 0-1.63.823-3.128 2.631-3.128a2.912 2.912 0 0 1 1.879.649.781.781 0 0 0 .502.201c.355 0 .643-.29.643-.649a.735.735 0 0 0-.283-.57A4.09 4.09 0 0 0 43.02 4C40.383 4 39 6.297 39 8.542 39 10.69 40.235 13 42.95 13a4.275 4.275 0 0 0 2.722-.973.756.756 0 0 0 .238-.584.606.606 0 0 0-.184-.443.595.595 0 0 0-.447-.167zM52.23 11.67h-3.839V9.03h3.172a.647.647 0 0 0 .522-.174.598.598 0 0 0 .181-.504.612.612 0 0 0-.187-.498.66.66 0 0 0-.516-.18H48.39V5.36h3.748a.647.647 0 0 0 .523-.174.598.598 0 0 0 .18-.504.605.605 0 0 0-.183-.501.654.654 0 0 0-.52-.178h-4.387a.717.717 0 0 0-.562.213.663.663 0 0 0-.184.554v7.463c0 .496.12.767.746.767h4.479c.478 0 .766-.244.766-.678.021-.157-.07-.652-.766-.652zM57.946 8.16c-.19-.085-.375-.17-.552-.26l-.348-.177c-.785-.392-1.529-.758-1.529-1.241.03-.64.58-1.144 1.249-1.143.639.003 1.258.21 1.76.588l.062.039c.148.114.328.184.518.202.377 0 .682-.292.682-.653a.94.94 0 0 0-.43-.699A4.329 4.329 0 0 0 56.972 4c-1.706 0-2.893 1.038-2.893 2.528 0 1.306 1.364 1.959 2.579 2.547.19.091.389.176.586.26.833.347 1.365.595 1.365 1.307s-.546 1.025-1.951 1.025a2.984 2.984 0 0 1-1.426-.385 1.048 1.048 0 0 0-.546-.17.611.611 0 0 0-.498.148.555.555 0 0 0-.184.466.8.8 0 0 0 .43.686 4.09 4.09 0 0 0 2.155.588C58.806 13 60 12.138 60 10.577s-1.085-1.98-2.054-2.417zM67.307 4.005h-5.635a.62.62 0 0 0-.49.182.633.633 0 0 0-.18.494.633.633 0 0 0 .18.495.62.62 0 0 0 .49.182h2.15v6.91a.68.68 0 0 0 .177.513.667.667 0 0 0 .494.217c.191.015.379-.06.51-.202a.64.64 0 0 0 .16-.529v-6.93h2.164a.606.606 0 0 0 .494-.176.62.62 0 0 0 .176-.5.626.626 0 0 0-.193-.492.613.613 0 0 0-.497-.164zM73.882 11.998l-2.615-7.326A.907.907 0 0 0 70.401 4a.907.907 0 0 0-.866.672l-2.47 7.34c-.036.097-.056.2-.06.304a.608.608 0 0 0 .145.482c.115.13.28.201.45.194a.764.764 0 0 0 .726-.602l.653-1.852h2.955l.797 2.028a.653.653 0 0 0 .654.433.578.578 0 0 0 .443-.178.62.62 0 0 0 .171-.458.913.913 0 0 0-.117-.365zm-2.4-2.811h-2.13l1.079-3.035 1.052 3.035zM80.335 9.296a2.757 2.757 0 0 0 1.594-3.145c-.3-1.287-1.484-2.187-2.828-2.15h-2.184c-.634 0-.917.318-.917 1.023v7.21c0 .678.476.766.69.766.42 0 .688-.284.688-.765V9.56h1.537l1.799 3.054a.69.69 0 0 0 .62.366.605.605 0 0 0 .455-.174.583.583 0 0 0 .172-.45 1.155 1.155 0 0 0-.138-.52l-1.488-2.54zm.29-2.512c.014.384-.13.758-.4 1.036a1.46 1.46 0 0 1-1.034.44h-1.847V5.335h1.847c.388-.002.761.151 1.033.424.271.274.418.643.407 1.025h-.007zM88.313 4.004h-5.641a.62.62 0 0 0-.49.182.633.633 0 0 0-.18.495.633.633 0 0 0 .18.494.62.62 0 0 0 .49.182h2.15v6.91a.681.681 0 0 0 .177.514.667.667 0 0 0 .494.217c.191.015.379-.06.51-.202a.64.64 0 0 0 .16-.529v-6.93h2.164a.606.606 0 0 0 .494-.177.62.62 0 0 0 .176-.5.626.626 0 0 0-.19-.489.613.613 0 0 0-.494-.167zM37.895 11.998L35.28 4.672A.907.907 0 0 0 34.414 4a.907.907 0 0 0-.866.672l-2.484 7.34a1.01 1.01 0 0 0-.059.304.608.608 0 0 0 .145.482c.115.13.28.201.45.194a.758.758 0 0 0 .726-.602l.653-1.852h2.955l.797 2.028a.653.653 0 0 0 .654.433.578.578 0 0 0 .443-.178.62.62 0 0 0 .171-.458.915.915 0 0 0-.104-.365zM35.496 9.18h-2.124l1.078-3.048 1.046 3.048zM11.87 2.129A6.827 6.827 0 0 0 7 0h-.06C3.136.017.05 3.137 0 7.014v9.819a.727.727 0 0 0 .231.546c.277.267.71.267.986 0l3.53-3.531c.701.167 1.414.277 2.131.329h.061c3.799-.063 6.865-3.185 6.933-7.058a7.067 7.067 0 0 0-2.002-4.99zM6.945 13.034H6.89a13.153 13.153 0 0 1-2.093-.34.703.703 0 0 0-.652.192l-3.08 3.103V7.02c.047-3.28 2.658-5.917 5.874-5.934h.037a5.778 5.778 0 0 1 4.133 1.806 5.977 5.977 0 0 1 1.674 4.221c-.084 3.246-2.654 5.853-5.838 5.921z"></path><path d="M8.418 4.345a.531.531 0 0 0-.626.259.554.554 0 0 0 .121.678A2.082 2.082 0 0 1 8.92 7.574a2.037 2.037 0 0 1-1.906 1.591 2.03 2.03 0 0 1-2.004-1.46 2.087 2.087 0 0 1 .858-2.355.55.55 0 0 0-.037-.946.527.527 0 0 0-.535.022c-1.19.75-1.74 2.221-1.34 3.589.399 1.367 1.648 2.292 3.047 2.256 1.4-.036 2.601-1.024 2.932-2.41.331-1.387-.29-2.828-1.517-3.516z"></path><path d="M6.872 3.557a.53.53 0 0 0-.379.16.552.552 0 0 0-.156.386v2.321c0 .302.24.546.535.546a.541.541 0 0 0 .536-.546V4.103a.541.541 0 0 0-.536-.546z"></path></g>
		</symbol>
	
		<symbol id="search" viewBox="0 0 9 9">
			<defs><path id="400a" d="M7 3.5c0 .61-.17 1.19-.44 1.69a1 1 0 0 1 .13.09l1.03 1a1.02 1.02 0 1 1-1.44 1.44l-1-1.03a1 1 0 0 1-.09-.13A3.5 3.5 0 1 1 7 3.5zM3.5.99A2.49 2.49 0 0 0 1 3.49c0 1.39 1.11 2.5 2.5 2.5.62 0 1.19-.22 1.63-.59a1 1 0 0 1 .25-.28 1 1 0 0 1 .06-.03l.03-.03C5.8 4.64 6 4.09 6 3.5 6 2.11 4.89 1 3.5 1z"></path></defs><use xlink:href="#400a"></use>
		</symbol>
	
		<symbol id="settings" viewBox="0 0 23 23">
			<path fill-rule="evenodd" clip-rule="evenodd" d="M20.196 8.806l1.613.274a1.401 1.401 0 0 1 1.177 1.402v2.022c0 .696-.5 1.286-1.186 1.402l-1.614.269a9.04 9.04 0 0 1-.648 1.565l.95 1.335c.404.566.337 1.34-.153 1.83l-1.43 1.43a1.41 1.41 0 0 1-1.004.418 1.41 1.41 0 0 1-.826-.264l-1.33-.951c-.5.264-1.023.48-1.566.648l-.273 1.614a1.418 1.418 0 0 1-1.402 1.186h-2.027c-.696 0-1.287-.5-1.402-1.186l-.269-1.614a9.094 9.094 0 0 1-1.517-.624l-1.35.96a1.41 1.41 0 0 1-1.825-.154l-1.43-1.43a1.416 1.416 0 0 1-.154-1.83l.946-1.315a8.883 8.883 0 0 1-.657-1.56l-1.633-.28A1.418 1.418 0 0 1 0 12.553V10.53c0-.696.5-1.287 1.186-1.402l1.594-.269a8.898 8.898 0 0 1 .639-1.57l-.96-1.35a1.421 1.421 0 0 1 .153-1.829l1.436-1.43a1.401 1.401 0 0 1 1.003-.418c.298 0 .586.09.826.264l1.32.95c.5-.268 1.023-.49 1.561-.657l.279-1.633A1.418 1.418 0 0 1 10.439 0h2.021c.697 0 1.287.5 1.402 1.186l.27 1.594a9.016 9.016 0 0 1 1.622.668l1.335-.951a1.41 1.41 0 0 1 1.825.154l1.43 1.43c.495.49.558 1.263.154 1.83l-.95 1.33c.264.5.48 1.023.648 1.565zm1.397 3.822a.124.124 0 0 0 .106-.124h.005v-2.022a.124.124 0 0 0-.106-.125l-2.017-.34a.637.637 0 0 1-.518-.476 7.682 7.682 0 0 0-.836-2.012c-.13-.22-.12-.5.029-.706l1.186-1.666a.13.13 0 0 0-.014-.163l-1.431-1.431a.129.129 0 0 0-.092-.039.143.143 0 0 0-.072.024L16.177 4.74a.65.65 0 0 1-.706.03 7.794 7.794 0 0 0-2.06-.846.65.65 0 0 1-.48-.523l-.336-2.003a.124.124 0 0 0-.125-.105h-2.022a.124.124 0 0 0-.124.105l-.346 2.031a.658.658 0 0 1-.475.519 7.614 7.614 0 0 0-2.008.845c-.22.13-.499.12-.71-.029l-1.657-1.18a.118.118 0 0 0-.072-.025.122.122 0 0 0-.091.038L3.534 5.027a.13.13 0 0 0-.014.164l1.195 1.68c.15.207.163.48.034.701a7.679 7.679 0 0 0-.821 2.017.65.65 0 0 1-.524.48l-2.002.336a.124.124 0 0 0-.106.125v2.022c0 .062.044.115.106.125l2.031.345c.25.043.452.23.519.476.182.705.47 1.382.845 2.007.13.22.12.499-.029.71l-1.181 1.657a.13.13 0 0 0 .014.163l1.431 1.431a.129.129 0 0 0 .091.038c.024 0 .048-.01.072-.024l1.681-1.195a.633.633 0 0 1 .375-.12c.11 0 .225.029.326.086.62.355 1.282.63 1.969.807a.645.645 0 0 1 .475.518l.336 2.017c.01.063.063.106.125.106h2.022a.124.124 0 0 0 .124-.106l.341-2.017a.637.637 0 0 1 .476-.518 7.69 7.69 0 0 0 2.012-.836c.22-.13.499-.12.705.03l1.667 1.185c.019.015.043.024.072.024a.122.122 0 0 0 .09-.038l1.432-1.431a.13.13 0 0 0 .014-.163l-1.186-1.671a.65.65 0 0 1-.029-.706 7.681 7.681 0 0 0 .836-2.012.645.645 0 0 1 .518-.475l2.017-.337z"></path><path fill-rule="evenodd" clip-rule="evenodd" d="M6.535 11.49a4.963 4.963 0 0 1 4.96-4.96 4.963 4.963 0 0 1 4.96 4.96 4.963 4.963 0 0 1-4.96 4.96 4.963 4.963 0 0 1-4.96-4.96zm1.296 0a3.666 3.666 0 0 0 3.664 3.664 3.666 3.666 0 0 0 3.664-3.664 3.666 3.666 0 0 0-3.664-3.663 3.666 3.666 0 0 0-3.664 3.663z"></path>
		</symbol>
	
		<symbol id="slider-arrow" viewBox="0 0 7 12">
			<title>Chevron_Right</title><path d="M.172 6.12l5.138 5.137c.226.224.59.224.817 0a.576.576 0 0 0 0-.815l-4.73-4.73L6.127.985A.576.576 0 1 0 5.31.17L.172 5.305a.582.582 0 0 0 0 .815z" fill-rule="evenodd"></path>
		</symbol>
	
		<symbol id="small_arrow" viewBox="0 0 6 9">
			<title>arrow slider</title><path d="M4.364 0L0 4.364l4.364 4.363L6 7.091 3.273 4.364 6 1.636z" fill-rule="nonzero"></path>
		</symbol>
	
		<symbol id="trade-in" viewBox="0 0 32 32">
			<title>trade-in</title><path d="M31 15.529v-.03c0-4.14-1.613-8.032-4.54-10.96A15.399 15.399 0 0 0 15.5 0C11.36 0 7.467 1.612 4.54 4.54A15.398 15.398 0 0 0 0 15.47v.03c0 4.14 1.612 8.032 4.54 10.96A15.398 15.398 0 0 0 15.49 31h.014a15.399 15.399 0 0 0 10.955-4.54c2.92-2.92 4.531-6.8 4.54-10.93v-.001zM22.812 27.06l-1.332-.88a.908.908 0 0 0-1.001 1.516l.51.337a13.59 13.59 0 0 1-4.935 1.138l-.716-1.431a.908.908 0 0 0-1.625.812l.274.548a13.577 13.577 0 0 1-4.843-1.485l.096-1.595a.908.908 0 1 0-1.813-.109l-.037.604a13.794 13.794 0 0 1-3.451-3.701l.88-1.333a.908.908 0 1 0-1.516-1l-.337.509a13.59 13.59 0 0 1-1.139-4.935l1.432-.716a.908.908 0 0 0-.813-1.624l-.547.274a13.577 13.577 0 0 1 1.484-4.844l1.596.096a.908.908 0 0 0 .109-1.813l-.604-.036A13.794 13.794 0 0 1 8.186 3.94l1.333.88a.907.907 0 0 0 1-1.516l-.509-.337a13.588 13.588 0 0 1 4.934-1.138l.716 1.431a.908.908 0 1 0 1.625-.813l-.274-.547c1.732.191 3.367.707 4.844 1.485l-.096 1.595a.908.908 0 0 0 1.813.109l.036-.604a13.793 13.793 0 0 1 3.452 3.702l-.88 1.332a.908.908 0 1 0 1.516 1.001l.337-.51a13.592 13.592 0 0 1 1.138 4.935l-1.431.716a.908.908 0 1 0 .812 1.624l.547-.273a13.578 13.578 0 0 1-1.484 4.843l-1.595-.096a.909.909 0 0 0-.11 1.813l.605.036a13.794 13.794 0 0 1-3.702 3.452z"></path><path fill-rule="evenodd" clip-rule="evenodd" d="M15.47 23.674a8.265 8.265 0 1 0 0-16.53 8.265 8.265 0 0 0 0 16.53zm0 1.695c5.5 0 9.96-4.46 9.96-9.96 0-5.5-4.46-9.96-9.96-9.96-5.501 0-9.96 4.46-9.96 9.96 0 5.5 4.459 9.96 9.96 9.96z"></path><path d="M11.81 12.17c-.15.21-.254.248-.254.07v-.322c0-.461-.349-.835-.778-.835-.43 0-.778.374-.778.835v2.866c0 .461.348.836.778.836h2.666c.43 0 .778-.374.778-.836 0-.462-.348-.836-.777-.836h-.288c-.159 0-.204-.195-.069-.415.612-1 1.66-1.623 2.793-1.623 1.843 0 3.341 1.61 3.341 3.59 0 1.98-1.498 3.59-3.34 3.59-.492 0-.89.427-.89.955 0 .527.398.955.89.955C18.703 21 21 18.533 21 15.5S18.704 10 15.881 10c-1.613 0-3.115.824-4.071 2.17z"></path>
		</symbol>
	
		<symbol id="trash-icon" viewBox="0 0 19 20">
			<defs><path id="450a" d="M1199.8 410.72l-1.52-.06-.33 9.03 1.52.05z"></path><path id="451b" d="M1195.33 419.72v-9.03h1.53v9.03z"></path><path id="452c" d="M1194.23 419.69l-.33-9.03-1.52.06.33 9.02z"></path><path id="453d" d="M1200.83 421.95h-9.51l-1.19-13.5h11.89zM1187 406.92v1.53h1.59l1.26 14.33c.04.39.36.7.76.7h10.9c.4 0 .73-.31.77-.7l1.26-14.33h1.61v-1.53z"></path><path id="454e" d="M1198.58 404h-4.98c-.7 0-1.27.57-1.27 1.27v2.42h1.53v-2.16h4.47v2.16h1.53v-2.42c0-.7-.57-1.27-1.28-1.27z"></path></defs><g transform="translate(-1187 -404)"><use xlink:href="#450a"></use><use xlink:href="#451b"></use><use xlink:href="#452c"></use><use xlink:href="#453d"></use><use xlink:href="#454e"></use></g>
		</symbol>
	
		<symbol id="twice" viewBox="0 0 37 23">
			<defs><clipPath id="a"><path d="M14.07 0h22.803v22.803H14.07z"></path></clipPath></defs><g clip-path="url(#a)"><path d="M33.533 3.34a11.327 11.327 0 0 1 3.34 8.061v.023a11.326 11.326 0 0 1-3.34 8.04 11.327 11.327 0 0 1-8.058 3.339h-.01a11.327 11.327 0 0 1-8.056-3.34 11.327 11.327 0 0 1-3.339-8.062v-.022a11.326 11.326 0 0 1 3.34-8.04A11.327 11.327 0 0 1 25.47 0c3.046 0 5.91 1.186 8.062 3.34m.652 9.076a.668.668 0 0 1 .299-.896l1.053-.527a9.993 9.993 0 0 0-.838-3.63l-.247.375a.668.668 0 1 1-1.116-.736l.648-.98a10.147 10.147 0 0 0-2.54-2.723l-.027.444a.668.668 0 0 1-1.334-.08l.07-1.173a9.995 9.995 0 0 0-3.564-1.092l.201.402a.668.668 0 1 1-1.195.598l-.527-1.053a10.003 10.003 0 0 0-3.631.838l.374.247a.668.668 0 1 1-.736 1.115l-.98-.647a10.15 10.15 0 0 0-2.725 2.54l.445.026a.668.668 0 1 1-.08 1.334l-1.174-.07a9.982 9.982 0 0 0-1.093 3.562l.403-.202a.668.668 0 0 1 .598 1.195l-1.053.527a9.993 9.993 0 0 0 .838 3.63l.247-.375a.668.668 0 0 1 1.116.736l-.648.98a10.148 10.148 0 0 0 2.54 2.723l.027-.444a.67.67 0 0 1 1.334.08l-.07 1.173a9.995 9.995 0 0 0 3.564 1.092l-.201-.402a.668.668 0 1 1 1.195-.598l.527 1.053a10.005 10.005 0 0 0 3.631-.838l-.375-.247a.668.668 0 1 1 .737-1.115l.98.647a10.151 10.151 0 0 0 2.725-2.539l-.445-.027a.668.668 0 1 1 .08-1.333l1.174.07a9.984 9.984 0 0 0 1.092-3.563l-.402.202a.666.666 0 0 1-.897-.299"></path></g><path d="M25.478 4.29a7.116 7.116 0 0 1 7.108 7.108 7.116 7.116 0 0 1-7.108 7.108 7.116 7.116 0 0 1-7.108-7.108 7.116 7.116 0 0 1 7.108-7.108zm.663 4.366c.53.13 1 .407 1.366.788l2.602-1.496a5.79 5.79 0 0 0-3.968-2.283zm-1.326-2.991a5.79 5.79 0 0 0-3.968 2.283l2.602 1.496c.365-.38.837-.659 1.366-.788zm-2.032 6.522a2.798 2.798 0 0 1 0-1.577l-2.603-1.5a5.726 5.726 0 0 0-.475 2.288c0 .813.17 1.586.475 2.288zm2.032 1.945a2.82 2.82 0 0 1-1.366-.79l-2.602 1.5a5.787 5.787 0 0 0 3.968 2.29zm-.82-2.734a1.482 1.482 0 0 0 2.966 0 1.482 1.482 0 0 0-2.966 0zm2.146 5.733a5.786 5.786 0 0 0 3.968-2.289l-2.602-1.5a2.82 2.82 0 0 1-1.366.79zm5.11-5.733a5.73 5.73 0 0 0-.475-2.288l-2.603 1.5a2.799 2.799 0 0 1 0 1.576l2.603 1.5a5.726 5.726 0 0 0 .475-2.288zM11.848 9.92a1.48 1.48 0 0 0-1.479 1.478 1.48 1.48 0 0 0 1.748 1.454c.078.72.212 1.424.4 2.105v2.174c.251-.029.499-.074.74-.135.191.415.402.82.633 1.21-.647.195-1.332.3-2.042.3a7.116 7.116 0 0 1-7.108-7.108 7.116 7.116 0 0 1 9.15-6.809c-.23.392-.442.796-.633 1.212a5.736 5.736 0 0 0-.74-.136v2.174a13.379 13.379 0 0 0-.4 2.106 1.48 1.48 0 0 0-.269-.025zm-2.702 2.267a2.805 2.805 0 0 1 0-1.577L6.55 9.11a5.739 5.739 0 0 0-.473 2.288c0 .813.17 1.586.473 2.288zm2.034 1.945a2.81 2.81 0 0 1-1.364-.79l-2.597 1.5a5.774 5.774 0 0 0 3.961 2.29zM9.816 9.444c.365-.38.835-.659 1.364-.788v-2.99a5.777 5.777 0 0 0-3.96 2.281z"></path><g><path d="M15.757 20.677a9.996 9.996 0 0 1-3.497.78l-.527-1.052a.668.668 0 0 0-1.195.598l.201.402a9.989 9.989 0 0 1-3.562-1.092l.07-1.173a.668.668 0 0 0-1.333-.08l-.027.444a10.147 10.147 0 0 1-2.539-2.723l.647-.98a.668.668 0 1 0-1.115-.736l-.247.375a9.996 9.996 0 0 1-.838-3.63l1.053-.527a.668.668 0 0 0-.598-1.195l-.402.202A9.987 9.987 0 0 1 2.94 6.727l1.173.07a.668.668 0 0 0 .08-1.334l-.444-.026a10.148 10.148 0 0 1 2.723-2.539l.98.647a.665.665 0 0 0 .926-.19.668.668 0 0 0-.19-.925l-.375-.247a9.995 9.995 0 0 1 3.63-.838l.527 1.053a.668.668 0 1 0 1.195-.598l-.202-.402c.98.108 1.918.358 2.794.728.334-.35.688-.682 1.058-.995A11.357 11.357 0 0 0 11.85 0a11.327 11.327 0 0 0-8.06 3.34 11.326 11.326 0 0 0-3.34 8.04v.021c0 3.046 1.186 5.91 3.34 8.063a11.327 11.327 0 0 0 8.055 3.339h.01c1.747 0 3.433-.392 4.96-1.131a13.51 13.51 0 0 1-1.058-.995"></path></g>
		</symbol>
	
		<symbol id="twitter" viewBox="0 0 17 14">
			<title>twitter</title><path d="M15.253 3.489c.01.153.01.306.01.46C15.263 8.618 11.758 14 5.35 14A9.748 9.748 0 0 1 0 12.414c.28.033.55.044.841.044a6.917 6.917 0 0 0 4.326-1.51 3.497 3.497 0 0 1-3.258-2.45c.216.033.432.055.658.055.313 0 .626-.044.917-.12A3.521 3.521 0 0 1 .69 4.966v-.044a3.472 3.472 0 0 0 1.575.448A3.543 3.543 0 0 1 .712 2.428c0-.656.172-1.258.475-1.783A9.86 9.86 0 0 0 8.37 4.342a4.042 4.042 0 0 1-.087-.81C8.284 1.587 9.838 0 11.768 0c1.004 0 1.91.427 2.546 1.116a6.802 6.802 0 0 0 2.211-.853 3.515 3.515 0 0 1-1.531 1.946A6.91 6.91 0 0 0 17 1.663a7.547 7.547 0 0 1-1.747 1.826z" fill-rule="nonzero"></path>
		</symbol>
	
		<symbol id="user" viewBox="0 0 8 8">
			<defs><path id="480a" d="M4 0C2.9 0 2 1.12 2 2.5S2.9 5 4 5s2-1.12 2-2.5S5.1 0 4 0zM1.91 5A2 2 0 0 0 0 7v1h8V7a2 2 0 0 0-1.91-2A2.8 2.8 0 0 1 4 6a2.8 2.8 0 0 1-2.09-1z"></path></defs><use xlink:href="#480a"></use>
		</symbol>
	
		<symbol id="vk" viewBox="0 0 17 10">
			<title>vk</title><path d="M16.613.678c.116-.39 0-.678-.562-.678h-1.859c-.473 0-.691.247-.808.522 0 0-.947 2.284-2.285 3.765-.432.429-.63.566-.868.566-.116 0-.296-.137-.296-.528V.678C9.935.21 9.802 0 9.41 0H6.488c-.296 0-.473.219-.473.422 0 .444.67.547.739 1.797V4.93c0 .594-.108.703-.344.703-.632 0-2.165-2.293-3.074-4.918C3.153.206 2.973 0 2.496 0H.637C.107 0 0 .247 0 .522c0 .487.631 2.91 2.938 6.11C4.475 8.815 6.64 10 8.61 10c1.184 0 1.329-.262 1.329-.716C9.938 7.197 9.83 7 10.424 7c.274 0 .748.138 1.852 1.19C13.54 9.44 13.747 10 14.454 10h1.859c.53 0 .798-.262.644-.781-.354-1.09-2.743-3.335-2.85-3.485-.275-.35-.196-.506 0-.818.003-.004 2.272-3.166 2.506-4.238z" fill-rule="nonzero"></path>
		</symbol>
	
		<symbol id="wallet" viewBox="0 0 986 728">
			<title>wallet</title><g fill-rule="nonzero"><path d="M60 727.55h799.8c33.101 0 60-26.9 60-60v-135.4H632.7c-21.5 0-42.5-4.199-62.2-12.6-19-8-36.1-19.6-50.7-34.199-14.6-14.6-26.2-31.701-34.2-50.701-8.3-19.7-12.6-40.7-12.6-62.2v-16.9c0-21.5 4.2-42.5 12.6-62.2 8-19 19.601-36.1 34.2-50.7 14.601-14.6 31.7-26.2 50.7-34.2 19.7-8.3 40.7-12.6 62.2-12.6h287.1V60.45c0-33.1-26.899-60-60-60H60c-33.1 0-60 26.9-60 60v607.1c0 33.099 26.9 60 60 60z"></path><path d="M986 300.85c0-24.9-20.1-45-45-45H632.7c-55.101 0-99.7 44.6-99.7 99.7v16.9c0 55.1 44.6 99.699 99.7 99.699H941c24.9 0 45-20.1 45-45V300.85zm-337 116.1c-29.3 0-53-23.699-53-53 0-29.3 23.7-53 53-53s53 23.7 53 53c0 29.301-23.7 53-53 53z"></path></g>
		</symbol>
	
		<symbol id="youtube" viewBox="0 0 17 12">
			<title>you</title><path d="M16.645 1.878a2.14 2.14 0 0 0-1.503-1.52C13.816 0 8.5 0 8.5 0S3.184 0 1.858.359A2.14 2.14 0 0 0 .355 1.878C0 3.218 0 6.012 0 6.012s0 2.795.355 4.135c.196.739.772 1.297 1.503 1.494C3.184 12 8.5 12 8.5 12s5.316 0 6.642-.359a2.108 2.108 0 0 0 1.503-1.494C17 8.807 17 6.012 17 6.012s0-2.795-.355-4.134zM6.76 8.55V3.475l4.444 2.537L6.76 8.55z" fill-rule="nonzero"></path>
		</symbol>
	
</svg>
