<svg xmlns="http://www.w3.org/2000/svg" xmlns:xlink="http://www.w3.org/1999/xlink" width="0" height="0" style="position:absolute">
	
		<symbol id="logo1" viewBox="0 0 118 66">
			<title>logo1</title><defs><path id="00a" d="M0 .178h125.665v71.366H0z"></path></defs><g transform="translate(-4 -4)" fill="none" fill-rule="evenodd"><path d="M78.51 62.889a.714.714 0 0 1 .23-.114.572.572 0 0 1 .211-.02.425.425 0 0 1 .305.177c.046.064.06.134.045.209a.29.29 0 0 1-.12.18.329.329 0 0 1-.11.05.315.315 0 0 1-.109.01.301.301 0 0 0 .045-.157.231.231 0 0 0-.038-.132.226.226 0 0 0-.147-.09c-.065-.014-.137.008-.216.064a.447.447 0 0 0-.198.326.542.542 0 0 0 .105.377.582.582 0 0 0 .468.265.77.77 0 0 0 .275-.043c.094-.032.184-.079.27-.14.198-.14.323-.296.375-.466a.548.548 0 0 0-.094-.5.741.741 0 0 0-.306-.256 4.387 4.387 0 0 0-.384-.15 3.548 3.548 0 0 1-.392-.162.88.88 0 0 1-.33-.29c-.13-.184-.167-.37-.114-.557.053-.186.19-.358.41-.515a.88.88 0 0 1 .288-.141.64.64 0 0 1 .263-.017.58.58 0 0 1 .385.234c.066.094.088.184.066.271a.378.378 0 0 1-.155.217.568.568 0 0 1-.245.102.532.532 0 0 0 .047-.24.36.36 0 0 0-.063-.184.32.32 0 0 0-.22-.148.35.35 0 0 0-.255.073.352.352 0 0 0-.13.175.306.306 0 0 0-.01.125c.007.044.026.09.06.137a.547.547 0 0 0 .187.16c.081.044.17.084.267.119.097.035.2.069.31.1.11.032.215.07.318.112.102.042.197.09.286.145.088.055.16.121.216.2a.895.895 0 0 1 .169.406.773.773 0 0 1-.054.392 1.257 1.257 0 0 1-.251.38 2.761 2.761 0 0 1-.428.37 1.681 1.681 0 0 1-.366.2 1.09 1.09 0 0 1-.38.078.79.79 0 0 1-.36-.078.794.794 0 0 1-.306-.272.771.771 0 0 1-.122-.259.616.616 0 0 1-.01-.261.677.677 0 0 1 .101-.248.79.79 0 0 1 .21-.214zm-7.577 1.187l.652-.374.047 2.09a2.26 2.26 0 0 1 .33-.693c.134-.178.27-.29.41-.337.16-.054.284-.053.37.004.086.057.15.149.193.278.014.044.027.111.036.2a.747.747 0 0 1-.04.302 1.156 1.156 0 0 1-.201.357c-.1.126-.253.246-.46.36l.197.412c.075.154.145.257.214.308.068.051.15.06.247.028a.283.283 0 0 0 .187-.21c.028-.11.04-.24.032-.395l.169-.057c.019.325-.022.575-.122.75-.1.175-.264.301-.492.378a.602.602 0 0 1-.473-.012c-.139-.068-.259-.22-.36-.455l-.22-.504.011 1.241-.656.221-.071-3.892zm.695 2.188c.294-.135.497-.258.61-.37.112-.111.149-.226.11-.343a.137.137 0 0 0-.063-.08c-.03-.016-.072-.016-.124.002-.076.025-.162.101-.259.228a2.06 2.06 0 0 0-.274.563zm-7.8 1.423a.726.726 0 0 1 .256.021.59.59 0 0 1 .19.093.425.425 0 0 1 .172.309.255.255 0 0 1-.07.202.286.286 0 0 1-.194.093.329.329 0 0 1-.12-.014.308.308 0 0 1-.098-.047.3.3 0 0 0 .118-.112.229.229 0 0 0 .036-.133.227.227 0 0 0-.08-.154c-.05-.045-.122-.064-.218-.057a.44.44 0 0 0-.336.177.54.54 0 0 0-.104.378.591.591 0 0 0 .265.469c.075.049.161.084.258.106.097.021.198.028.304.02.241-.019.427-.087.56-.205a.547.547 0 0 0 .175-.477.747.747 0 0 0-.131-.38 4.7 4.7 0 0 0-.252-.327 3.46 3.46 0 0 1-.253-.342.878.878 0 0 1-.134-.42c-.017-.223.045-.402.186-.534.142-.133.347-.21.615-.23.12-.01.227 0 .32.028s.171.069.235.122a.599.599 0 0 1 .21.4c.008.115-.02.203-.083.266a.374.374 0 0 1-.244.105.567.567 0 0 1-.262-.039.536.536 0 0 0 .163-.181.359.359 0 0 0 .04-.19.323.323 0 0 0-.113-.241.382.382 0 0 0-.358-.046.306.306 0 0 0-.17.162.304.304 0 0 0-.02.148.544.544 0 0 0 .079.233c.047.08.103.16.168.241.065.08.136.163.214.247.077.083.149.17.215.26.065.089.123.18.17.272a.744.744 0 0 1 .084.284.9.9 0 0 1-.063.434.769.769 0 0 1-.247.31 1.26 1.26 0 0 1-.41.195c-.164.048-.35.08-.557.096-.142.01-.28.004-.415-.019a1.085 1.085 0 0 1-.367-.13.799.799 0 0 1-.269-.254.803.803 0 0 1-.123-.39.771.771 0 0 1 .029-.286.619.619 0 0 1 .338-.389.794.794 0 0 1 .29-.074zm-6.881.335c-.02.044-.046.1-.075.168a.85.85 0 0 0-.057.177.173.173 0 0 0 .014.107c.016.033.044.053.086.06.054.01.106.002.155-.024a.478.478 0 0 0 .135-.105.825.825 0 0 0 .107-.153l.085-.156.176.03c-.15.294-.304.494-.46.602a.723.723 0 0 1-.56.105c-.183-.032-.308-.097-.372-.193a.473.473 0 0 1-.06-.357.946.946 0 0 1 .06-.174c.033-.078.066-.15.1-.218l.438-.882c.033-.067.064-.136.094-.206a.905.905 0 0 0 .051-.144.25.25 0 0 0-.002-.097c-.007-.032-.032-.051-.074-.058-.066-.012-.136.03-.208.124-.073.096-.14.207-.2.334l-.176-.031c.151-.297.304-.499.458-.606.154-.106.33-.142.531-.106.154.028.258.087.313.179.055.091.07.207.046.345a1.062 1.062 0 0 1-.06.18 3.627 3.627 0 0 1-.102.225l-.443.874zm.94-2.852c.104.018.175.063.215.132a.34.34 0 0 1 .037.23.48.48 0 0 1-.094.22.56.56 0 0 1-.363.214c-.07.01-.14.01-.206-.001a.309.309 0 0 1-.21-.122c-.045-.064-.06-.137-.045-.222a.484.484 0 0 1 .087-.204.637.637 0 0 1 .368-.24.518.518 0 0 1 .21-.007zm-7.68.93l-.11.12a.652.652 0 0 0-.118.17.214.214 0 0 0-.018.117c.005.04.029.07.07.089a.217.217 0 0 0 .15.011.547.547 0 0 0 .156-.069.811.811 0 0 0 .147-.118c.046-.047.088-.09.124-.13l.157.072c-.212.254-.407.412-.584.477a.729.729 0 0 1-.567-.042c-.162-.073-.264-.162-.305-.265a.484.484 0 0 1 .003-.349 1.086 1.086 0 0 1-.455.13.932.932 0 0 1-.451-.08c-.201-.092-.323-.22-.368-.382-.046-.163-.018-.357.084-.581a2.049 2.049 0 0 1 1.064-1.078c.206-.087.41-.134.61-.138.199-.005.372.026.518.093.1.045.183.112.248.2.065.088.089.175.074.261l.956-1.07.73.172-2.116 2.39zm.058-1.674c-.088-.041-.203-.027-.342.04-.14.067-.28.162-.422.287a3.152 3.152 0 0 0-.4.424 2.18 2.18 0 0 0-.284.452.634.634 0 0 0-.067.263c.002.076.032.127.094.155.07.032.168.023.295-.027.127-.05.262-.13.405-.242a2.79 2.79 0 0 0 .418-.41c.135-.16.246-.336.333-.53.1-.22.09-.358-.03-.412zM81.398 12.645c.073.063.129.13.166.198a.59.59 0 0 1 .07.201.423.423 0 0 1-.098.34.255.255 0 0 1-.191.093.287.287 0 0 1-.203-.073.32.32 0 0 1-.074-.095.32.32 0 0 1-.037-.104c.057.017.111.02.163.006a.225.225 0 0 0 .118-.069.23.23 0 0 0 .053-.165c-.003-.067-.04-.132-.114-.195a.44.44 0 0 0-.362-.116.536.536 0 0 0-.34.193.583.583 0 0 0-.144.519.779.779 0 0 0 .108.259c.053.084.12.161.2.231.183.159.362.244.54.254.175.011.329-.06.46-.211a.746.746 0 0 0 .174-.36c.023-.132.041-.27.054-.412.012-.141.033-.282.062-.42a.878.878 0 0 1 .201-.392c.147-.17.316-.252.51-.244.193.007.391.1.595.276.091.08.16.162.206.248a.596.596 0 0 1-.055.684c-.075.088-.157.13-.246.13a.376.376 0 0 1-.246-.1.575.575 0 0 1-.158-.214.53.53 0 0 0 .244-.012.36.36 0 0 0 .162-.106.323.323 0 0 0 .09-.25.354.354 0 0 0-.13-.231.38.38 0 0 0-.09-.057.293.293 0 0 0-.233-.007.302.302 0 0 0-.12.09.54.54 0 0 0-.109.221 1.89 1.89 0 0 0-.05.29c-.012.103-.02.211-.024.326a3.037 3.037 0 0 1-.032.337c-.016.11-.04.215-.072.314a.727.727 0 0 1-.142.259.889.889 0 0 1-.35.261.758.758 0 0 1-.392.042 1.26 1.26 0 0 1-.428-.154 2.768 2.768 0 0 1-.459-.33 1.693 1.693 0 0 1-.28-.309 1.11 1.11 0 0 1-.167-.353.808.808 0 0 1-.01-.37.8.8 0 0 1 .189-.363.76.76 0 0 1 .22-.181.61.61 0 0 1 .251-.072.66.66 0 0 1 .263.039.792.792 0 0 1 .257.154zM74.366 9.09c-.216.208-.47.35-.764.427-.293.078-.609.05-.948-.082-.268-.104-.45-.254-.545-.449-.095-.194-.092-.422.009-.684a1.823 1.823 0 0 1 1.627-1.182c.23-.009.451.029.664.112.253.098.42.222.504.37a.52.52 0 0 1 .033.462.718.718 0 0 1-.21.28 1.029 1.029 0 0 1-.405.202 1.89 1.89 0 0 1-.595.052 2.933 2.933 0 0 1-.782-.168.511.511 0 0 0-.111.138c-.034.058-.06.108-.076.151a.404.404 0 0 0-.015.296c.032.085.12.156.262.211.106.042.215.065.327.07.111.004.221-.006.329-.033.108-.026.212-.065.313-.117.102-.052.198-.11.286-.176l.097.12zm-1.222-.908a1.691 1.691 0 0 0 .918.03.796.796 0 0 0 .29-.134.437.437 0 0 0 .148-.181.258.258 0 0 0 .004-.18c-.02-.06-.073-.107-.16-.14a.525.525 0 0 0-.27-.024.976.976 0 0 0-.31.108c-.106.057-.212.13-.319.218-.107.088-.207.19-.3.303zM64.256 4.88a.18.18 0 0 0 .04-.074.423.423 0 0 0 .017-.082c.006-.08-.017-.123-.067-.127-.03-.002-.052.01-.066.034a.194.194 0 0 0-.026.088c0 .046.011.084.033.11a.13.13 0 0 0 .07.05zm-.053.533c-.063.106-.14.245-.232.415a79.3 79.3 0 0 0-.285.537c-.099.19-.197.374-.293.554-.096.18-.183.331-.26.453l-.26-.02c.114-.157.217-.317.31-.478.093-.161.182-.326.27-.494l.264-.515c.09-.174.188-.355.296-.543a.42.42 0 0 1-.142-.187.543.543 0 0 1-.036-.242.555.555 0 0 1 .14-.339.375.375 0 0 1 .328-.125.22.22 0 0 1 .165.093.269.269 0 0 1 .056.186.457.457 0 0 1-.102.255.88.88 0 0 0 .205.06c.08.015.162.025.246.032.063.005.135.005.216 0a8.901 8.901 0 0 0 .448-.036.996.996 0 0 1 .14-.005c.03.002.05.014.058.036.01.022.014.038.013.046-.004.06-.052.146-.144.26a9.019 9.019 0 0 0-.3.403c-.11.154-.213.326-.31.514a1.53 1.53 0 0 0-.168.59c-.011.143-.002.24.026.289a.145.145 0 0 0 .117.08.214.214 0 0 0 .147-.04.397.397 0 0 0 .107-.12.922.922 0 0 0 .076-.164l.058-.166.177.014c-.092.313-.216.53-.37.65a.805.805 0 0 1-.576.154c-.206-.015-.36-.085-.458-.208a.644.644 0 0 1-.127-.47c.012-.152.051-.3.12-.442.067-.142.152-.276.253-.403.1-.126.212-.24.334-.342.122-.102.244-.188.363-.26a1.8 1.8 0 0 1-.284.058 1.612 1.612 0 0 1-.286 0 1.184 1.184 0 0 1-.158-.024.42.42 0 0 1-.142-.056zm-9.22.596c.035.153.043.313.025.479a6.906 6.906 0 0 1-.071.484l-.081.441a.879.879 0 0 0-.005.349c.016.07.047.11.092.119.046.009.087.01.124 0 .083-.019.157-.096.224-.231.066-.136.125-.31.176-.523.051-.212.093-.454.127-.723.034-.27.057-.546.07-.828l.696-.319-.155 2.19c-.026.377-.074.7-.143.97-.068.269-.163.496-.286.681a1.448 1.448 0 0 1-.46.448c-.185.112-.407.199-.667.259-.26.06-.452.065-.577.013-.124-.052-.198-.126-.22-.22a.28.28 0 0 1 .05-.254.282.282 0 0 1 .145-.093c.053.101.12.18.2.238.08.058.208.067.381.026a.774.774 0 0 0 .446-.273c.11-.14.197-.307.258-.502.062-.196.106-.406.133-.63.026-.224.05-.444.07-.658a1.502 1.502 0 0 1-.272.587.81.81 0 0 1-.461.304c-.07.016-.139.025-.205.027a.351.351 0 0 1-.32-.145.585.585 0 0 1-.094-.224 1.262 1.262 0 0 1-.022-.463c.022-.15.05-.3.083-.448.034-.147.061-.295.083-.445a1.227 1.227 0 0 0-.02-.46.206.206 0 0 0-.035-.08c-.016-.02-.044-.026-.085-.016-.066.015-.114.08-.144.197-.03.116-.05.245-.06.387l-.168.039c.02-.332.08-.577.18-.736a.697.697 0 0 1 .453-.308c.149-.034.267-.02.355.042a.48.48 0 0 1 .18.299zm-8.975 3.395l-.32.182-.05-.243.304-.173-.15-.78.602-.344.165.771.359-.205.05.244-.359.204.332 1.557c.007.03.018.081.032.154a.642.642 0 0 0 .066.186.21.21 0 0 0 .085.087c.034.017.073.014.118-.012a.23.23 0 0 0 .101-.116.494.494 0 0 0 .034-.167.8.8 0 0 0-.014-.186l-.033-.176.149-.085c.073.32.083.573.03.758a.744.744 0 0 1-.368.44c-.158.09-.292.12-.403.088a.466.466 0 0 1-.272-.237.967.967 0 0 1-.07-.174 1.94 1.94 0 0 1-.057-.231l-.331-1.542z" fill="#1D1D1B"></path><path d="M49.78 44.705l-4.193-.027c.002 2.244 3.19 7.119 4.877 9.023 4.783 5.398 12.49 8.441 19.977 7.297 2.052-.314 3.722-.77 5.42-1.475 1.148-.476 3.935-1.88 4.415-2.5-.576-.253-1.37.128-2.034-.345-.5-.355-.771-1.038-.542-1.761.43-1.353 2.376-.974 3.783-.982l28.962-.009c1.587 0 3.318.279 3.591-1.227.407-2.244-2.352-1.85-2.995-1.85H86.966c-.756 0-1.565.061-2.109-.337-.496-.363-.74-1.206-.41-1.9.561-1.185 2.61-.814 3.949-.814h28.843c1.474 0 3.45.358 3.813-1.101.477-1.916-1.3-1.964-2.74-1.963l-24.195-.04c-3.1-.001-6.202-.091-9.297-.045-.866 1.172-1.485 4.848-6.28 8.573-8.772 6.816-21.75 4.428-27.54-5.936-.342-.61-.866-2.077-1.22-2.58" fill="#E20714"></path><path d="M77.034 59.918c-1.242.142-3.635 2.186-10.806 2.092-3.81-.05-7.477-1.273-10.28-2.803-4.761-2.6-8.632-6.806-10.668-12.053-.244-.63-.607-1.96-.865-2.455l-3.23-.022c.008 2.313 3.043 7.432 4.793 9.577 2.09 2.562 4.74 4.69 8.083 6.39 3.285 1.673 7.359 2.64 11.81 2.5 3.721-.116 8.827-1.544 11.163-3.226" fill="#E20714"></path><path d="M61.87 63.88c-.236-.191-.61-.256-.954-.312-10.066-1.657-18.1-9.135-20.944-18.877l-3.326-.014c-.029 1.898 2.307 6.211 3.287 7.749 1.412 2.216 3.239 4.204 5.268 5.848 4.028 3.263 9.834 5.891 16.669 5.606" fill="#E20714"></path><path d="M46.621 25.338l4.59.026c5.627-9.41 17.143-12.221 25.967-6.539 3.272 2.107 4.216 3.69 6.236 6.54l4.483.001c.006-1.044-2.497-4.51-3.132-5.297-7.33-9.084-20.624-10.998-30.482-4.154-1.6 1.112-3.346 2.713-4.468 4.134-.748.947-3.08 4.222-3.194 5.29M42.463 21.021l.796.108c1.571-2.943 5.705-6.614 8.443-8.283 5.72-3.49 9.758-3.245 10.912-3.777-6.698-.306-13.756 2.09-18.482 6.588-.507.482-.584.389-1.38.381-.665-.006-36.17-.104-36.947.032-.913.16-1.504 1.178-1.074 2.144.415.934 1.325.917 2.38.912 1.113-.004 2.223-.002 3.337-.002h27.055c2.192 0 5.101-.716 4.96 1.897M15.454 25.236l25.387.098c.323-.244.864-1.51.995-1.967-.393-.532-1.332-1.227-2.068-1.226l-26.345.005c-.73.006-1.148.121-1.512.652a1.576 1.576 0 0 0-.05 1.667c.649 1.071 2.249.766 3.593.77" fill="#1A2E58"></path><path d="M43.516 22.452c-.293.458-1.346 2.409-1.342 2.91h3.272c.698-1.462 1.24-2.562 2.11-3.875 6.027-9.084 17.307-12.834 27.666-9.07.468.17 1.822.833 2.073.798-1.22-.987-4.904-2.283-6.612-2.697-7.077-1.712-14.375-.179-20.187 3.992-2.876 2.066-5.074 4.972-6.98 7.942" fill="#1A2E58"></path><path d="M49.603 34.164c-.77-.279-.282-1.248.086-2.788.363-.991.734-1.981 1.101-2.98.506.197.887.478 1.42.76l.161.088c-.435.733-.864 1.552-1.116 1.996-.552.974-1.102 1.95-1.652 2.924zM51.2 43.7c.094.257.191.506.289.747.527 1.296 1.069 1.726 3.352-.194.219-.184.428-.367.627-.553h1.799a93.164 93.164 0 0 1-1.743 1.889c-.703.724-1.406 1.431-2.104 2.136-.529.52-.332.407-.744.615-.736-.226-2.092-3.366-2.58-4.64h1.104zM73.1 54.89c.28-1.296-3.664-8.783-4.351-9.823a8.299 8.299 0 0 0-1.083-1.368h-6.202c-.147.137-.284.27-.413.396-1.955 1.891-3.903 3.767-5.825 5.63-1.18 1.121-.872 1.22 1.375 2.941.698.537 1.348.955 2.265 1.455 1.503.819 3.72 1.595 6.236 1.879 2.527.279 5.359.078 7.998-1.11zm-9.4-10.208c-2.027-.387-3.546 1.282-4.406 2.214-.991 1.09-2.207 2.418-2.698 3.562-.364.838.383 1.122.866 1.429.47.295.978.638 1.64.956 1.283.62 2.495 1.034 4.038 1.27 1.37.205 4.411.343 5.72-.487 2.068-1.29-1.186-5.946-1.947-7-.864-1.174-1.565-1.634-3.214-1.944zm5.261-27.407c-.019.189-.358 2.476-.384 2.64-.244 1.457-.837 4.593-1.683 7.079h-1.21c.498-1.286 1.042-3.04.992-4.056-.24-.388-2.537-.441-5.12.082-2.552.516-5.393 1.602-6.818 3.515.055.101.225.262.465.459h-.98l-.185.187c-1.019-.58-1.987-1.21-1.904-1.478.114-.355 1.387-1.982 1.87-2.554 1.279-1.507 2.984-3.066 5.176-4.24 1.13-.61 2.298-1.068 3.624-1.463 1.711-.532 4.574-1.076 6.157-.171zm6.01 32.605c1.229-.41 2.632-4.676 2.952-5.983.059-.237.116-.505.17-.794.782.403 1.684.596 2.625.596h3.437c-.86 2.25-2.166 4.386-4.082 6.457-.875.934-3.2 3.024-4.293 3.374-.275-.314-2.711-6.202-2.71-6.686.331.507.67 1.01 1.005 1.514.301.506.56 1.064.896 1.522zm-1.734-32.127c2.535.456 6.316 3.606 7.82 5.391.523.62 1.525 2.184 2.393 3.85h-9.913a19.37 19.37 0 0 0-1.618-1.46c-.315-.262-.621-.61-1.144-.656-.172.639-.241 1.22-.71 1.632.313-1.915.57-9.556 3.172-8.757z" fill="#17120F"></path><path d="M30.266 30.482c-1.427 0-2.73.66-3.91 1.98-.338.444-1.108 1.734-2.309 3.87-.964 1.533-1.448 2.555-1.448 3.065 0 .135.032.298.092.497.292.557.878.834 1.755.834h3.88c1.11 0 1.95-.134 2.526-.401.61-.227 1.266-.724 1.97-1.487.282-.376 1.104-1.8 2.462-4.272.823-1.337 1.232-2.245 1.232-2.723l-.03-.217c-.232-.764-.878-1.146-1.94-1.146h-4.28zm-3.741 7.058v.061c0 .351.268.528.801.528h1.755c1.046 0 1.879-.703 2.493-2.105.802-1.298 1.201-2.08 1.201-2.354v-.093c0-.264-.226-.417-.678-.465H30.22c-1.01 0-1.903.785-2.678 2.354-.677 1.089-1.016 1.78-1.016 2.074zm15.092-7.027h2.832l.032.032h.03l-4.341 7.552v.032h8.806v.06l-4.403 2.54h-8.775v-.032c3.736-6.61 5.675-10.004 5.82-10.184zm13.937-.031H67.13v.063l-4.217 2.536h-5.88c-.197.28-.494.795-.893 1.548h4.064v.063l-3.48 2.013h-1.817l-.8 1.453h8.774l.032.032h.032c-.93 1.667-1.422 2.512-1.48 2.538H49.826l-.029-.031h-.032c3.779-6.728 5.708-10.133 5.789-10.215zm17.57 0c-1.803 0-3.187.65-4.156 1.95-1.088 1.518-1.632 2.516-1.632 3.003v.155l.092.34c.14.495.938.744 2.401.744h3.85c-.048.232-.324.562-.833.99-.492.288-.923.433-1.293.433l-3.08.032c-.075 0-.27.103-.583.31l-3.757 2.229v.06h7.236c.42 0 .943-.103 1.57-.309 1-.309 1.882-.98 2.647-2.013.843-1.294 1.264-2.132 1.264-2.507v-.216l-.063-.28c-.245-.515-.862-.774-1.847-.774h-4.496c.741-1.052 1.55-1.577 2.433-1.577l1.97.029h2.31c.103 0 1.469-.856 4.096-2.568v-.031h-8.129zm13.414 0h4.28c1.061 0 1.708.382 1.939 1.146l.031.217c0 .478-.41 1.386-1.232 2.723-1.358 2.473-2.18 3.896-2.462 4.272-.704.763-1.36 1.26-1.97 1.487-.576.267-1.416.401-2.525.401h-3.881c-.878 0-1.463-.277-1.755-.834a1.77 1.77 0 0 1-.092-.497c0-.51.484-1.532 1.448-3.064 1.2-2.137 1.97-3.427 2.31-3.87 1.18-1.321 2.482-1.981 3.909-1.981zm-3.741 7.058v.061c0 .351.267.528.8.528h1.756c1.046 0 1.878-.703 2.493-2.105.802-1.298 1.2-2.08 1.2-2.354v-.093c0-.264-.225-.417-.677-.465H86.49c-1.009 0-1.902.785-2.676 2.354-.678 1.089-1.017 1.78-1.017 2.074z" fill="#E20714"></path><path d="M111.996 30.466c-.094.119-1.284 2.155-3.573 6.107 0 .05.024.077.071.077h7.189c-.581.943-1.312 1.416-2.194 1.416H107.6c-.063.047-.583.908-1.563 2.586 0 .05.026.076.076.076h6.889c1.857 0 3.373-.723 4.542-2.174.9-1.434 1.348-2.306 1.348-2.618V35.6c0-.064-.026-.178-.079-.341-.236-.497-.98-.745-2.23-.745h-4.028c.565-1.025.864-1.54.893-1.54h5.851c.282-.38.728-1.218 1.34-2.507h-8.644zm-12.552 0h5.888c.82 0 1.39.311 1.708.937a.878.878 0 0 1 .08.41c0 .51-.487 1.508-1.457 2.995-.56.5-1.116.75-1.67.75v.04c.302 0 .525.235.67.711v.108c0 .389-.487 1.226-1.456 2.515-1.093 1.197-2.457 1.796-4.093 1.796h-6.969c-.05 0-.076-.026-.076-.076.9-1.612 1.395-2.473 1.493-2.586h4.503c1.745 0 2.95-.473 3.618-1.416h-4.364v-.077c.728-1.286 1.14-1.96 1.232-2.028h2.23c1.146 0 2.09-.437 2.835-1.308.103-.124.153-.199.153-.225h-5.74l-.072-.04c.849-1.51 1.343-2.345 1.487-2.506z" fill="#1A2E58"></path><path d="M17.543 30.493l-3.12-.011-5.908 10.284 3.142-.019 2.18-3.804 1.91 3.772 3.89-.03-2.527-4.879 7.346-5.275c-1.248-.006-2.595-.043-3.844-.05l-5.196 3.723 2.127-3.71z" fill="#E20714"></path><path d="M78.51 62.889a.714.714 0 0 1 .23-.114.572.572 0 0 1 .211-.02.425.425 0 0 1 .305.177c.046.064.06.134.045.209a.29.29 0 0 1-.12.18.329.329 0 0 1-.11.05.315.315 0 0 1-.109.01.301.301 0 0 0 .045-.157.231.231 0 0 0-.038-.132.226.226 0 0 0-.147-.09c-.065-.014-.137.008-.216.064a.447.447 0 0 0-.198.326.542.542 0 0 0 .105.377.582.582 0 0 0 .468.265.77.77 0 0 0 .275-.043c.094-.032.184-.079.27-.14.198-.14.323-.296.375-.466a.548.548 0 0 0-.094-.5.741.741 0 0 0-.306-.256 4.387 4.387 0 0 0-.384-.15 3.548 3.548 0 0 1-.392-.162.88.88 0 0 1-.33-.29c-.13-.184-.167-.37-.114-.557.053-.186.19-.358.41-.515a.88.88 0 0 1 .288-.141.64.64 0 0 1 .263-.017.58.58 0 0 1 .385.234c.066.094.088.184.066.271a.378.378 0 0 1-.155.217.568.568 0 0 1-.245.102.532.532 0 0 0 .047-.24.36.36 0 0 0-.063-.184.32.32 0 0 0-.22-.148.35.35 0 0 0-.255.073.352.352 0 0 0-.13.175.306.306 0 0 0-.01.125c.007.044.026.09.06.137a.547.547 0 0 0 .187.16c.081.044.17.084.267.119.097.035.2.069.31.1.11.032.215.07.318.112.102.042.197.09.286.145.088.055.16.121.216.2a.895.895 0 0 1 .169.406.773.773 0 0 1-.054.392 1.257 1.257 0 0 1-.251.38 2.761 2.761 0 0 1-.428.37 1.681 1.681 0 0 1-.366.2 1.09 1.09 0 0 1-.38.078.79.79 0 0 1-.36-.078.794.794 0 0 1-.306-.272.771.771 0 0 1-.122-.259.616.616 0 0 1-.01-.261.677.677 0 0 1 .101-.248.79.79 0 0 1 .21-.214zm-7.577 1.187l.652-.374.047 2.09a2.26 2.26 0 0 1 .33-.693c.134-.178.27-.29.41-.337.16-.054.284-.053.37.004.086.057.15.149.193.278.014.044.027.111.036.2a.747.747 0 0 1-.04.302 1.156 1.156 0 0 1-.201.357c-.1.126-.253.246-.46.36l.197.412c.075.154.145.257.214.308.068.051.15.06.247.028a.283.283 0 0 0 .187-.21c.028-.11.04-.24.032-.395l.169-.057c.019.325-.022.575-.122.75-.1.175-.264.301-.492.378a.602.602 0 0 1-.473-.012c-.139-.068-.259-.22-.36-.455l-.22-.504.011 1.241-.656.221-.071-3.892zm.695 2.188c.294-.135.497-.258.61-.37.112-.111.149-.226.11-.343a.137.137 0 0 0-.063-.08c-.03-.016-.072-.016-.124.002-.076.025-.162.101-.259.228a2.06 2.06 0 0 0-.274.563zm-7.8 1.423a.726.726 0 0 1 .256.021.59.59 0 0 1 .19.093.425.425 0 0 1 .172.309.255.255 0 0 1-.07.202.286.286 0 0 1-.194.093.329.329 0 0 1-.12-.014.308.308 0 0 1-.098-.047.3.3 0 0 0 .118-.112.229.229 0 0 0 .036-.133.227.227 0 0 0-.08-.154c-.05-.045-.122-.064-.218-.057a.44.44 0 0 0-.336.177.54.54 0 0 0-.104.378.591.591 0 0 0 .265.469c.075.049.161.084.258.106.097.021.198.028.304.02.241-.019.427-.087.56-.205a.547.547 0 0 0 .175-.477.747.747 0 0 0-.131-.38 4.7 4.7 0 0 0-.252-.327 3.46 3.46 0 0 1-.253-.342.878.878 0 0 1-.134-.42c-.017-.223.045-.402.186-.534.142-.133.347-.21.615-.23.12-.01.227 0 .32.028s.171.069.235.122a.599.599 0 0 1 .21.4c.008.115-.02.203-.083.266a.374.374 0 0 1-.244.105.567.567 0 0 1-.262-.039.536.536 0 0 0 .163-.181.359.359 0 0 0 .04-.19.323.323 0 0 0-.113-.241.382.382 0 0 0-.358-.046.306.306 0 0 0-.17.162.304.304 0 0 0-.02.148.544.544 0 0 0 .079.233c.047.08.103.16.168.241.065.08.136.163.214.247.077.083.149.17.215.26.065.089.123.18.17.272a.744.744 0 0 1 .084.284.9.9 0 0 1-.063.434.769.769 0 0 1-.247.31 1.26 1.26 0 0 1-.41.195c-.164.048-.35.08-.557.096-.142.01-.28.004-.415-.019a1.085 1.085 0 0 1-.367-.13.799.799 0 0 1-.269-.254.803.803 0 0 1-.123-.39.771.771 0 0 1 .029-.286.619.619 0 0 1 .338-.389.794.794 0 0 1 .29-.074zm-6.881.335c-.02.044-.046.1-.075.168a.85.85 0 0 0-.057.177.173.173 0 0 0 .014.107c.016.033.044.053.086.06.054.01.106.002.155-.024a.478.478 0 0 0 .135-.105.825.825 0 0 0 .107-.153l.085-.156.176.03c-.15.294-.304.494-.46.602a.723.723 0 0 1-.56.105c-.183-.032-.308-.097-.372-.193a.473.473 0 0 1-.06-.357.946.946 0 0 1 .06-.174c.033-.078.066-.15.1-.218l.438-.882c.033-.067.064-.136.094-.206a.905.905 0 0 0 .051-.144.25.25 0 0 0-.002-.097c-.007-.032-.032-.051-.074-.058-.066-.012-.136.03-.208.124-.073.096-.14.207-.2.334l-.176-.031c.151-.297.304-.499.458-.606.154-.106.33-.142.531-.106.154.028.258.087.313.179.055.091.07.207.046.345a1.062 1.062 0 0 1-.06.18 3.627 3.627 0 0 1-.102.225l-.443.874zm.94-2.852c.104.018.175.063.215.132a.34.34 0 0 1 .037.23.48.48 0 0 1-.094.22.56.56 0 0 1-.363.214c-.07.01-.14.01-.206-.001a.309.309 0 0 1-.21-.122c-.045-.064-.06-.137-.045-.222a.484.484 0 0 1 .087-.204.637.637 0 0 1 .368-.24.518.518 0 0 1 .21-.007zm-7.68.93l-.11.12a.652.652 0 0 0-.118.17.214.214 0 0 0-.018.117c.005.04.029.07.07.089a.217.217 0 0 0 .15.011.547.547 0 0 0 .156-.069.811.811 0 0 0 .147-.118c.046-.047.088-.09.124-.13l.157.072c-.212.254-.407.412-.584.477a.729.729 0 0 1-.567-.042c-.162-.073-.264-.162-.305-.265a.484.484 0 0 1 .003-.349 1.086 1.086 0 0 1-.455.13.932.932 0 0 1-.451-.08c-.201-.092-.323-.22-.368-.382-.046-.163-.018-.357.084-.581a2.049 2.049 0 0 1 1.064-1.078c.206-.087.41-.134.61-.138.199-.005.372.026.518.093.1.045.183.112.248.2.065.088.089.175.074.261l.956-1.07.73.172-2.116 2.39zm.058-1.674c-.088-.041-.203-.027-.342.04-.14.067-.28.162-.422.287a3.152 3.152 0 0 0-.4.424 2.18 2.18 0 0 0-.284.452.634.634 0 0 0-.067.263c.002.076.032.127.094.155.07.032.168.023.295-.027.127-.05.262-.13.405-.242a2.79 2.79 0 0 0 .418-.41c.135-.16.246-.336.333-.53.1-.22.09-.358-.03-.412zM81.398 12.645c.073.063.129.13.166.198a.59.59 0 0 1 .07.201.423.423 0 0 1-.098.34.255.255 0 0 1-.191.093.287.287 0 0 1-.203-.073.32.32 0 0 1-.074-.095.32.32 0 0 1-.037-.104c.057.017.111.02.163.006a.225.225 0 0 0 .118-.069.23.23 0 0 0 .053-.165c-.003-.067-.04-.132-.114-.195a.44.44 0 0 0-.362-.116.536.536 0 0 0-.34.193.583.583 0 0 0-.144.519.779.779 0 0 0 .108.259c.053.084.12.161.2.231.183.159.362.244.54.254.175.011.329-.06.46-.211a.746.746 0 0 0 .174-.36c.023-.132.041-.27.054-.412.012-.141.033-.282.062-.42a.878.878 0 0 1 .201-.392c.147-.17.316-.252.51-.244.193.007.391.1.595.276.091.08.16.162.206.248a.596.596 0 0 1-.055.684c-.075.088-.157.13-.246.13a.376.376 0 0 1-.246-.1.575.575 0 0 1-.158-.214.53.53 0 0 0 .244-.012.36.36 0 0 0 .162-.106.323.323 0 0 0 .09-.25.354.354 0 0 0-.13-.231.38.38 0 0 0-.09-.057.293.293 0 0 0-.233-.007.302.302 0 0 0-.12.09.54.54 0 0 0-.109.221 1.89 1.89 0 0 0-.05.29c-.012.103-.02.211-.024.326a3.037 3.037 0 0 1-.032.337c-.016.11-.04.215-.072.314a.727.727 0 0 1-.142.259.889.889 0 0 1-.35.261.758.758 0 0 1-.392.042 1.26 1.26 0 0 1-.428-.154 2.768 2.768 0 0 1-.459-.33 1.693 1.693 0 0 1-.28-.309 1.11 1.11 0 0 1-.167-.353.808.808 0 0 1-.01-.37.8.8 0 0 1 .189-.363.76.76 0 0 1 .22-.181.61.61 0 0 1 .251-.072.66.66 0 0 1 .263.039.792.792 0 0 1 .257.154zM74.366 9.09c-.216.208-.47.35-.764.427-.293.078-.609.05-.948-.082-.268-.104-.45-.254-.545-.449-.095-.194-.092-.422.009-.684a1.823 1.823 0 0 1 1.627-1.182c.23-.009.451.029.664.112.253.098.42.222.504.37a.52.52 0 0 1 .033.462.718.718 0 0 1-.21.28 1.029 1.029 0 0 1-.405.202 1.89 1.89 0 0 1-.595.052 2.933 2.933 0 0 1-.782-.168.511.511 0 0 0-.111.138c-.034.058-.06.108-.076.151a.404.404 0 0 0-.015.296c.032.085.12.156.262.211.106.042.215.065.327.07.111.004.221-.006.329-.033.108-.026.212-.065.313-.117.102-.052.198-.11.286-.176l.097.12zm-1.222-.908a1.691 1.691 0 0 0 .918.03.796.796 0 0 0 .29-.134.437.437 0 0 0 .148-.181.258.258 0 0 0 .004-.18c-.02-.06-.073-.107-.16-.14a.525.525 0 0 0-.27-.024.976.976 0 0 0-.31.108c-.106.057-.212.13-.319.218-.107.088-.207.19-.3.303zM64.256 4.88a.18.18 0 0 0 .04-.074.423.423 0 0 0 .017-.082c.006-.08-.017-.123-.067-.127-.03-.002-.052.01-.066.034a.194.194 0 0 0-.026.088c0 .046.011.084.033.11a.13.13 0 0 0 .07.05zm-.053.533c-.063.106-.14.245-.232.415a79.3 79.3 0 0 0-.285.537c-.099.19-.197.374-.293.554-.096.18-.183.331-.26.453l-.26-.02c.114-.157.217-.317.31-.478.093-.161.182-.326.27-.494l.264-.515c.09-.174.188-.355.296-.543a.42.42 0 0 1-.142-.187.543.543 0 0 1-.036-.242.555.555 0 0 1 .14-.339.375.375 0 0 1 .328-.125.22.22 0 0 1 .165.093.269.269 0 0 1 .056.186.457.457 0 0 1-.102.255.88.88 0 0 0 .205.06c.08.015.162.025.246.032.063.005.135.005.216 0a8.901 8.901 0 0 0 .448-.036.996.996 0 0 1 .14-.005c.03.002.05.014.058.036.01.022.014.038.013.046-.004.06-.052.146-.144.26a9.019 9.019 0 0 0-.3.403c-.11.154-.213.326-.31.514a1.53 1.53 0 0 0-.168.59c-.011.143-.002.24.026.289a.145.145 0 0 0 .117.08.214.214 0 0 0 .147-.04.397.397 0 0 0 .107-.12.922.922 0 0 0 .076-.164l.058-.166.177.014c-.092.313-.216.53-.37.65a.805.805 0 0 1-.576.154c-.206-.015-.36-.085-.458-.208a.644.644 0 0 1-.127-.47c.012-.152.051-.3.12-.442.067-.142.152-.276.253-.403.1-.126.212-.24.334-.342.122-.102.244-.188.363-.26a1.8 1.8 0 0 1-.284.058 1.612 1.612 0 0 1-.286 0 1.184 1.184 0 0 1-.158-.024.42.42 0 0 1-.142-.056zm-9.22.596c.035.153.043.313.025.479a6.906 6.906 0 0 1-.071.484l-.081.441a.879.879 0 0 0-.005.349c.016.07.047.11.092.119.046.009.087.01.124 0 .083-.019.157-.096.224-.231.066-.136.125-.31.176-.523.051-.212.093-.454.127-.723.034-.27.057-.546.07-.828l.696-.319-.155 2.19c-.026.377-.074.7-.143.97-.068.269-.163.496-.286.681a1.448 1.448 0 0 1-.46.448c-.185.112-.407.199-.667.259-.26.06-.452.065-.577.013-.124-.052-.198-.126-.22-.22a.28.28 0 0 1 .05-.254.282.282 0 0 1 .145-.093c.053.101.12.18.2.238.08.058.208.067.381.026a.774.774 0 0 0 .446-.273c.11-.14.197-.307.258-.502.062-.196.106-.406.133-.63.026-.224.05-.444.07-.658a1.502 1.502 0 0 1-.272.587.81.81 0 0 1-.461.304c-.07.016-.139.025-.205.027a.351.351 0 0 1-.32-.145.585.585 0 0 1-.094-.224 1.262 1.262 0 0 1-.022-.463c.022-.15.05-.3.083-.448.034-.147.061-.295.083-.445a1.227 1.227 0 0 0-.02-.46.206.206 0 0 0-.035-.08c-.016-.02-.044-.026-.085-.016-.066.015-.114.08-.144.197-.03.116-.05.245-.06.387l-.168.039c.02-.332.08-.577.18-.736a.697.697 0 0 1 .453-.308c.149-.034.267-.02.355.042a.48.48 0 0 1 .18.299zm-8.975 3.395l-.32.182-.05-.243.304-.173-.15-.78.602-.344.165.771.359-.205.05.244-.359.204.332 1.557c.007.03.018.081.032.154a.642.642 0 0 0 .066.186.21.21 0 0 0 .085.087c.034.017.073.014.118-.012a.23.23 0 0 0 .101-.116.494.494 0 0 0 .034-.167.8.8 0 0 0-.014-.186l-.033-.176.149-.085c.073.32.083.573.03.758a.744.744 0 0 1-.368.44c-.158.09-.292.12-.403.088a.466.466 0 0 1-.272-.237.967.967 0 0 1-.07-.174 1.94 1.94 0 0 1-.057-.231l-.331-1.542z" fill="#FFF"></path><path d="M49.78 44.705l-4.193-.027c.002 2.244 3.19 7.119 4.877 9.023 4.783 5.398 12.49 8.441 19.977 7.297 2.052-.314 3.722-.77 5.42-1.475 1.148-.476 3.935-1.88 4.415-2.5-.576-.253-1.37.128-2.034-.345-.5-.355-.771-1.038-.542-1.761.43-1.353 2.376-.974 3.783-.982l28.962-.009c1.587 0 3.318.279 3.591-1.227.407-2.244-2.352-1.85-2.995-1.85H86.966c-.756 0-1.565.061-2.109-.337-.496-.363-.74-1.206-.41-1.9.561-1.185 2.61-.814 3.949-.814h28.843c1.474 0 3.45.358 3.813-1.101.477-1.916-1.3-1.964-2.74-1.963l-24.195-.04c-3.1-.001-6.202-.091-9.297-.045-.866 1.172-1.485 4.848-6.28 8.573-8.772 6.816-21.75 4.428-27.54-5.936-.342-.61-.866-2.077-1.22-2.58" fill="#FF2B2B"></path><path d="M77.034 59.918c-1.242.142-3.635 2.186-10.806 2.092-3.81-.05-7.477-1.273-10.28-2.803-4.761-2.6-8.632-6.806-10.668-12.053-.244-.63-.607-1.96-.865-2.455l-3.23-.022c.008 2.313 3.043 7.432 4.793 9.577 2.09 2.562 4.74 4.69 8.083 6.39 3.285 1.673 7.359 2.64 11.81 2.5 3.721-.116 8.827-1.544 11.163-3.226" fill="#FF2B2B"></path><path d="M61.87 63.88c-.236-.191-.61-.256-.954-.312-10.066-1.657-18.1-9.135-20.944-18.877l-3.326-.014c-.029 1.898 2.307 6.211 3.287 7.749 1.412 2.216 3.239 4.204 5.268 5.848 4.028 3.263 9.834 5.891 16.669 5.606" fill="#FF2B2B"></path><path d="M46.621 25.338l4.59.026c5.627-9.41 17.143-12.221 25.967-6.539 3.272 2.107 4.216 3.69 6.236 6.54l4.483.001c.006-1.044-2.497-4.51-3.132-5.297-7.33-9.084-20.624-10.998-30.482-4.154-1.6 1.112-3.346 2.713-4.468 4.134-.748.947-3.08 4.222-3.194 5.29M42.463 21.021l.796.108c1.571-2.943 5.705-6.614 8.443-8.283 5.72-3.49 9.758-3.245 10.912-3.777-6.698-.306-13.756 2.09-18.482 6.588-.507.482-.584.389-1.38.381-.665-.006-36.17-.104-36.947.032-.913.16-1.504 1.178-1.074 2.144.415.934 1.325.917 2.38.912 1.113-.004 2.223-.002 3.337-.002h27.055c2.192 0 5.101-.716 4.96 1.897M15.454 25.236l25.387.098c.323-.244.864-1.51.995-1.967-.393-.532-1.332-1.227-2.068-1.226l-26.345.005c-.73.006-1.148.121-1.512.652a1.576 1.576 0 0 0-.05 1.667c.649 1.071 2.249.766 3.593.77" fill="#FFF"></path><path d="M43.516 22.452c-.293.458-1.346 2.409-1.342 2.91h3.272c.698-1.462 1.24-2.562 2.11-3.875 6.027-9.084 17.307-12.834 27.666-9.07.468.17 1.822.833 2.073.798-1.22-.987-4.904-2.283-6.612-2.697-7.077-1.712-14.375-.179-20.187 3.992-2.876 2.066-5.074 4.972-6.98 7.942" fill="#FFF"></path><path d="M49.603 34.164c-.77-.279-.282-1.248.086-2.788.363-.991.734-1.981 1.101-2.98.506.197.887.478 1.42.76l.161.088c-.435.733-.864 1.552-1.116 1.996-.552.974-1.102 1.95-1.652 2.924zM51.2 43.7c.094.257.191.506.289.747.527 1.296 1.069 1.726 3.352-.194.219-.184.428-.367.627-.553h1.799a93.164 93.164 0 0 1-1.743 1.889c-.703.724-1.406 1.431-2.104 2.136-.529.52-.332.407-.744.615-.736-.226-2.092-3.366-2.58-4.64h1.104zM73.1 54.89c.28-1.296-3.664-8.783-4.351-9.823a8.299 8.299 0 0 0-1.083-1.368h-6.202c-.147.137-.284.27-.413.396-1.955 1.891-3.903 3.767-5.825 5.63-1.18 1.121-.872 1.22 1.375 2.941.698.537 1.348.955 2.265 1.455 1.503.819 3.72 1.595 6.236 1.879 2.527.279 5.359.078 7.998-1.11zm-9.4-10.208c-2.027-.387-3.546 1.282-4.406 2.214-.991 1.09-2.207 2.418-2.698 3.562-.364.838.383 1.122.866 1.429.47.295.978.638 1.64.956 1.283.62 2.495 1.034 4.038 1.27 1.37.205 4.411.343 5.72-.487 2.068-1.29-1.186-5.946-1.947-7-.864-1.174-1.565-1.634-3.214-1.944zm5.261-27.407c-.019.189-.358 2.476-.384 2.64-.244 1.457-.837 4.593-1.683 7.079h-1.21c.498-1.286 1.042-3.04.992-4.056-.24-.388-2.537-.441-5.12.082-2.552.516-5.393 1.602-6.818 3.515.055.101.225.262.465.459h-.98l-.185.187c-1.019-.58-1.987-1.21-1.904-1.478.114-.355 1.387-1.982 1.87-2.554 1.279-1.507 2.984-3.066 5.176-4.24 1.13-.61 2.298-1.068 3.624-1.463 1.711-.532 4.574-1.076 6.157-.171zm6.01 32.605c1.229-.41 2.632-4.676 2.952-5.983.059-.237.116-.505.17-.794.782.403 1.684.596 2.625.596h3.437c-.86 2.25-2.166 4.386-4.082 6.457-.875.934-3.2 3.024-4.293 3.374-.275-.314-2.711-6.202-2.71-6.686.331.507.67 1.01 1.005 1.514.301.506.56 1.064.896 1.522zm-1.734-32.127c2.535.456 6.316 3.606 7.82 5.391.523.62 1.525 2.184 2.393 3.85h-9.913a19.37 19.37 0 0 0-1.618-1.46c-.315-.262-.621-.61-1.144-.656-.172.639-.241 1.22-.71 1.632.313-1.915.57-9.556 3.172-8.757z" fill="#FFF"></path><path d="M30.266 30.482c-1.427 0-2.73.66-3.91 1.98-.338.444-1.108 1.734-2.309 3.87-.964 1.533-1.448 2.555-1.448 3.065 0 .135.032.298.092.497.292.557.878.834 1.755.834h3.88c1.11 0 1.95-.134 2.526-.401.61-.227 1.266-.724 1.97-1.487.282-.376 1.104-1.8 2.462-4.272.823-1.337 1.232-2.245 1.232-2.723l-.03-.217c-.232-.764-.878-1.146-1.94-1.146h-4.28zm-3.741 7.058v.061c0 .351.268.528.801.528h1.755c1.046 0 1.879-.703 2.493-2.105.802-1.298 1.201-2.08 1.201-2.354v-.093c0-.264-.226-.417-.678-.465H30.22c-1.01 0-1.903.785-2.678 2.354-.677 1.089-1.016 1.78-1.016 2.074zm15.092-7.027h2.832l.032.032h.03l-4.341 7.552v.032h8.806v.06l-4.403 2.54h-8.775v-.032c3.736-6.61 5.675-10.004 5.82-10.184zm13.937-.031H67.13v.063l-4.217 2.536h-5.88c-.197.28-.494.795-.893 1.548h4.064v.063l-3.48 2.013h-1.817l-.8 1.453h8.774l.032.032h.032c-.93 1.667-1.422 2.512-1.48 2.538H49.826l-.029-.031h-.032c3.779-6.728 5.708-10.133 5.789-10.215zm17.57 0c-1.803 0-3.187.65-4.156 1.95-1.088 1.518-1.632 2.516-1.632 3.003v.155l.092.34c.14.495.938.744 2.401.744h3.85c-.048.232-.324.562-.833.99-.492.288-.923.433-1.293.433l-3.08.032c-.075 0-.27.103-.583.31l-3.757 2.229v.06h7.236c.42 0 .943-.103 1.57-.309 1-.309 1.882-.98 2.647-2.013.843-1.294 1.264-2.132 1.264-2.507v-.216l-.063-.28c-.245-.515-.862-.774-1.847-.774h-4.496c.741-1.052 1.55-1.577 2.433-1.577l1.97.029h2.31c.103 0 1.469-.856 4.096-2.568v-.031h-8.129zm13.414 0h4.28c1.061 0 1.708.382 1.939 1.146l.031.217c0 .478-.41 1.386-1.232 2.723-1.358 2.473-2.18 3.896-2.462 4.272-.704.763-1.36 1.26-1.97 1.487-.576.267-1.416.401-2.525.401h-3.881c-.878 0-1.463-.277-1.755-.834a1.77 1.77 0 0 1-.092-.497c0-.51.484-1.532 1.448-3.064 1.2-2.137 1.97-3.427 2.31-3.87 1.18-1.321 2.482-1.981 3.909-1.981zm-3.741 7.058v.061c0 .351.267.528.8.528h1.756c1.046 0 1.878-.703 2.493-2.105.802-1.298 1.2-2.08 1.2-2.354v-.093c0-.264-.225-.417-.677-.465H86.49c-1.009 0-1.902.785-2.676 2.354-.678 1.089-1.017 1.78-1.017 2.074z" fill="#FF2B2B"></path><path d="M111.996 30.466c-.094.119-1.284 2.155-3.573 6.107 0 .05.024.077.071.077h7.189c-.581.943-1.312 1.416-2.194 1.416H107.6c-.063.047-.583.908-1.563 2.586 0 .05.026.076.076.076h6.889c1.857 0 3.373-.723 4.542-2.174.9-1.434 1.348-2.306 1.348-2.618V35.6c0-.064-.026-.178-.079-.341-.236-.497-.98-.745-2.23-.745h-4.028c.565-1.025.864-1.54.893-1.54h5.851c.282-.38.728-1.218 1.34-2.507h-8.644zm-12.552 0h5.888c.82 0 1.39.311 1.708.937a.878.878 0 0 1 .08.41c0 .51-.487 1.508-1.457 2.995-.56.5-1.116.75-1.67.75v.04c.302 0 .525.235.67.711v.108c0 .389-.487 1.226-1.456 2.515-1.093 1.197-2.457 1.796-4.093 1.796h-6.969c-.05 0-.076-.026-.076-.076.9-1.612 1.395-2.473 1.493-2.586h4.503c1.745 0 2.95-.473 3.618-1.416h-4.364v-.077c.728-1.286 1.14-1.96 1.232-2.028h2.23c1.146 0 2.09-.437 2.835-1.308.103-.124.153-.199.153-.225h-5.74l-.072-.04c.849-1.51 1.343-2.345 1.487-2.506z" fill="#FFF"></path><path d="M17.543 30.493l-3.12-.011-5.908 10.284 3.142-.019 2.18-3.804 1.91 3.772 3.89-.03-2.527-4.879 7.346-5.275c-1.248-.006-2.595-.043-3.844-.05l-5.196 3.723 2.127-3.71z" fill="#FF2B2B"></path></g>
		</symbol>
	
		<symbol id="logo2" viewBox="0 0 113 11">
			<title>logo2</title><g fill="none" fill-rule="evenodd"><path d="M22.266.482c-1.427 0-2.73.66-3.91 1.98-.338.444-1.108 1.734-2.309 3.87-.964 1.533-1.448 2.555-1.448 3.065 0 .135.032.298.092.497.292.557.878.834 1.755.834h3.88c1.11 0 1.95-.134 2.526-.401.61-.227 1.266-.724 1.97-1.487.282-.376 1.104-1.8 2.462-4.272.823-1.337 1.232-2.245 1.232-2.723l-.03-.217c-.232-.764-.878-1.146-1.94-1.146h-4.28zM18.525 7.54V7.6c0 .351.268.528.801.528h1.755c1.046 0 1.879-.703 2.493-2.105.802-1.298 1.201-2.08 1.201-2.354v-.093c0-.264-.226-.417-.678-.465H22.22c-1.01 0-1.903.785-2.678 2.354-.677 1.089-1.016 1.78-1.016 2.074zM33.617.513h2.832l.032.032h.03L32.17 8.097v.032h8.806v.06l-4.403 2.54h-8.775v-.032C31.534 4.087 33.473.693 33.618.513zM47.554.482H59.13v.063l-4.217 2.536h-5.88c-.197.28-.494.795-.893 1.548h4.064v.063l-3.48 2.013h-1.817l-.8 1.453h8.774l.032.032h.032c-.93 1.667-1.422 2.512-1.48 2.538H41.826l-.029-.031h-.032C45.544 3.969 47.473.564 47.554.482zm17.57 0c-1.803 0-3.187.65-4.156 1.95-1.088 1.518-1.632 2.516-1.632 3.003v.155l.092.34c.14.495.938.744 2.401.744h3.85c-.048.232-.324.562-.833.99-.492.288-.923.433-1.293.433l-3.08.032c-.075 0-.27.103-.583.31l-3.757 2.229v.06h7.236c.42 0 .943-.103 1.57-.309 1-.309 1.882-.98 2.647-2.013.843-1.294 1.264-2.132 1.264-2.507v-.216l-.063-.28c-.245-.515-.862-.774-1.847-.774h-4.496c.741-1.052 1.55-1.577 2.433-1.577l1.97.029h2.31c.103 0 1.469-.856 4.096-2.568V.482h-8.129zm13.414 0h4.28c1.061 0 1.708.382 1.939 1.146l.031.217c0 .478-.41 1.386-1.232 2.723-1.358 2.473-2.18 3.896-2.462 4.272-.704.763-1.36 1.26-1.97 1.487-.576.267-1.416.401-2.525.401h-3.881c-.878 0-1.463-.277-1.755-.834a1.77 1.77 0 0 1-.092-.497c0-.51.484-1.532 1.448-3.064 1.2-2.137 1.97-3.427 2.31-3.87C75.808 1.142 77.11.482 78.537.482zM74.797 7.54V7.6c0 .351.267.528.8.528h1.756c1.046 0 1.878-.703 2.493-2.105.802-1.298 1.2-2.08 1.2-2.354v-.093c0-.264-.225-.417-.677-.465H78.49c-1.009 0-1.902.785-2.676 2.354-.678 1.089-1.017 1.78-1.017 2.074z" fill="#E20714"></path><path d="M103.996.466c-.094.119-1.284 2.155-3.573 6.107 0 .05.024.077.071.077h7.189c-.581.943-1.312 1.416-2.194 1.416H99.6c-.063.047-.583.908-1.563 2.586 0 .05.026.076.076.076h6.889c1.857 0 3.373-.723 4.542-2.174.9-1.434 1.348-2.306 1.348-2.618V5.6c0-.064-.026-.178-.079-.341-.236-.497-.98-.745-2.23-.745h-4.028c.565-1.025.864-1.54.893-1.54h5.851c.282-.38.728-1.218 1.34-2.507h-8.644zm-12.552 0h5.888c.82 0 1.39.311 1.708.937a.878.878 0 0 1 .08.41c0 .51-.487 1.508-1.457 2.995-.56.5-1.116.75-1.67.75v.04c.302 0 .525.235.67.711v.108c0 .389-.487 1.226-1.456 2.515-1.093 1.197-2.457 1.796-4.093 1.796h-6.969c-.05 0-.076-.026-.076-.076.9-1.612 1.395-2.473 1.493-2.586h4.503c1.745 0 2.95-.473 3.618-1.416h-4.364v-.077c.728-1.286 1.14-1.96 1.232-2.028h2.23c1.146 0 2.09-.437 2.835-1.308.103-.124.153-.199.153-.225h-5.74l-.072-.04C90.806 1.462 91.3.627 91.444.466z" fill="#FFF"></path><path d="M9.543.493L6.423.482.514 10.766l3.142-.019 2.18-3.804 1.91 3.772 3.89-.03L9.11 5.805 16.456.531c-1.248-.006-2.595-.043-3.844-.05L7.416 4.205 9.543.494zM22.266.482c-1.427 0-2.73.66-3.91 1.98-.338.444-1.108 1.734-2.309 3.87-.964 1.533-1.448 2.555-1.448 3.065 0 .135.032.298.092.497.292.557.878.834 1.755.834h3.88c1.11 0 1.95-.134 2.526-.401.61-.227 1.266-.724 1.97-1.487.282-.376 1.104-1.8 2.462-4.272.823-1.337 1.232-2.245 1.232-2.723l-.03-.217c-.232-.764-.878-1.146-1.94-1.146h-4.28zM18.525 7.54V7.6c0 .351.268.528.801.528h1.755c1.046 0 1.879-.703 2.493-2.105.802-1.298 1.201-2.08 1.201-2.354v-.093c0-.264-.226-.417-.678-.465H22.22c-1.01 0-1.903.785-2.678 2.354-.677 1.089-1.016 1.78-1.016 2.074zM33.617.513h2.832l.032.032h.03L32.17 8.097v.032h8.806v.06l-4.403 2.54h-8.775v-.032C31.534 4.087 33.473.693 33.618.513zM47.554.482H59.13v.063l-4.217 2.536h-5.88c-.197.28-.494.795-.893 1.548h4.064v.063l-3.48 2.013h-1.817l-.8 1.453h8.774l.032.032h.032c-.93 1.667-1.422 2.512-1.48 2.538H41.826l-.029-.031h-.032C45.544 3.969 47.473.564 47.554.482zm17.57 0c-1.803 0-3.187.65-4.156 1.95-1.088 1.518-1.632 2.516-1.632 3.003v.155l.092.34c.14.495.938.744 2.401.744h3.85c-.048.232-.324.562-.833.99-.492.288-.923.433-1.293.433l-3.08.032c-.075 0-.27.103-.583.31l-3.757 2.229v.06h7.236c.42 0 .943-.103 1.57-.309 1-.309 1.882-.98 2.647-2.013.843-1.294 1.264-2.132 1.264-2.507v-.216l-.063-.28c-.245-.515-.862-.774-1.847-.774h-4.496c.741-1.052 1.55-1.577 2.433-1.577l1.97.029h2.31c.103 0 1.469-.856 4.096-2.568V.482h-8.129zm13.414 0h4.28c1.061 0 1.708.382 1.939 1.146l.031.217c0 .478-.41 1.386-1.232 2.723-1.358 2.473-2.18 3.896-2.462 4.272-.704.763-1.36 1.26-1.97 1.487-.576.267-1.416.401-2.525.401h-3.881c-.878 0-1.463-.277-1.755-.834a1.77 1.77 0 0 1-.092-.497c0-.51.484-1.532 1.448-3.064 1.2-2.137 1.97-3.427 2.31-3.87C75.808 1.142 77.11.482 78.537.482zM74.797 7.54V7.6c0 .351.267.528.8.528h1.756c1.046 0 1.878-.703 2.493-2.105.802-1.298 1.2-2.08 1.2-2.354v-.093c0-.264-.225-.417-.677-.465H78.49c-1.009 0-1.902.785-2.676 2.354-.678 1.089-1.017 1.78-1.017 2.074z" fill="#E20714"></path><path d="M103.996.466c-.094.119-1.284 2.155-3.573 6.107 0 .05.024.077.071.077h7.189c-.581.943-1.312 1.416-2.194 1.416H99.6c-.063.047-.583.908-1.563 2.586 0 .05.026.076.076.076h6.889c1.857 0 3.373-.723 4.542-2.174.9-1.434 1.348-2.306 1.348-2.618V5.6c0-.064-.026-.178-.079-.341-.236-.497-.98-.745-2.23-.745h-4.028c.565-1.025.864-1.54.893-1.54h5.851c.282-.38.728-1.218 1.34-2.507h-8.644zm-12.552 0h5.888c.82 0 1.39.311 1.708.937a.878.878 0 0 1 .08.41c0 .51-.487 1.508-1.457 2.995-.56.5-1.116.75-1.67.75v.04c.302 0 .525.235.67.711v.108c0 .389-.487 1.226-1.456 2.515-1.093 1.197-2.457 1.796-4.093 1.796h-6.969c-.05 0-.076-.026-.076-.076.9-1.612 1.395-2.473 1.493-2.586h4.503c1.745 0 2.95-.473 3.618-1.416h-4.364v-.077c.728-1.286 1.14-1.96 1.232-2.028h2.23c1.146 0 2.09-.437 2.835-1.308.103-.124.153-.199.153-.225h-5.74l-.072-.04C90.806 1.462 91.3.627 91.444.466z" fill="#FFF"></path><path d="M9.543.493L6.423.482.514 10.766l3.142-.019 2.18-3.804 1.91 3.772 3.89-.03L9.11 5.805 16.456.531c-1.248-.006-2.595-.043-3.844-.05L7.416 4.205 9.543.494z" fill="#E20714"></path></g>
		</symbol>
	
		<symbol id="logo3" viewBox="0 0 208 117">
			<title>logo3</title><g fill="#6B6D78" fill-rule="evenodd"><path d="M131.811 104.994c.14-.1.277-.168.41-.203.134-.035.26-.048.377-.035a.756.756 0 0 1 .543.314c.08.115.108.239.08.372-.03.132-.1.24-.215.321a.585.585 0 0 1-.194.09c-.073.018-.137.024-.195.018a.536.536 0 0 0 .08-.28.412.412 0 0 0-.068-.236.403.403 0 0 0-.262-.16c-.115-.025-.244.014-.384.114a.796.796 0 0 0-.353.58.966.966 0 0 0 .188.672 1.036 1.036 0 0 0 .833.471c.158.006.322-.019.49-.076.167-.056.328-.14.481-.249.351-.25.574-.527.668-.83.093-.301.038-.598-.168-.889a1.32 1.32 0 0 0-.545-.457 7.813 7.813 0 0 0-.684-.268 6.318 6.318 0 0 1-.699-.288 1.568 1.568 0 0 1-.586-.517c-.231-.327-.298-.657-.203-.99.095-.333.337-.638.728-.917.175-.125.347-.21.515-.253.167-.043.323-.053.468-.03a1.034 1.034 0 0 1 .685.417c.118.168.158.328.118.483a.674.674 0 0 1-.277.386 1.01 1.01 0 0 1-.435.182.948.948 0 0 0 .084-.428.643.643 0 0 0-.113-.328c-.11-.154-.24-.242-.393-.262a.624.624 0 0 0-.453.129.627.627 0 0 0-.23.312.544.544 0 0 0-.017.222c.01.08.045.16.104.245.077.11.189.205.333.284.145.079.304.15.477.212.173.063.357.122.551.18.196.055.384.122.566.198.183.076.352.162.51.259.157.097.284.215.385.356.17.243.27.484.3.722.03.237-.003.47-.095.7a2.238 2.238 0 0 1-.448.676c-.205.223-.46.442-.762.658a2.994 2.994 0 0 1-.65.355c-.229.089-.454.136-.679.14a1.407 1.407 0 0 1-.642-.14 1.414 1.414 0 0 1-.544-.482 1.373 1.373 0 0 1-.217-.462 1.097 1.097 0 0 1-.016-.466c.028-.152.087-.298.179-.44.09-.143.216-.27.374-.382zm-13.492 2.114l1.16-.666.085 3.722c.156-.508.352-.92.589-1.235.236-.316.48-.514.73-.599.285-.096.505-.094.657.007.153.1.267.265.344.495.026.078.048.198.065.355a1.33 1.33 0 0 1-.071.539 2.059 2.059 0 0 1-.36.636c-.176.224-.45.437-.818.64l.351.734c.133.274.258.458.38.549.122.09.268.107.44.05a.503.503 0 0 0 .334-.376c.05-.193.07-.427.057-.702l.3-.102c.034.58-.038 1.025-.216 1.337-.179.311-.47.536-.878.672-.314.107-.594.1-.841-.021-.247-.12-.46-.39-.64-.81l-.394-.898.02 2.21-1.167.394-.127-6.93zm1.238 3.897c.524-.241.886-.46 1.086-.659.2-.199.264-.402.195-.611a.244.244 0 0 0-.112-.142c-.054-.03-.128-.03-.22.002-.136.046-.29.181-.46.407-.172.225-.335.56-.489 1.003zm-13.891 2.533c.171-.013.323 0 .456.038.132.039.246.094.34.165a.756.756 0 0 1 .304.55c.011.141-.03.261-.122.36a.51.51 0 0 1-.347.166.586.586 0 0 1-.213-.025.548.548 0 0 1-.176-.084.535.535 0 0 0 .211-.199.407.407 0 0 0 .063-.237.404.404 0 0 0-.142-.274c-.087-.08-.216-.115-.388-.1a.782.782 0 0 0-.6.313.963.963 0 0 0-.183.674c.014.188.063.353.146.493.084.14.192.253.326.342.133.087.287.15.459.188.173.038.353.05.541.036.43-.033.761-.154.997-.365.235-.21.339-.494.311-.85a1.33 1.33 0 0 0-.233-.674 8.371 8.371 0 0 0-.449-.585 6.16 6.16 0 0 1-.45-.608 1.564 1.564 0 0 1-.239-.747c-.03-.4.08-.716.333-.953.252-.236.616-.372 1.094-.409.215-.017.405 0 .57.05a1.066 1.066 0 0 1 .681.547c.064.125.1.253.11.382.016.205-.033.363-.146.475a.665.665 0 0 1-.434.187 1.009 1.009 0 0 1-.468-.07.954.954 0 0 0 .292-.322.639.639 0 0 0 .07-.34c-.013-.189-.08-.33-.201-.428a.625.625 0 0 0-.454-.124.68.68 0 0 0-.184.043.545.545 0 0 0-.302.287.541.541 0 0 0-.037.264c.01.134.058.272.142.415.083.144.183.287.299.43.116.142.242.29.381.439.138.149.266.304.383.463.117.158.218.32.304.485.085.165.134.333.148.506.021.297-.016.554-.113.773a1.369 1.369 0 0 1-.44.55c-.196.148-.44.265-.73.35-.29.084-.62.14-.99.169-.253.02-.5.008-.74-.033a1.932 1.932 0 0 1-.653-.232 1.423 1.423 0 0 1-.48-.452 1.43 1.43 0 0 1-.218-.694 1.374 1.374 0 0 1 .051-.51c.048-.155.123-.29.224-.407.102-.116.229-.211.379-.285.152-.074.324-.119.517-.133zm-12.254.597a7.812 7.812 0 0 0-.133.3c-.051.12-.085.226-.101.315a.308.308 0 0 0 .024.19c.028.058.079.094.153.108a.432.432 0 0 0 .277-.043.852.852 0 0 0 .24-.188c.07-.08.135-.17.191-.272l.152-.279.312.055c-.268.522-.54.879-.82 1.072-.278.193-.61.255-.996.186-.327-.057-.548-.172-.663-.343-.115-.17-.15-.382-.106-.636.012-.067.047-.17.106-.31.058-.14.118-.269.177-.389l.781-1.57c.06-.118.115-.242.168-.367.053-.125.083-.21.092-.255a.444.444 0 0 0-.005-.173c-.013-.057-.057-.092-.131-.104-.119-.022-.243.052-.371.221-.13.17-.249.368-.358.594l-.311-.055c.27-.529.54-.888.815-1.078.274-.19.589-.253.946-.19.274.05.46.156.557.319.097.163.125.368.082.614a1.89 1.89 0 0 1-.108.322c-.06.146-.12.28-.18.4l-.79 1.556zm1.674-5.08c.185.034.313.113.383.236.07.124.091.26.065.41a.856.856 0 0 1-.166.392c-.084.104-.18.189-.291.254a.997.997 0 0 1-.355.126c-.126.02-.249.02-.368-.001a.55.55 0 0 1-.375-.217c-.08-.113-.106-.245-.08-.395a.862.862 0 0 1 .157-.364 1.134 1.134 0 0 1 .655-.426.923.923 0 0 1 .375-.014zm-13.677 1.659l-.195.21a1.16 1.16 0 0 0-.21.303.381.381 0 0 0-.033.21c.01.07.052.124.127.158.082.038.17.044.264.02a.974.974 0 0 0 .278-.122c.093-.058.18-.128.263-.211.083-.083.157-.16.222-.23l.278.127c-.378.452-.725.734-1.04.848-.317.114-.653.09-1.01-.073-.287-.131-.469-.288-.543-.473-.075-.183-.073-.39.006-.62-.25.135-.52.211-.81.23a1.659 1.659 0 0 1-.804-.143c-.358-.162-.576-.39-.655-.68-.081-.289-.031-.634.15-1.034.22-.49.5-.893.836-1.21.337-.315.69-.552 1.058-.709a2.95 2.95 0 0 1 1.086-.247c.355-.009.663.047.924.166.178.081.325.2.44.356.116.157.16.312.132.466l1.703-1.906 1.301.306-3.768 4.258zm.105-2.983c-.159-.073-.362-.048-.61.07-.248.12-.499.29-.751.512-.254.222-.49.473-.713.755-.222.28-.39.55-.505.805a1.128 1.128 0 0 0-.12.47c.003.134.058.225.167.276.125.056.3.04.525-.049.226-.088.467-.232.722-.432a4.97 4.97 0 0 0 .744-.728c.24-.284.438-.6.594-.945.177-.393.159-.638-.053-.734zM136.956 15.518c.13.113.229.23.295.352.066.122.107.242.123.36a.754.754 0 0 1-.173.605.454.454 0 0 1-.34.166.511.511 0 0 1-.362-.132.57.57 0 0 1-.132-.168.569.569 0 0 1-.065-.185c.101.03.198.034.29.01a.401.401 0 0 0 .21-.122.41.41 0 0 0 .094-.294c-.005-.12-.072-.235-.203-.348a.784.784 0 0 0-.644-.206.955.955 0 0 0-.605.344 1.108 1.108 0 0 0-.244.452c-.04.158-.044.316-.011.472.032.157.096.31.19.461.095.15.214.287.356.411.326.284.646.435.96.453.314.02.587-.106.82-.376a1.33 1.33 0 0 0 .31-.642 8.1 8.1 0 0 0 .096-.732c.022-.253.06-.503.112-.75.052-.248.172-.48.358-.697.26-.303.563-.448.907-.434.344.013.698.177 1.06.491.163.142.285.289.367.442.082.153.129.303.142.45a1.06 1.06 0 0 1-.24.768c-.133.156-.28.233-.437.231a.67.67 0 0 1-.44-.177 1.025 1.025 0 0 1-.28-.383c.17.026.314.02.435-.02a.64.64 0 0 0 .289-.188c.123-.144.176-.292.159-.447a.63.63 0 0 0-.233-.411.675.675 0 0 0-.159-.1.522.522 0 0 0-.416-.012.537.537 0 0 0-.211.158.96.96 0 0 0-.195.395c-.042.16-.072.332-.09.515-.02.184-.034.377-.042.582a5.408 5.408 0 0 1-.056.6c-.03.195-.073.382-.129.558-.055.177-.14.33-.252.462-.194.224-.402.38-.624.465a1.35 1.35 0 0 1-.7.074 2.245 2.245 0 0 1-.76-.274 4.93 4.93 0 0 1-.818-.588 3.015 3.015 0 0 1-.498-.55c-.14-.2-.24-.41-.298-.628a1.438 1.438 0 0 1-.018-.66c.044-.222.156-.437.336-.646.119-.14.251-.246.394-.323.144-.075.292-.118.446-.127.154-.01.31.013.468.069.159.055.311.147.458.274zM124.433 9.19c-.385.37-.839.623-1.36.76-.523.138-1.085.09-1.689-.146-.478-.186-.801-.452-.97-.799-.17-.346-.165-.753.014-1.219.172-.445.411-.821.716-1.129a3.295 3.295 0 0 1 1.012-.707c.37-.164.76-.254 1.17-.269a2.91 2.91 0 0 1 1.183.2c.45.175.75.395.897.66.149.265.168.54.059.822a1.278 1.278 0 0 1-.375.499 1.832 1.832 0 0 1-.72.358 3.367 3.367 0 0 1-1.06.094c-.408-.022-.872-.122-1.392-.3a.91.91 0 0 0-.198.245c-.06.103-.106.193-.135.27-.077.199-.085.373-.027.526.058.153.214.278.466.377a1.8 1.8 0 0 0 .583.123c.198.01.394-.01.586-.057.192-.047.378-.116.558-.208.182-.093.352-.196.51-.314l.172.214zm-2.176-1.617c.326.095.628.142.904.14.275-.003.519-.032.73-.087.21-.056.383-.135.516-.238a.778.778 0 0 0 .264-.323.46.46 0 0 0 .008-.32c-.036-.107-.13-.19-.285-.252a.934.934 0 0 0-.481-.04c-.18.027-.364.09-.553.191-.188.102-.377.23-.567.388a3.98 3.98 0 0 0-.536.54zM106.429 1.69a.32.32 0 0 0 .072-.131.753.753 0 0 0 .029-.146c.01-.144-.03-.219-.12-.226-.052-.003-.092.016-.118.06a.346.346 0 0 0-.045.156c0 .083.02.15.058.198.038.049.08.079.124.09zm-.095.95c-.112.189-.25.435-.412.738-.162.303-.332.622-.509.958-.176.336-.35.664-.522.986-.171.321-.326.59-.463.807l-.462-.035c.203-.28.386-.565.552-.853.165-.287.325-.58.48-.88l.471-.916c.16-.31.335-.633.526-.968a.749.749 0 0 1-.252-.332.967.967 0 0 1-.063-.432.989.989 0 0 1 .25-.602.668.668 0 0 1 .583-.223.39.39 0 0 1 .293.164c.075.1.109.212.1.333a.813.813 0 0 1-.182.453c.102.046.224.082.366.108.141.026.287.044.437.056.112.009.242.009.385.001.145-.009.285-.018.422-.03l.376-.035c.114-.01.198-.013.25-.01.053.005.087.027.103.066a.227.227 0 0 1 .023.082c-.008.105-.094.26-.257.464-.162.203-.341.443-.535.716a7.54 7.54 0 0 0-.55.916 2.724 2.724 0 0 0-.3 1.048c-.02.257-.005.429.045.516.05.087.12.134.21.142a.381.381 0 0 0 .26-.072.706.706 0 0 0 .192-.213c.052-.087.098-.185.136-.292.038-.107.072-.205.101-.294l.316.024c-.163.558-.383.943-.66 1.157-.277.215-.618.307-1.024.275-.368-.027-.64-.15-.816-.37-.176-.218-.252-.497-.226-.837.021-.271.092-.534.213-.787.12-.253.27-.492.45-.718a4.16 4.16 0 0 1 .596-.61c.218-.18.434-.334.647-.462a3.205 3.205 0 0 1-.506.103 2.871 2.871 0 0 1-.51.001 2.109 2.109 0 0 1-.28-.044.75.75 0 0 1-.254-.1zM89.914 3.7c.063.274.077.558.045.853-.033.296-.075.583-.127.863l-.144.786c-.045.243-.048.45-.009.62.03.125.084.196.165.212a.522.522 0 0 0 .22.002c.148-.035.28-.173.399-.414.118-.241.223-.551.314-.93.09-.378.166-.808.226-1.287.06-.482.101-.973.126-1.476l1.238-.567-.276 3.9a9.899 9.899 0 0 1-.254 1.726c-.122.48-.291.884-.509 1.214a2.578 2.578 0 0 1-.82.797 4 4 0 0 1-1.187.462c-.463.107-.806.115-1.028.023-.222-.093-.353-.224-.391-.393a.498.498 0 0 1 .088-.452.503.503 0 0 1 .257-.165 1.2 1.2 0 0 0 .359.425c.142.102.37.118.678.046.33-.076.594-.239.792-.487.198-.248.352-.546.461-.894.11-.349.189-.722.236-1.122.047-.4.09-.79.126-1.172-.1.413-.261.76-.486 1.046a1.443 1.443 0 0 1-.821.54 2.006 2.006 0 0 1-.365.05.625.625 0 0 1-.57-.259 1.042 1.042 0 0 1-.167-.398 2.248 2.248 0 0 1-.039-.825c.04-.269.088-.535.148-.797.06-.263.109-.527.149-.793.04-.265.027-.539-.038-.819a.368.368 0 0 0-.062-.144c-.027-.035-.077-.045-.151-.028-.117.027-.203.144-.256.35-.053.208-.09.437-.108.69l-.297.07c.034-.591.14-1.028.32-1.31.178-.283.447-.466.807-.55.264-.06.475-.036.632.076.157.11.263.289.319.531zM73.932 9.746l-.57.325-.089-.432.541-.309-.266-1.39 1.071-.612.295 1.374.639-.366.088.435-.638.364.59 2.771c.014.054.033.146.058.275.026.129.065.24.116.332a.373.373 0 0 0 .153.154c.06.031.13.025.209-.02a.408.408 0 0 0 .18-.208.88.88 0 0 0 .061-.297 1.424 1.424 0 0 0-.025-.332c-.02-.113-.041-.218-.059-.312l.265-.152c.132.57.15 1.02.053 1.349-.096.329-.314.59-.654.786-.282.16-.521.211-.718.155-.198-.058-.358-.198-.485-.422a1.722 1.722 0 0 1-.123-.31 3.454 3.454 0 0 1-.103-.412l-.59-2.746zM80.649 72.612l-7.466-.048c.002 3.996 5.679 12.677 8.684 16.068 8.518 9.612 22.242 15.033 35.576 12.994 3.654-.558 6.628-1.372 9.651-2.626 2.046-.847 7.009-3.348 7.864-4.451-1.026-.452-2.441.227-3.624-.615-.888-.633-1.373-1.85-.963-3.137.765-2.41 4.23-1.734 6.736-1.749l51.577-.015c2.825 0 5.907.496 6.394-2.185.725-3.997-4.188-3.296-5.333-3.296l-42.874.002c-1.346-.002-2.786.108-3.756-.602-.883-.646-1.317-2.147-.73-3.383 1-2.11 4.649-1.449 7.032-1.449h51.365c2.625 0 6.145.637 6.79-1.96.85-3.413-2.315-3.499-4.88-3.497l-43.086-.072c-5.521-.001-11.044-.162-16.556-.079-1.543 2.087-2.645 8.634-11.183 15.267-15.622 12.138-38.734 7.885-49.046-10.571-.607-1.088-1.542-3.7-2.172-4.596"></path><path d="M129.185 99.703c-2.213.253-6.475 3.892-19.246 3.726-6.784-.088-13.314-2.266-18.307-4.992-8.477-4.628-15.371-12.12-18.996-21.465-.435-1.122-1.082-3.49-1.54-4.372l-5.754-.038c.015 4.119 5.42 13.235 8.537 17.055 3.72 4.562 8.441 8.351 14.394 11.38 5.85 2.978 13.104 4.701 21.03 4.453 6.629-.208 15.72-2.752 19.882-5.747"></path><path d="M102.18 106.759c-.42-.34-1.086-.455-1.699-.556-17.926-2.95-32.233-16.268-37.299-33.616l-5.921-.025c-.052 3.38 4.108 11.06 5.852 13.799 2.514 3.946 5.769 7.488 9.381 10.414 7.174 5.812 17.514 10.492 29.685 9.984M75.024 38.123l8.172.045c10.022-16.755 30.53-21.763 46.245-11.644 5.827 3.752 7.507 6.571 11.104 11.648h7.985c.01-1.86-4.448-8.032-5.578-9.432-13.055-16.178-36.73-19.586-54.284-7.398-2.85 1.98-5.958 4.832-7.956 7.362-1.332 1.686-5.485 7.519-5.688 9.419M67.62 30.435l1.416.193c2.798-5.243 10.16-11.779 15.035-14.752 10.186-6.214 17.378-5.779 19.434-6.726-11.93-.544-24.498 3.721-32.915 11.732-.902.859-1.038.693-2.457.679-1.183-.01-64.412-.186-65.795.057-1.627.286-2.679 2.097-1.913 3.819.739 1.662 2.36 1.632 4.238 1.623 1.982-.008 3.959-.003 5.944-.003h48.18c3.902 0 9.083-1.276 8.832 3.378M19.52 37.94l45.21.175c.576-.434 1.54-2.69 1.773-3.502-.7-.948-2.373-2.185-3.684-2.184l-46.915.008c-1.3.012-2.044.217-2.692 1.162-.554.808-.663 2.019-.089 2.97 1.155 1.906 4.004 1.362 6.398 1.371"></path><path d="M69.494 32.983c-.522.815-2.398 4.29-2.39 5.183l5.827-.001c1.242-2.604 2.208-4.562 3.76-6.9 10.73-16.178 30.818-22.856 49.266-16.152.833.303 3.245 1.483 3.692 1.42-2.172-1.758-8.734-4.066-11.776-4.802-12.602-3.05-25.599-.319-35.948 7.11-5.123 3.678-9.037 8.853-12.43 14.142"></path><path d="M80.335 53.84c-1.371-.496-.503-2.222.152-4.964.646-1.766 1.307-3.529 1.962-5.307.9.35 1.579.85 2.53 1.353l.285.157c-.776 1.305-1.54 2.763-1.987 3.554a1949.51 1949.51 0 0 0-2.942 5.208zm2.841 16.98c.168.458.34.901.515 1.33.938 2.309 1.903 3.074 5.969-.346.39-.326.762-.653 1.118-.983h3.202a165.91 165.91 0 0 1-3.104 3.363c-1.252 1.29-2.503 2.549-3.747 3.805-.94.923-.59.724-1.325 1.095-1.31-.404-3.724-5.995-4.594-8.263h1.966zm39.002 19.93c.498-2.308-6.525-15.641-7.749-17.494-.524-.808-1.156-1.665-1.927-2.435h-11.045c-.262.242-.507.48-.736.704-3.482 3.368-6.95 6.708-10.374 10.026-2.101 1.997-1.552 2.174 2.448 5.238 1.245.957 2.402 1.7 4.034 2.59 2.678 1.46 6.626 2.841 11.107 3.347 4.5.497 9.542.139 14.242-1.976zM105.437 72.57c-3.608-.689-6.313 2.282-7.845 3.943-1.765 1.941-3.93 4.306-4.805 6.342-.649 1.493.683 1.999 1.542 2.545.839.525 1.742 1.136 2.921 1.704 2.284 1.104 4.443 1.84 7.192 2.26 2.44.366 7.855.611 10.185-.866 3.684-2.3-2.112-10.589-3.468-12.467-1.537-2.09-2.786-2.91-5.722-3.46zm9.37-48.808c-.033.337-.638 4.41-.684 4.703-.435 2.594-1.49 8.179-2.997 12.605h-2.153c.884-2.29 1.854-5.414 1.764-7.222-.425-.692-4.517-.786-9.118.145-4.543.92-9.603 2.854-12.14 6.26.097.18.401.467.828.817h-1.745l-.33.333c-1.814-1.031-3.538-2.154-3.39-2.63.203-.634 2.47-3.53 3.331-4.55 2.276-2.683 5.312-5.46 9.216-7.549 2.011-1.088 4.092-1.904 6.453-2.607 3.048-.947 8.145-1.916 10.966-.305zm10.702 58.064c2.19-.73 4.688-8.328 5.258-10.655.105-.422.206-.898.301-1.414 1.395.719 3 1.063 4.677 1.063h6.12c-1.533 4.006-3.857 7.81-7.269 11.497-1.558 1.664-5.698 5.386-7.645 6.01-.49-.56-4.828-11.046-4.828-11.908.591.903 1.194 1.8 1.79 2.698.537.9 1 1.894 1.596 2.71zm-3.088-57.211c4.516.812 11.249 6.421 13.926 9.6.933 1.104 2.717 3.889 4.263 6.855h-17.654a34.495 34.495 0 0 0-2.882-2.6c-.56-.466-1.106-1.087-2.036-1.167-.306 1.136-.43 2.171-1.265 2.905.557-3.41 1.016-17.018 5.648-15.593zM45.898 47.282c-2.54 0-4.86 1.176-6.961 3.528-.604.79-1.976 3.086-4.114 6.892-1.716 2.728-2.578 4.549-2.578 5.457 0 .24.056.531.164.884.52.993 1.563 1.487 3.125 1.487h6.911c1.974 0 3.472-.24 4.497-.715 1.085-.405 2.255-1.289 3.51-2.649.5-.668 1.964-3.203 4.383-7.606 1.465-2.381 2.194-3.998 2.194-4.85l-.055-.386c-.413-1.36-1.563-2.042-3.454-2.042h-7.622zm-6.662 12.57v.109c0 .625.477.94 1.427.94h3.125c1.862 0 3.346-1.251 4.44-3.749 1.427-2.31 2.138-3.702 2.138-4.192v-.165c0-.47-.402-.743-1.206-.828h-3.346c-1.797 0-3.387 1.398-4.768 4.192-1.206 1.938-1.81 3.171-1.81 3.693zm26.877-12.514h5.044l.056.057h.052l-7.73 13.45v.056h15.683v.108l-7.841 4.521H55.749v-.056c6.653-11.77 10.106-17.816 10.364-18.136zm24.818-.056h20.615v.113l-7.51 4.516h-10.47c-.351.498-.88 1.416-1.591 2.757h7.238v.113l-6.2 3.584H89.78l-1.427 2.588h15.627l.057.056h.056c-1.656 2.969-2.53 4.474-2.634 4.521H80.732l-.052-.056h-.057c6.729-11.982 10.164-18.046 10.308-18.192zm31.29 0c-3.21 0-5.676 1.158-7.402 3.472-1.937 2.705-2.905 4.483-2.905 5.349v.277l.163.606c.248.88 1.67 1.323 4.277 1.323h6.854c-.084.414-.576 1.002-1.483 1.764-.875.513-1.642.771-2.302.771l-5.483.057c-.136 0-.482.184-1.04.55l-6.69 3.971v.108h12.886c.748 0 1.68-.183 2.797-.55 1.778-.551 3.35-1.746 4.712-3.585 1.502-2.305 2.25-3.797 2.25-4.465v-.385l-.112-.5c-.435-.916-1.534-1.377-3.289-1.377h-8.006c1.32-1.873 2.76-2.809 4.333-2.809l3.51.052h4.112c.183 0 2.616-1.524 7.295-4.573v-.056H122.22zm23.887 0h7.623c1.89 0 3.04.682 3.452 2.042l.056.386c0 .852-.73 2.469-2.194 4.85-2.419 4.403-3.883 6.938-4.384 7.606-1.254 1.36-2.424 2.244-3.51 2.65-1.024.474-2.52.714-4.496.714h-6.91c-1.563 0-2.606-.494-3.126-1.487-.107-.353-.164-.644-.164-.884 0-.908.861-2.729 2.579-5.457 2.137-3.806 3.509-6.102 4.112-6.892 2.101-2.352 4.422-3.528 6.962-3.528zm-6.662 12.57v.109c0 .625.477.94 1.427.94h3.125c1.863 0 3.346-1.251 4.44-3.749 1.428-2.31 2.138-3.702 2.138-4.192v-.165c0-.47-.402-.743-1.206-.828h-3.346c-1.797 0-3.388 1.398-4.767 4.192-1.207 1.938-1.811 3.171-1.811 3.693zM191.446 47.254c-.168.212-2.288 3.838-6.364 10.876 0 .09.042.137.127.137h12.801c-1.034 1.679-2.335 2.521-3.907 2.521h-10.485c-.112.085-1.039 1.618-2.784 4.606 0 .089.047.136.136.136h12.267c3.309 0 6.009-1.289 8.09-3.872 1.6-2.554 2.4-4.106 2.4-4.662v-.601c0-.113-.046-.316-.14-.607-.421-.885-1.745-1.327-3.972-1.327h-7.173c1.006-1.825 1.54-2.743 1.591-2.743h10.42c.5-.677 1.296-2.168 2.386-4.464h-15.393zm-22.353 0h10.485c1.46 0 2.476.555 3.042 1.67.093.174.14.419.14.73 0 .907-.865 2.686-2.593 5.333-.996.89-1.988 1.337-2.975 1.337v.07c.538 0 .936.419 1.193 1.266v.193c0 .691-.866 2.182-2.592 4.478-1.946 2.13-4.375 3.199-7.29 3.199h-12.408c-.09 0-.136-.047-.136-.136 1.6-2.87 2.484-4.404 2.658-4.606h8.02c3.106 0 5.253-.842 6.442-2.521h-7.772v-.137c1.297-2.29 2.031-3.49 2.195-3.612h3.973c2.04 0 3.719-.777 5.047-2.33.184-.22.272-.352.272-.4h-10.223l-.126-.07c1.51-2.69 2.39-4.177 2.648-4.464zM23.24 47.303l-5.557-.02-10.52 18.313 5.597-.033 3.883-6.774 3.401 6.717 6.925-.055-4.5-8.686 13.083-9.394c-2.222-.012-4.622-.077-6.846-.089l-9.254 6.63 3.788-6.609zM131.811 104.994c.14-.1.277-.168.41-.203.134-.035.26-.048.377-.035a.756.756 0 0 1 .543.314c.08.115.108.239.08.372-.03.132-.1.24-.215.321a.585.585 0 0 1-.194.09c-.073.018-.137.024-.195.018a.536.536 0 0 0 .08-.28.412.412 0 0 0-.068-.236.403.403 0 0 0-.262-.16c-.115-.025-.244.014-.384.114a.796.796 0 0 0-.353.58.966.966 0 0 0 .188.672 1.036 1.036 0 0 0 .833.471c.158.006.322-.019.49-.076.167-.056.328-.14.481-.249.351-.25.574-.527.668-.83.093-.301.038-.598-.168-.889a1.32 1.32 0 0 0-.545-.457 7.813 7.813 0 0 0-.684-.268 6.318 6.318 0 0 1-.699-.288 1.568 1.568 0 0 1-.586-.517c-.231-.327-.298-.657-.203-.99.095-.333.337-.638.728-.917.175-.125.347-.21.515-.253.167-.043.323-.053.468-.03a1.034 1.034 0 0 1 .685.417c.118.168.158.328.118.483a.674.674 0 0 1-.277.386 1.01 1.01 0 0 1-.435.182.948.948 0 0 0 .084-.428.643.643 0 0 0-.113-.328c-.11-.154-.24-.242-.393-.262a.624.624 0 0 0-.453.129.627.627 0 0 0-.23.312.544.544 0 0 0-.017.222c.01.08.045.16.104.245.077.11.189.205.333.284.145.079.304.15.477.212.173.063.357.122.551.18.196.055.384.122.566.198.183.076.352.162.51.259.157.097.284.215.385.356.17.243.27.484.3.722.03.237-.003.47-.095.7a2.238 2.238 0 0 1-.448.676c-.205.223-.46.442-.762.658a2.994 2.994 0 0 1-.65.355c-.229.089-.454.136-.679.14a1.407 1.407 0 0 1-.642-.14 1.414 1.414 0 0 1-.544-.482 1.373 1.373 0 0 1-.217-.462 1.097 1.097 0 0 1-.016-.466c.028-.152.087-.298.179-.44.09-.143.216-.27.374-.382zm-13.492 2.114l1.16-.666.085 3.722c.156-.508.352-.92.589-1.235.236-.316.48-.514.73-.599.285-.096.505-.094.657.007.153.1.267.265.344.495.026.078.048.198.065.355a1.33 1.33 0 0 1-.071.539 2.059 2.059 0 0 1-.36.636c-.176.224-.45.437-.818.64l.351.734c.133.274.258.458.38.549.122.09.268.107.44.05a.503.503 0 0 0 .334-.376c.05-.193.07-.427.057-.702l.3-.102c.034.58-.038 1.025-.216 1.337-.179.311-.47.536-.878.672-.314.107-.594.1-.841-.021-.247-.12-.46-.39-.64-.81l-.394-.898.02 2.21-1.167.394-.127-6.93zm1.238 3.897c.524-.241.886-.46 1.086-.659.2-.199.264-.402.195-.611a.244.244 0 0 0-.112-.142c-.054-.03-.128-.03-.22.002-.136.046-.29.181-.46.407-.172.225-.335.56-.489 1.003zm-13.891 2.533c.171-.013.323 0 .456.038.132.039.246.094.34.165a.756.756 0 0 1 .304.55c.011.141-.03.261-.122.36a.51.51 0 0 1-.347.166.586.586 0 0 1-.213-.025.548.548 0 0 1-.176-.084.535.535 0 0 0 .211-.199.407.407 0 0 0 .063-.237.404.404 0 0 0-.142-.274c-.087-.08-.216-.115-.388-.1a.782.782 0 0 0-.6.313.963.963 0 0 0-.183.674c.014.188.063.353.146.493.084.14.192.253.326.342.133.087.287.15.459.188.173.038.353.05.541.036.43-.033.761-.154.997-.365.235-.21.339-.494.311-.85a1.33 1.33 0 0 0-.233-.674 8.371 8.371 0 0 0-.449-.585 6.16 6.16 0 0 1-.45-.608 1.564 1.564 0 0 1-.239-.747c-.03-.4.08-.716.333-.953.252-.236.616-.372 1.094-.409.215-.017.405 0 .57.05a1.066 1.066 0 0 1 .681.547c.064.125.1.253.11.382.016.205-.033.363-.146.475a.665.665 0 0 1-.434.187 1.009 1.009 0 0 1-.468-.07.954.954 0 0 0 .292-.322.639.639 0 0 0 .07-.34c-.013-.189-.08-.33-.201-.428a.625.625 0 0 0-.454-.124.68.68 0 0 0-.184.043.545.545 0 0 0-.302.287.541.541 0 0 0-.037.264c.01.134.058.272.142.415.083.144.183.287.299.43.116.142.242.29.381.439.138.149.266.304.383.463.117.158.218.32.304.485.085.165.134.333.148.506.021.297-.016.554-.113.773a1.369 1.369 0 0 1-.44.55c-.196.148-.44.265-.73.35-.29.084-.62.14-.99.169-.253.02-.5.008-.74-.033a1.932 1.932 0 0 1-.653-.232 1.423 1.423 0 0 1-.48-.452 1.43 1.43 0 0 1-.218-.694 1.374 1.374 0 0 1 .051-.51c.048-.155.123-.29.224-.407.102-.116.229-.211.379-.285.152-.074.324-.119.517-.133zm-12.254.597a7.812 7.812 0 0 0-.133.3c-.051.12-.085.226-.101.315a.308.308 0 0 0 .024.19c.028.058.079.094.153.108a.432.432 0 0 0 .277-.043.852.852 0 0 0 .24-.188c.07-.08.135-.17.191-.272l.152-.279.312.055c-.268.522-.54.879-.82 1.072-.278.193-.61.255-.996.186-.327-.057-.548-.172-.663-.343-.115-.17-.15-.382-.106-.636.012-.067.047-.17.106-.31.058-.14.118-.269.177-.389l.781-1.57c.06-.118.115-.242.168-.367.053-.125.083-.21.092-.255a.444.444 0 0 0-.005-.173c-.013-.057-.057-.092-.131-.104-.119-.022-.243.052-.371.221-.13.17-.249.368-.358.594l-.311-.055c.27-.529.54-.888.815-1.078.274-.19.589-.253.946-.19.274.05.46.156.557.319.097.163.125.368.082.614a1.89 1.89 0 0 1-.108.322c-.06.146-.12.28-.18.4l-.79 1.556zm1.674-5.08c.185.034.313.113.383.236.07.124.091.26.065.41a.856.856 0 0 1-.166.392c-.084.104-.18.189-.291.254a.997.997 0 0 1-.355.126c-.126.02-.249.02-.368-.001a.55.55 0 0 1-.375-.217c-.08-.113-.106-.245-.08-.395a.862.862 0 0 1 .157-.364 1.134 1.134 0 0 1 .655-.426.923.923 0 0 1 .375-.014zm-13.677 1.659l-.195.21a1.16 1.16 0 0 0-.21.303.381.381 0 0 0-.033.21c.01.07.052.124.127.158.082.038.17.044.264.02a.974.974 0 0 0 .278-.122c.093-.058.18-.128.263-.211.083-.083.157-.16.222-.23l.278.127c-.378.452-.725.734-1.04.848-.317.114-.653.09-1.01-.073-.287-.131-.469-.288-.543-.473-.075-.183-.073-.39.006-.62-.25.135-.52.211-.81.23a1.659 1.659 0 0 1-.804-.143c-.358-.162-.576-.39-.655-.68-.081-.289-.031-.634.15-1.034.22-.49.5-.893.836-1.21.337-.315.69-.552 1.058-.709a2.95 2.95 0 0 1 1.086-.247c.355-.009.663.047.924.166.178.081.325.2.44.356.116.157.16.312.132.466l1.703-1.906 1.301.306-3.768 4.258zm.105-2.983c-.159-.073-.362-.048-.61.07-.248.12-.499.29-.751.512-.254.222-.49.473-.713.755-.222.28-.39.55-.505.805a1.128 1.128 0 0 0-.12.47c.003.134.058.225.167.276.125.056.3.04.525-.049.226-.088.467-.232.722-.432a4.97 4.97 0 0 0 .744-.728c.24-.284.438-.6.594-.945.177-.393.159-.638-.053-.734zM136.956 15.518c.13.113.229.23.295.352.066.122.107.242.123.36a.754.754 0 0 1-.173.605.454.454 0 0 1-.34.166.511.511 0 0 1-.362-.132.57.57 0 0 1-.132-.168.569.569 0 0 1-.065-.185c.101.03.198.034.29.01a.401.401 0 0 0 .21-.122.41.41 0 0 0 .094-.294c-.005-.12-.072-.235-.203-.348a.784.784 0 0 0-.644-.206.955.955 0 0 0-.605.344 1.108 1.108 0 0 0-.244.452c-.04.158-.044.316-.011.472.032.157.096.31.19.461.095.15.214.287.356.411.326.284.646.435.96.453.314.02.587-.106.82-.376a1.33 1.33 0 0 0 .31-.642 8.1 8.1 0 0 0 .096-.732c.022-.253.06-.503.112-.75.052-.248.172-.48.358-.697.26-.303.563-.448.907-.434.344.013.698.177 1.06.491.163.142.285.289.367.442.082.153.129.303.142.45a1.06 1.06 0 0 1-.24.768c-.133.156-.28.233-.437.231a.67.67 0 0 1-.44-.177 1.025 1.025 0 0 1-.28-.383c.17.026.314.02.435-.02a.64.64 0 0 0 .289-.188c.123-.144.176-.292.159-.447a.63.63 0 0 0-.233-.411.675.675 0 0 0-.159-.1.522.522 0 0 0-.416-.012.537.537 0 0 0-.211.158.96.96 0 0 0-.195.395c-.042.16-.072.332-.09.515-.02.184-.034.377-.042.582a5.408 5.408 0 0 1-.056.6c-.03.195-.073.382-.129.558-.055.177-.14.33-.252.462-.194.224-.402.38-.624.465a1.35 1.35 0 0 1-.7.074 2.245 2.245 0 0 1-.76-.274 4.93 4.93 0 0 1-.818-.588 3.015 3.015 0 0 1-.498-.55c-.14-.2-.24-.41-.298-.628a1.438 1.438 0 0 1-.018-.66c.044-.222.156-.437.336-.646.119-.14.251-.246.394-.323.144-.075.292-.118.446-.127.154-.01.31.013.468.069.159.055.311.147.458.274zM124.433 9.19c-.385.37-.839.623-1.36.76-.523.138-1.085.09-1.689-.146-.478-.186-.801-.452-.97-.799-.17-.346-.165-.753.014-1.219.172-.445.411-.821.716-1.129a3.295 3.295 0 0 1 1.012-.707c.37-.164.76-.254 1.17-.269a2.91 2.91 0 0 1 1.183.2c.45.175.75.395.897.66.149.265.168.54.059.822a1.278 1.278 0 0 1-.375.499 1.832 1.832 0 0 1-.72.358 3.367 3.367 0 0 1-1.06.094c-.408-.022-.872-.122-1.392-.3a.91.91 0 0 0-.198.245c-.06.103-.106.193-.135.27-.077.199-.085.373-.027.526.058.153.214.278.466.377a1.8 1.8 0 0 0 .583.123c.198.01.394-.01.586-.057.192-.047.378-.116.558-.208.182-.093.352-.196.51-.314l.172.214zm-2.176-1.617c.326.095.628.142.904.14.275-.003.519-.032.73-.087.21-.056.383-.135.516-.238a.778.778 0 0 0 .264-.323.46.46 0 0 0 .008-.32c-.036-.107-.13-.19-.285-.252a.934.934 0 0 0-.481-.04c-.18.027-.364.09-.553.191-.188.102-.377.23-.567.388a3.98 3.98 0 0 0-.536.54zM106.429 1.69a.32.32 0 0 0 .072-.131.753.753 0 0 0 .029-.146c.01-.144-.03-.219-.12-.226-.052-.003-.092.016-.118.06a.346.346 0 0 0-.045.156c0 .083.02.15.058.198.038.049.08.079.124.09zm-.095.95c-.112.189-.25.435-.412.738-.162.303-.332.622-.509.958-.176.336-.35.664-.522.986-.171.321-.326.59-.463.807l-.462-.035c.203-.28.386-.565.552-.853.165-.287.325-.58.48-.88l.471-.916c.16-.31.335-.633.526-.968a.749.749 0 0 1-.252-.332.967.967 0 0 1-.063-.432.989.989 0 0 1 .25-.602.668.668 0 0 1 .583-.223.39.39 0 0 1 .293.164c.075.1.109.212.1.333a.813.813 0 0 1-.182.453c.102.046.224.082.366.108.141.026.287.044.437.056.112.009.242.009.385.001.145-.009.285-.018.422-.03l.376-.035c.114-.01.198-.013.25-.01.053.005.087.027.103.066a.227.227 0 0 1 .023.082c-.008.105-.094.26-.257.464-.162.203-.341.443-.535.716a7.54 7.54 0 0 0-.55.916 2.724 2.724 0 0 0-.3 1.048c-.02.257-.005.429.045.516.05.087.12.134.21.142a.381.381 0 0 0 .26-.072.706.706 0 0 0 .192-.213c.052-.087.098-.185.136-.292.038-.107.072-.205.101-.294l.316.024c-.163.558-.383.943-.66 1.157-.277.215-.618.307-1.024.275-.368-.027-.64-.15-.816-.37-.176-.218-.252-.497-.226-.837.021-.271.092-.534.213-.787.12-.253.27-.492.45-.718a4.16 4.16 0 0 1 .596-.61c.218-.18.434-.334.647-.462a3.205 3.205 0 0 1-.506.103 2.871 2.871 0 0 1-.51.001 2.109 2.109 0 0 1-.28-.044.75.75 0 0 1-.254-.1zM89.914 3.7c.063.274.077.558.045.853-.033.296-.075.583-.127.863l-.144.786c-.045.243-.048.45-.009.62.03.125.084.196.165.212a.522.522 0 0 0 .22.002c.148-.035.28-.173.399-.414.118-.241.223-.551.314-.93.09-.378.166-.808.226-1.287.06-.482.101-.973.126-1.476l1.238-.567-.276 3.9a9.899 9.899 0 0 1-.254 1.726c-.122.48-.291.884-.509 1.214a2.578 2.578 0 0 1-.82.797 4 4 0 0 1-1.187.462c-.463.107-.806.115-1.028.023-.222-.093-.353-.224-.391-.393a.498.498 0 0 1 .088-.452.503.503 0 0 1 .257-.165 1.2 1.2 0 0 0 .359.425c.142.102.37.118.678.046.33-.076.594-.239.792-.487.198-.248.352-.546.461-.894.11-.349.189-.722.236-1.122.047-.4.09-.79.126-1.172-.1.413-.261.76-.486 1.046a1.443 1.443 0 0 1-.821.54 2.006 2.006 0 0 1-.365.05.625.625 0 0 1-.57-.259 1.042 1.042 0 0 1-.167-.398 2.248 2.248 0 0 1-.039-.825c.04-.269.088-.535.148-.797.06-.263.109-.527.149-.793.04-.265.027-.539-.038-.819a.368.368 0 0 0-.062-.144c-.027-.035-.077-.045-.151-.028-.117.027-.203.144-.256.35-.053.208-.09.437-.108.69l-.297.07c.034-.591.14-1.028.32-1.31.178-.283.447-.466.807-.55.264-.06.475-.036.632.076.157.11.263.289.319.531zM73.932 9.746l-.57.325-.089-.432.541-.309-.266-1.39 1.071-.612.295 1.374.639-.366.088.435-.638.364.59 2.771c.014.054.033.146.058.275.026.129.065.24.116.332a.373.373 0 0 0 .153.154c.06.031.13.025.209-.02a.408.408 0 0 0 .18-.208.88.88 0 0 0 .061-.297 1.424 1.424 0 0 0-.025-.332c-.02-.113-.041-.218-.059-.312l.265-.152c.132.57.15 1.02.053 1.349-.096.329-.314.59-.654.786-.282.16-.521.211-.718.155-.198-.058-.358-.198-.485-.422a1.722 1.722 0 0 1-.123-.31 3.454 3.454 0 0 1-.103-.412l-.59-2.746z"></path><path d="M80.649 72.612l-7.466-.048c.002 3.996 5.679 12.677 8.684 16.068 8.518 9.612 22.242 15.033 35.576 12.994 3.654-.558 6.628-1.372 9.651-2.626 2.046-.847 7.009-3.348 7.864-4.451-1.026-.452-2.441.227-3.624-.615-.888-.633-1.373-1.85-.963-3.137.765-2.41 4.23-1.734 6.736-1.749l51.577-.015c2.825 0 5.907.496 6.394-2.185.725-3.997-4.188-3.296-5.333-3.296l-42.874.002c-1.346-.002-2.786.108-3.756-.602-.883-.646-1.317-2.147-.73-3.383 1-2.11 4.649-1.449 7.032-1.449h51.365c2.625 0 6.145.637 6.79-1.96.85-3.413-2.315-3.499-4.88-3.497l-43.086-.072c-5.521-.001-11.044-.162-16.556-.079-1.543 2.087-2.645 8.634-11.183 15.267-15.622 12.138-38.734 7.885-49.046-10.571-.607-1.088-1.542-3.7-2.172-4.596"></path><path d="M129.185 99.703c-2.213.253-6.475 3.892-19.246 3.726-6.784-.088-13.314-2.266-18.307-4.992-8.477-4.628-15.371-12.12-18.996-21.465-.435-1.122-1.082-3.49-1.54-4.372l-5.754-.038c.015 4.119 5.42 13.235 8.537 17.055 3.72 4.562 8.441 8.351 14.394 11.38 5.85 2.978 13.104 4.701 21.03 4.453 6.629-.208 15.72-2.752 19.882-5.747"></path><path d="M102.18 106.759c-.42-.34-1.086-.455-1.699-.556-17.926-2.95-32.233-16.268-37.299-33.616l-5.921-.025c-.052 3.38 4.108 11.06 5.852 13.799 2.514 3.946 5.769 7.488 9.381 10.414 7.174 5.812 17.514 10.492 29.685 9.984M75.024 38.123l8.172.045c10.022-16.755 30.53-21.763 46.245-11.644 5.827 3.752 7.507 6.571 11.104 11.648h7.985c.01-1.86-4.448-8.032-5.578-9.432-13.055-16.178-36.73-19.586-54.284-7.398-2.85 1.98-5.958 4.832-7.956 7.362-1.332 1.686-5.485 7.519-5.688 9.419M67.62 30.435l1.416.193c2.798-5.243 10.16-11.779 15.035-14.752 10.186-6.214 17.378-5.779 19.434-6.726-11.93-.544-24.498 3.721-32.915 11.732-.902.859-1.038.693-2.457.679-1.183-.01-64.412-.186-65.795.057-1.627.286-2.679 2.097-1.913 3.819.739 1.662 2.36 1.632 4.238 1.623 1.982-.008 3.959-.003 5.944-.003h48.18c3.902 0 9.083-1.276 8.832 3.378M19.52 37.94l45.21.175c.576-.434 1.54-2.69 1.773-3.502-.7-.948-2.373-2.185-3.684-2.184l-46.915.008c-1.3.012-2.044.217-2.692 1.162-.554.808-.663 2.019-.089 2.97 1.155 1.906 4.004 1.362 6.398 1.371"></path><path d="M69.494 32.983c-.522.815-2.398 4.29-2.39 5.183l5.827-.001c1.242-2.604 2.208-4.562 3.76-6.9 10.73-16.178 30.818-22.856 49.266-16.152.833.303 3.245 1.483 3.692 1.42-2.172-1.758-8.734-4.066-11.776-4.802-12.602-3.05-25.599-.319-35.948 7.11-5.123 3.678-9.037 8.853-12.43 14.142"></path><path d="M80.335 53.84c-1.371-.496-.503-2.222.152-4.964.646-1.766 1.307-3.529 1.962-5.307.9.35 1.579.85 2.53 1.353l.285.157c-.776 1.305-1.54 2.763-1.987 3.554a1949.51 1949.51 0 0 0-2.942 5.208zm2.841 16.98c.168.458.34.901.515 1.33.938 2.309 1.903 3.074 5.969-.346.39-.326.762-.653 1.118-.983h3.202a165.91 165.91 0 0 1-3.104 3.363c-1.252 1.29-2.503 2.549-3.747 3.805-.94.923-.59.724-1.325 1.095-1.31-.404-3.724-5.995-4.594-8.263h1.966zm39.002 19.93c.498-2.308-6.525-15.641-7.749-17.494-.524-.808-1.156-1.665-1.927-2.435h-11.045c-.262.242-.507.48-.736.704-3.482 3.368-6.95 6.708-10.374 10.026-2.101 1.997-1.552 2.174 2.448 5.238 1.245.957 2.402 1.7 4.034 2.59 2.678 1.46 6.626 2.841 11.107 3.347 4.5.497 9.542.139 14.242-1.976zM105.437 72.57c-3.608-.689-6.313 2.282-7.845 3.943-1.765 1.941-3.93 4.306-4.805 6.342-.649 1.493.683 1.999 1.542 2.545.839.525 1.742 1.136 2.921 1.704 2.284 1.104 4.443 1.84 7.192 2.26 2.44.366 7.855.611 10.185-.866 3.684-2.3-2.112-10.589-3.468-12.467-1.537-2.09-2.786-2.91-5.722-3.46zm9.37-48.808c-.033.337-.638 4.41-.684 4.703-.435 2.594-1.49 8.179-2.997 12.605h-2.153c.884-2.29 1.854-5.414 1.764-7.222-.425-.692-4.517-.786-9.118.145-4.543.92-9.603 2.854-12.14 6.26.097.18.401.467.828.817h-1.745l-.33.333c-1.814-1.031-3.538-2.154-3.39-2.63.203-.634 2.47-3.53 3.331-4.55 2.276-2.683 5.312-5.46 9.216-7.549 2.011-1.088 4.092-1.904 6.453-2.607 3.048-.947 8.145-1.916 10.966-.305zm10.702 58.064c2.19-.73 4.688-8.328 5.258-10.655.105-.422.206-.898.301-1.414 1.395.719 3 1.063 4.677 1.063h6.12c-1.533 4.006-3.857 7.81-7.269 11.497-1.558 1.664-5.698 5.386-7.645 6.01-.49-.56-4.828-11.046-4.828-11.908.591.903 1.194 1.8 1.79 2.698.537.9 1 1.894 1.596 2.71zm-3.088-57.211c4.516.812 11.249 6.421 13.926 9.6.933 1.104 2.717 3.889 4.263 6.855h-17.654a34.495 34.495 0 0 0-2.882-2.6c-.56-.466-1.106-1.087-2.036-1.167-.306 1.136-.43 2.171-1.265 2.905.557-3.41 1.016-17.018 5.648-15.593zM45.898 47.282c-2.54 0-4.86 1.176-6.961 3.528-.604.79-1.976 3.086-4.114 6.892-1.716 2.728-2.578 4.549-2.578 5.457 0 .24.056.531.164.884.52.993 1.563 1.487 3.125 1.487h6.911c1.974 0 3.472-.24 4.497-.715 1.085-.405 2.255-1.289 3.51-2.649.5-.668 1.964-3.203 4.383-7.606 1.465-2.381 2.194-3.998 2.194-4.85l-.055-.386c-.413-1.36-1.563-2.042-3.454-2.042h-7.622zm-6.662 12.57v.109c0 .625.477.94 1.427.94h3.125c1.862 0 3.346-1.251 4.44-3.749 1.427-2.31 2.138-3.702 2.138-4.192v-.165c0-.47-.402-.743-1.206-.828h-3.346c-1.797 0-3.387 1.398-4.768 4.192-1.206 1.938-1.81 3.171-1.81 3.693zm26.877-12.514h5.044l.056.057h.052l-7.73 13.45v.056h15.683v.108l-7.841 4.521H55.749v-.056c6.653-11.77 10.106-17.816 10.364-18.136zm24.818-.056h20.615v.113l-7.51 4.516h-10.47c-.351.498-.88 1.416-1.591 2.757h7.238v.113l-6.2 3.584H89.78l-1.427 2.588h15.627l.057.056h.056c-1.656 2.969-2.53 4.474-2.634 4.521H80.732l-.052-.056h-.057c6.729-11.982 10.164-18.046 10.308-18.192zm31.29 0c-3.21 0-5.676 1.158-7.402 3.472-1.937 2.705-2.905 4.483-2.905 5.349v.277l.163.606c.248.88 1.67 1.323 4.277 1.323h6.854c-.084.414-.576 1.002-1.483 1.764-.875.513-1.642.771-2.302.771l-5.483.057c-.136 0-.482.184-1.04.55l-6.69 3.971v.108h12.886c.748 0 1.68-.183 2.797-.55 1.778-.551 3.35-1.746 4.712-3.585 1.502-2.305 2.25-3.797 2.25-4.465v-.385l-.112-.5c-.435-.916-1.534-1.377-3.289-1.377h-8.006c1.32-1.873 2.76-2.809 4.333-2.809l3.51.052h4.112c.183 0 2.616-1.524 7.295-4.573v-.056H122.22zm23.887 0h7.623c1.89 0 3.04.682 3.452 2.042l.056.386c0 .852-.73 2.469-2.194 4.85-2.419 4.403-3.883 6.938-4.384 7.606-1.254 1.36-2.424 2.244-3.51 2.65-1.024.474-2.52.714-4.496.714h-6.91c-1.563 0-2.606-.494-3.126-1.487-.107-.353-.164-.644-.164-.884 0-.908.861-2.729 2.579-5.457 2.137-3.806 3.509-6.102 4.112-6.892 2.101-2.352 4.422-3.528 6.962-3.528zm-6.662 12.57v.109c0 .625.477.94 1.427.94h3.125c1.863 0 3.346-1.251 4.44-3.749 1.428-2.31 2.138-3.702 2.138-4.192v-.165c0-.47-.402-.743-1.206-.828h-3.346c-1.797 0-3.388 1.398-4.767 4.192-1.207 1.938-1.811 3.171-1.811 3.693zM191.446 47.254c-.168.212-2.288 3.838-6.364 10.876 0 .09.042.137.127.137h12.801c-1.034 1.679-2.335 2.521-3.907 2.521h-10.485c-.112.085-1.039 1.618-2.784 4.606 0 .089.047.136.136.136h12.267c3.309 0 6.009-1.289 8.09-3.872 1.6-2.554 2.4-4.106 2.4-4.662v-.601c0-.113-.046-.316-.14-.607-.421-.885-1.745-1.327-3.972-1.327h-7.173c1.006-1.825 1.54-2.743 1.591-2.743h10.42c.5-.677 1.296-2.168 2.386-4.464h-15.393zm-22.353 0h10.485c1.46 0 2.476.555 3.042 1.67.093.174.14.419.14.73 0 .907-.865 2.686-2.593 5.333-.996.89-1.988 1.337-2.975 1.337v.07c.538 0 .936.419 1.193 1.266v.193c0 .691-.866 2.182-2.592 4.478-1.946 2.13-4.375 3.199-7.29 3.199h-12.408c-.09 0-.136-.047-.136-.136 1.6-2.87 2.484-4.404 2.658-4.606h8.02c3.106 0 5.253-.842 6.442-2.521h-7.772v-.137c1.297-2.29 2.031-3.49 2.195-3.612h3.973c2.04 0 3.719-.777 5.047-2.33.184-.22.272-.352.272-.4h-10.223l-.126-.07c1.51-2.69 2.39-4.177 2.648-4.464zM23.24 47.303l-5.557-.02-10.52 18.313 5.597-.033 3.883-6.774 3.401 6.717 6.925-.055-4.5-8.686 13.083-9.394c-2.222-.012-4.622-.077-6.846-.089l-9.254 6.63 3.788-6.609z"></path></g>
		</symbol>
	
		<symbol id="snow-icon" viewBox="0 0 25 25">
			<title>Path</title><path d="M24.997 12.386a.782.782 0 0 0-.79-.774l-2.016.018 1.774-1.807a.78.78 0 1 0-1.115-1.095l-2.869 2.922-5.604.05 3.87-3.94 4.097-.037a.78.78 0 1 0-.015-1.563l-2.534.024 1.473-1.498a.78.78 0 0 0-.012-1.105.78.78 0 0 0-1.104.01l-1.47 1.497-.023-2.533a.782.782 0 0 0-1.562.015l.037 4.094-3.872 3.942-.05-5.601 2.872-2.923A.781.781 0 1 0 14.969.987l-1.776 1.808-.016-2.02A.786.786 0 0 0 12.386 0a.78.78 0 0 0-.773.788l.017 2.019-1.806-1.774A.78.78 0 1 0 8.73 2.148l2.921 2.87.05 5.602-3.94-3.87-.037-4.097a.78.78 0 1 0-1.563.016l.023 2.533L4.686 3.73A.783.783 0 0 0 3.59 4.846l1.497 1.47-2.533.022A.783.783 0 0 0 2.57 7.9l4.094-.037 3.94 3.87-5.602.05-2.92-2.87A.78.78 0 0 0 .985 10.03l1.806 1.774-2.019.018a.782.782 0 0 0 .015 1.563l2.02-.017-1.777 1.807a.78.78 0 1 0 1.116 1.094l2.87-2.922 5.602-.05-3.871 3.942-4.094.037a.78.78 0 1 0 .013 1.562l2.531-.022-1.47 1.497a.781.781 0 1 0 1.116 1.093l1.47-1.497.023 2.535a.78.78 0 1 0 1.562-.017l-.037-4.095 3.87-3.941.05 5.604-2.869 2.92a.781.781 0 1 0 1.115 1.094l1.774-1.806.018 2.019a.781.781 0 1 0 1.562-.016l-.018-2.02 1.807 1.776a.783.783 0 0 0 1.105-.01.779.779 0 0 0-.01-1.104l-2.922-2.872-.049-5.603 3.942 3.873.036 4.098a.782.782 0 0 0 1.563-.017l-.022-2.53 1.496 1.469a.782.782 0 1 0 1.094-1.116l-1.497-1.47 2.533-.022a.782.782 0 0 0-.015-1.563l-4.095.038-3.942-3.873 5.603-.048 2.922 2.87a.782.782 0 0 0 1.096-1.114L22.2 13.192l2.02-.017a.78.78 0 0 0 .776-.79z" fill="#4A90E2" fill-rule="evenodd"></path>
		</symbol>
	
		<symbol id="spikes-icon" viewBox="0 0 25 23">
			<title>Group 4</title><g transform="translate(-2 -2)" fill="none" fill-rule="evenodd"><path d="M15.617 4.115a1.3 1.3 0 0 0-2.234 0L3.055 21.465a1.3 1.3 0 0 0 1.117 1.966h20.656a1.3 1.3 0 0 0 1.117-1.965L15.617 4.115z" stroke="#FF2B2B" stroke-width="1.4" fill="#FFF" fill-rule="nonzero"></path><path fill="#2D303F" d="M18.297 13.702v5.752h-7.594v-5.752h1.323v4.668h1.817v-4.668h1.323v4.668h1.808v-4.668z"></path></g>
		</symbol>
	
		<symbol id="sun-icon" viewBox="0 0 26 27">
			<title>Shape</title><path d="M24.745 12.761H20.95a8.195 8.195 0 0 0-.336-1.697l1.417-.587a.75.75 0 0 0-.574-1.385l-1.419.588a8.28 8.28 0 0 0-.962-1.439l2.684-2.683a.75.75 0 1 0-1.06-1.06L18.017 7.18a8.28 8.28 0 0 0-1.437-.965l.593-1.43a.75.75 0 0 0-1.386-.574l-.59 1.427a8.189 8.189 0 0 0-1.7-.34V1.514a.75.75 0 1 0-1.5.023v3.76a8.193 8.193 0 0 0-1.702.335L9.71 4.216a.75.75 0 0 0-1.386.574l.587 1.416c-.516.271-1 .595-1.444.965L4.794 4.497a.75.75 0 0 0-1.06 1.06L6.406 8.23c-.37.444-.696.927-.968 1.443l-1.402-.581a.75.75 0 0 0-.574 1.385l1.4.58a8.191 8.191 0 0 0-.339 1.704H.75a.75.75 0 0 0 0 1.5h3.773c.054.588.168 1.159.339 1.705l-1.4.58a.75.75 0 0 0 .574 1.386l1.403-.581c.272.515.597.997.967 1.44l-2.672 2.673a.75.75 0 0 0 1.06 1.06l2.673-2.673c.444.37.928.694 1.443.965l-.587 1.416a.75.75 0 0 0 1.386.574l.586-1.416a8.19 8.19 0 0 0 1.703.336v3.782a.75.75 0 0 0 1.5 0v-3.784a8.19 8.19 0 0 0 1.7-.34l.587 1.419a.75.75 0 1 0 1.386-.574l-.59-1.423a8.282 8.282 0 0 0 1.437-.964l2.682 2.683a.748.748 0 0 0 1.06 0 .75.75 0 0 0 0-1.06l-2.683-2.684c.369-.443.691-.924.962-1.437l1.419.587a.748.748 0 0 0 .98-.406.75.75 0 0 0-.406-.98l-1.418-.586c.17-.544.284-1.113.337-1.698h3.794a.75.75 0 0 0 0-1.5zM12.737 20.26a6.756 6.756 0 0 1-6.748-6.749 6.756 6.756 0 0 1 6.748-6.748 6.756 6.756 0 0 1 6.749 6.748 6.756 6.756 0 0 1-6.749 6.749z" fill="#F5BC23" fill-rule="nonzero"></path>
		</symbol>
	
</svg>
