<svg width="30" height="31" viewBox="0 0 30 31" fill="none" xmlns="http://www.w3.org/2000/svg">
<path d="M24.813 5.1095C23.876 4.0257 22.4704 3.56122 21.0648 3.09673C19.8154 2.78707 18.4098 2.47742 16.6919 2.47742C16.0672 2.47742 15.2863 2.47742 14.5054 2.47742C11.6942 2.47742 9.50776 2.78707 7.63364 3.40639C5.44717 4.18053 4.04159 5.72882 3.57306 8.05125C2.94835 10.6833 2.79218 13.4703 3.2607 16.7217C3.41688 18.2699 3.88541 19.5086 4.51012 20.5924C5.291 21.831 6.38423 22.6051 7.946 23.0696C9.03923 23.3793 9.35158 24.1534 9.35158 24.7727C9.35158 25.0824 9.35158 25.8565 9.35158 26.6307C9.97629 26.0114 10.7572 25.3921 11.3819 24.7727C11.6942 24.4631 12.1628 23.8438 13.256 23.9986C13.7245 23.9986 14.0369 23.9986 14.5054 23.9986C17.0042 23.9986 19.503 23.6889 21.6895 23.0696C23.876 22.4503 25.2816 21.3665 26.0625 19.3537C26.531 18.2699 26.6872 17.0313 26.6872 15.7927C26.9995 12.5413 26.8433 10.2188 26.2186 7.89642C25.9063 6.65779 25.4377 5.88365 24.813 5.1095Z" fill="url(#paint0_linear)"/>
<path d="M8.26001 30.5014C8.10384 30.5014 7.94766 30.5014 7.79148 30.3465C7.32295 30.1917 7.0106 29.7272 7.0106 29.2627C7.0106 28.6434 7.0106 27.7144 6.85443 26.7855C6.85443 26.321 6.85443 25.7017 6.85443 25.392C4.98031 24.7727 3.41855 23.5341 2.48149 21.9858C1.54443 20.5923 0.919724 19.044 0.763548 17.0313C0.295019 13.4702 0.451195 10.3736 1.23208 7.4319C2.01296 4.33532 3.88707 2.16772 6.85443 1.08392C9.04089 0.309779 11.3835 0.00012207 14.5071 0.00012207C15.2879 0.00012207 15.9127 0.00012207 17.0059 0.00012207C18.88 0.00012207 20.4418 0.309779 22.0035 0.774265C23.7215 1.23875 25.5956 1.85807 27.0012 3.56118C27.9382 4.49015 28.5629 5.72878 28.8753 7.27707C29.5 9.75433 29.6562 12.5412 29.3438 15.9475C29.1876 17.3409 29.0315 18.7344 28.5629 20.2827C27.4697 23.0696 25.4394 24.7727 22.4721 25.5468C19.9732 26.1662 17.3182 26.4758 14.6632 26.4758C14.3509 26.4758 13.8824 26.4758 13.4138 26.4758C12.1644 27.7145 10.2903 29.2627 9.50942 29.882C9.35325 30.0369 9.19707 30.0369 9.19707 30.0369C8.88472 30.3465 8.57237 30.5014 8.26001 30.5014ZM14.5071 2.47738C11.6959 2.47738 9.50942 2.78704 7.63531 3.40635C5.44884 4.1805 4.04325 5.72878 3.57472 8.05121C2.95002 10.6833 2.79384 13.4702 3.26237 16.7216C3.41855 18.2699 3.88707 19.5085 4.51178 20.5923C5.29266 21.831 6.3859 22.6051 7.94766 23.0696C9.0409 23.3792 9.35325 24.1534 9.35325 24.7727C9.35325 25.0824 9.35325 25.8565 9.35325 26.6306C9.97795 26.0113 10.7588 25.392 11.3835 24.7727C11.6959 24.463 12.1644 23.8437 13.2577 23.9986C13.7262 23.9986 14.0385 23.9986 14.5071 23.9986C17.0059 23.9986 19.5047 23.6889 21.6912 23.0696C23.8776 22.4503 25.2832 21.3665 26.0641 19.3537C26.5326 18.2699 26.6888 17.0313 26.6888 15.7926C27.0012 12.5412 26.845 10.2188 26.2203 7.89638C25.9079 6.65775 25.4394 5.88361 24.8147 5.10947C23.8776 4.02567 22.4721 3.56118 21.0665 3.09669C19.8171 2.78704 18.4115 2.47738 16.6935 2.47738C16.0688 2.47738 15.2879 2.47738 14.5071 2.47738Z" fill="white"/>
<path d="M21.5332 18.4245C21.377 19.3535 20.9085 19.9728 20.44 20.4373C19.8153 21.0566 19.1905 21.3663 18.2535 21.0566C17.6288 20.7469 17.0041 20.4373 16.3794 20.1276C14.3491 19.1987 12.6311 17.8052 11.2255 16.2569C9.50761 14.399 8.10202 12.2314 7.32114 9.75411C7.16496 9.13479 7.16496 8.51548 7.78967 8.05099C8.2582 7.5865 8.72673 7.27685 9.35143 6.96719C9.66378 6.65753 10.1323 6.81236 10.6008 7.12202C11.5379 8.05099 12.3188 8.97996 12.9435 10.2186C13.0997 10.6831 13.0997 10.9927 12.6311 11.3024C12.475 11.4572 12.3188 11.6121 12.0064 11.7669C11.5379 12.2314 11.3817 12.541 11.5379 13.1603C12.0064 14.5538 13.0997 15.6376 14.3491 16.4117C14.8176 16.7214 15.2861 16.8762 15.7547 17.0311C16.2232 17.1859 16.5355 17.0311 16.6917 16.7214C16.8479 16.5666 17.0041 16.4117 17.1603 16.2569C17.6288 15.7924 18.2535 15.6376 18.722 15.9473C19.6591 16.5666 20.5961 17.1859 21.377 17.8052C21.377 17.96 21.377 18.2697 21.5332 18.4245Z" fill="white"/>
<path d="M22.7848 14.3993C22.4724 14.3993 22.1601 14.0896 22.1601 13.78C22.1601 9.44479 18.568 6.03856 14.3513 6.03856C14.0389 6.03856 13.7266 5.7289 13.7266 5.41924C13.7266 5.10958 14.0389 4.79993 14.3513 4.79993C19.3489 4.79993 23.4095 8.82547 23.4095 13.78C23.4095 14.0896 23.2533 14.3993 22.7848 14.3993Z" fill="white"/>
<path d="M20.5984 14.3991C20.286 14.3991 19.9737 14.0895 19.9737 13.7798C19.9737 10.6833 17.4749 8.36082 14.5075 8.36082C14.1952 8.36082 13.8828 8.05116 13.8828 7.74151C13.8828 7.43185 14.1952 7.12219 14.5075 7.12219C18.2558 7.12219 21.2231 10.0639 21.2231 13.7798C21.2231 14.0895 20.9107 14.3991 20.5984 14.3991Z" fill="white"/>
<path d="M18.2557 14.3993C17.9433 14.3993 17.631 14.0896 17.631 13.7799C17.631 12.0768 16.2254 10.5285 14.3513 10.5285C14.0389 10.5285 13.7266 10.2189 13.7266 9.90923C13.7266 9.59957 14.0389 9.28992 14.3513 9.28992C16.8501 9.28992 18.8804 11.3027 18.8804 13.7799C18.8804 14.0896 18.568 14.3993 18.2557 14.3993Z" fill="white"/>
<defs>
<linearGradient id="paint0_linear" x1="6.98551" y1="3.58838" x2="22.2361" y2="23.1963" gradientUnits="userSpaceOnUse">
<stop stop-color="#AD7EC7"/>
<stop offset="0.489583" stop-color="#8850A7"/>
<stop offset="1" stop-color="#5B1880"/>
</linearGradient>
</defs>
</svg>
