<svg width="30" height="29" viewBox="0 0 30 29" fill="none" xmlns="http://www.w3.org/2000/svg">
<path d="M14.7531 2.38245C8.0519 2.38245 2.52344 7.91091 2.52344 14.6121C2.52344 17.2925 3.36108 19.638 4.86885 21.6483L3.36108 26.1716L8.0519 24.6638C10.0622 26.0041 12.2401 26.6742 14.7531 26.6742C21.4542 26.6742 26.9827 21.1457 26.9827 14.4445C26.9827 7.74338 21.6218 2.38245 14.7531 2.38245Z" fill="url(#paint0_linear)"/>
<path d="M29.4974 14.612C29.4974 20.9782 24.8066 26.5066 18.7756 28.3494C14.7549 29.5221 11.0692 28.6845 7.88617 27.0092L2.19017 28.852C1.185 29.1871 0.347352 28.1819 0.682411 27.3443L2.52523 21.8158C1.35253 19.8055 0.682411 17.46 0.514882 14.9471C0.179823 7.74335 5.54076 1.37724 12.7445 0.204539C21.6236 -1.30322 29.665 5.733 29.4974 14.612ZM14.7549 2.38242C8.05369 2.38242 2.52523 7.91088 2.52523 14.612C2.52523 17.2925 3.36288 19.6379 4.87064 21.6483L3.36288 26.1716L8.05369 24.6638C10.064 26.004 12.2419 26.6741 14.7549 26.6741C21.456 26.6741 26.9845 21.1457 26.9845 14.4445C26.9845 7.74335 21.6236 2.38242 14.7549 2.38242ZM22.2937 17.7951C22.2937 17.6276 21.9586 17.6276 21.6236 17.46C21.2885 17.2925 19.4457 16.2873 19.2781 16.2873C18.9431 16.1198 18.7756 16.1198 18.608 16.4549C18.4405 16.7899 17.7704 17.6276 17.4353 17.9626C17.2678 18.1302 17.1003 18.1302 16.7652 17.9626C16.4302 17.7951 15.2574 17.46 13.9172 16.1198C12.7445 15.2822 12.0744 13.9419 11.9069 13.7744C11.7393 13.4393 11.9069 13.2718 12.0744 13.1043C12.2419 12.9368 12.4095 12.7692 12.577 12.6017C12.7445 12.4342 12.7445 12.2666 12.912 12.0991C13.0796 11.9316 12.912 11.7641 12.912 11.5965C12.912 11.429 12.2419 9.58617 11.7393 9.08359C11.4043 8.41347 11.2367 8.581 11.0692 8.581C10.9017 8.581 10.7342 8.581 10.3991 8.581C10.2316 8.581 9.89652 8.581 9.56146 8.91606C9.2264 9.25111 8.22122 10.2563 8.22122 11.7641C8.22122 13.6069 9.56146 15.2822 9.72899 15.4497C9.89652 15.6172 12.2419 19.4704 15.9276 20.8106C19.6132 22.3184 19.6132 21.6483 20.2833 21.6483C20.9534 21.6483 22.4612 20.8106 22.6287 19.973C22.2937 18.8003 22.2937 17.9626 22.2937 17.7951Z" fill="white"/>
<defs>
<linearGradient id="paint0_linear" x1="5.85196" y1="6.09353" x2="21.8686" y2="22.8729" gradientUnits="userSpaceOnUse">
<stop stop-color="#67F39A"/>
<stop offset="0.484375" stop-color="#00D04C"/>
<stop offset="1" stop-color="#019738"/>
</linearGradient>
</defs>
</svg>
